<?xml version="1.0" encoding="UTF-8"?>
<!DOCTYPE svg PUBLIC "-//W3C//DTD SVG 1.1//EN" "http://www.w3.org/Graphics/SVG/1.1/DTD/svg11.dtd">
<!-- Creator: CorelDRAW -->
<svg xmlns="http://www.w3.org/2000/svg" xml:space="preserve" width="736px" height="370px" version="1.1" style="shape-rendering:geometricPrecision; text-rendering:geometricPrecision; image-rendering:optimizeQuality; fill-rule:evenodd; clip-rule:evenodd"
viewBox="0 0 457.49 230.02"
 xmlns:xlink="http://www.w3.org/1999/xlink"
 xmlns:xodm="http://www.corel.com/coreldraw/odm/2003">
 <defs>
  <style type="text/css">
   <![CDATA[
    .str1 {stroke:#2923E8;stroke-width:5.18;stroke-miterlimit:22.9256}
    .str0 {stroke:#2923E8;stroke-width:5.18;stroke-miterlimit:22.9256}
    .fil0 {fill:none;fill-rule:nonzero}
    .fil1 {fill:#3FAB18;fill-rule:nonzero}
   ]]>
  </style>
 </defs>
 <g id="Layer_x0020_1">
  <metadata id="CorelCorpID_0Corel-Layer"/>
  <g id="_2875352856736">
   <g>
    <polygon class="fil0 str0" points="44.42,71.9 44.42,158.66 17.22,158.66 17.22,71.9 "/>
    <polygon class="fil0 str0" points="160.7,158.66 133.5,158.66 104.71,115.03 104.71,158.66 77.5,158.66 77.5,71.9 104.71,71.9 133.5,116.26 133.5,71.9 160.7,71.9 "/>
    <polygon class="fil0 str0" points="281.15,71.9 251.99,158.66 216.82,158.66 187.66,71.9 216.58,71.9 234.47,131.58 252.23,71.9 "/>
    <polygon class="fil0 str0" points="335.31,93.59 335.31,104.25 362.27,104.25 362.27,124.71 335.31,124.71 335.31,136.97 365.94,136.97 365.94,158.66 308.11,158.66 308.11,71.9 365.94,71.9 365.94,93.59 "/>
    <polygon class="fil0 str0" points="424.27,93.59 424.27,104.25 451.23,104.25 451.23,124.71 424.27,124.71 424.27,136.97 454.9,136.97 454.9,158.66 397.07,158.66 397.07,71.9 454.9,71.9 454.9,93.59 "/>
    <path class="fil0 str1" d="M30.82 13.18c3.53,-7.06 7.06,-10.59 14.11,-10.59 7.79,0 14.12,6.32 14.12,14.11 0,14.12 -14.12,28.23 -28.23,42.35 -14.12,-14.12 -28.23,-28.23 -28.23,-42.35 0,-7.79 6.32,-14.11 14.11,-14.11 7.06,0 10.59,3.53 14.12,10.59z"/>
   </g>
   <path class="fil1" d="M294.34 133.07c-0.2,0.48 -0.1,1.01 0.29,1.58 0.38,0.58 0.76,1.2 1.15,1.88 0.38,0.67 0.65,1.37 0.79,2.09 0.15,0.72 -0.02,1.42 -0.5,2.09 -5.58,10.38 -10.63,21.7 -15.14,33.96 -4.52,12.25 -9.09,26.22 -13.7,41.88 -0.29,1.06 -0.55,2.02 -0.79,2.89 -0.25,0.86 -0.51,1.73 -0.8,2.59 -0.29,0.87 -0.6,1.83 -0.94,2.89 -0.33,1.06 -0.69,2.31 -1.08,3.75 -0.57,1.25 -1.34,1.63 -2.3,1.15 -1.35,-0.58 -2.26,-1.99 -2.74,-4.25 -0.48,-2.26 -0.77,-4.74 -0.87,-7.43 -0.09,-2.69 -0.05,-5.26 0.15,-7.71 0.19,-2.45 0.38,-4.16 0.57,-5.12 0.87,-5.48 2.12,-11.37 3.75,-17.67 1.64,-6.29 3.61,-12.57 5.91,-18.81 2.31,-6.25 4.88,-12.28 7.72,-18.1 2.83,-5.82 5.93,-11.08 9.3,-15.79 0.48,-0.48 0.77,-0.82 0.86,-1.01 -0.67,-0.29 -2.3,-0.36 -4.9,-0.22 -2.59,0.15 -5.45,0.39 -8.58,0.73 -3.12,0.33 -6.2,0.77 -9.23,1.29 -3.03,0.53 -5.31,1.04 -6.85,1.52 0.39,0.48 1.21,1.25 2.45,2.3 1.25,1.06 2.43,2.12 3.54,3.18 1.1,1.05 1.78,1.99 2.02,2.81 0.24,0.82 -0.46,1.22 -2.09,1.22 -2.22,0 -4.35,-0.26 -6.42,-0.79 -2.07,-0.53 -4.01,-1.27 -5.84,-2.23 -0.96,-0.48 -2.04,-1.04 -3.25,-1.66 -1.2,-0.63 -2.33,-1.3 -3.38,-2.02 -1.06,-0.72 -1.97,-1.51 -2.74,-2.38 -0.77,-0.86 -1.16,-1.83 -1.16,-2.88 0,-2.7 1.3,-4.71 3.9,-6.06 5.57,-2.69 12.45,-4.76 20.62,-6.2 8.17,-1.44 16.84,-2.33 26.02,-2.67 9.18,-0.33 18.46,-0.17 27.83,0.51 9.38,0.67 18,1.73 25.89,3.17 0.48,0.1 1.22,0.34 2.23,0.72 1.01,0.39 2.09,0.87 3.24,1.44 1.16,0.58 2.26,1.18 3.32,1.8 1.06,0.63 1.85,1.25 2.38,1.88 0.53,0.62 0.67,1.18 0.43,1.66 -0.24,0.48 -1.03,0.81 -2.38,1.01 -1.34,0.19 -2.69,0.29 -4.03,0.29 -1.35,0 -2.7,0 -4.04,0 -8.46,0 -16.94,0 -25.45,0 -8.51,0 -16.9,0.24 -25.16,0.72zm32.58 59.26l1.74 -1.73 0.14 0 0 0.29c0.19,2.21 0,3.87 -0.58,4.97 -0.57,1.11 -0.86,1.71 -0.86,1.81 -0.96,1.44 -2.26,3.29 -3.9,5.55 -1.63,2.26 -3.34,4.56 -5.11,6.92 -1.78,2.35 -3.49,4.52 -5.12,6.49 -1.64,1.97 -2.94,3.39 -3.9,4.25 -1.15,1.35 -2.4,2.6 -3.75,3.75 -0.48,0.38 -1.13,0.72 -1.94,1.01 -0.82,0.29 -1.66,0.5 -2.53,0.65 -0.86,0.14 -1.7,0.17 -2.52,0.07 -0.82,-0.1 -1.47,-0.34 -1.95,-0.72 -1.63,-1.06 -2.9,-2.33 -3.82,-3.82 -0.91,-1.49 -1.37,-3.1 -1.37,-4.83 -0.29,-5.29 0.17,-10.7 1.37,-16.22 1.2,-5.53 2.62,-10.55 4.26,-15.07 0.48,-1.35 1.15,-2.74 2.02,-4.18 0.86,-0.87 1.87,-1.11 3.02,-0.73 1.16,0.39 2.19,1.18 3.1,2.38 0.92,1.21 1.59,2.67 2.02,4.4 0.43,1.73 0.36,3.46 -0.21,5.19 -0.49,1.64 -0.92,3.2 -1.3,4.69 -0.39,1.49 -0.82,3.05 -1.3,4.69 -0.19,0.76 -0.5,1.87 -0.94,3.31 -0.43,1.44 -0.89,2.96 -1.37,4.54 -0.48,1.59 -0.91,3.1 -1.29,4.55 -0.39,1.44 -0.63,2.54 -0.73,3.31 -0.19,1.44 0.2,1.83 1.16,1.16 0.96,-0.68 2.26,-1.83 3.89,-3.46 3.94,-4.04 7.69,-7.96 11.25,-11.76 3.56,-3.79 7.06,-7.62 10.52,-11.46zm-20.18 -17.3c-0.68,0.67 -1.16,0.67 -1.44,0 -1.25,-1.93 -2.07,-3.94 -2.46,-6.06 -0.38,-2.11 -0.19,-4.23 0.58,-6.34 0.39,-1.25 1.23,-2.29 2.52,-3.1 1.3,-0.82 2.48,-1.09 3.54,-0.8 0.57,0.2 1.2,0.51 1.87,0.94 0.67,0.43 1.11,0.94 1.3,1.51 0.67,2.6 0.31,5.1 -1.08,7.5 -1.4,2.41 -3.01,4.52 -4.83,6.35zm42.1 16.87c-4.04,4.52 -7.81,9.08 -11.32,13.7 -3.51,4.61 -6.94,9.22 -10.31,13.84 -0.77,0.67 -1.44,0.96 -2.02,0.86 -0.57,-0.09 -1.08,-0.38 -1.51,-0.86 -0.43,-0.48 -0.77,-1.08 -1.01,-1.8 -0.24,-0.72 -0.41,-1.37 -0.5,-1.95 -0.2,-1.73 -0.2,-3.63 0,-5.7 0.19,-2.06 0.38,-3.38 0.57,-3.96 0.39,-1.64 0.89,-3.51 1.52,-5.63 0.62,-2.11 1.27,-4.25 1.94,-6.41 0.68,-2.16 1.33,-4.28 1.95,-6.35 0.62,-2.06 1.23,-3.91 1.8,-5.55 0.39,-1.15 1.06,-1.85 2.02,-2.09 0.96,-0.24 1.9,-0.09 2.81,0.43 0.92,0.53 1.64,1.42 2.17,2.67 0.52,1.25 0.6,2.84 0.21,4.76 -0.38,1.92 -0.82,3.84 -1.3,5.77 -0.48,1.92 -0.91,3.8 -1.29,5.62 2.78,-3.08 5.55,-6.27 8.29,-9.59 2.74,-3.31 5.41,-6.61 8,-9.87 1.25,-0.87 2.55,-1.06 3.89,-0.58 1.35,0.48 2.36,1.54 3.03,3.17 0.77,1.73 1.11,3.51 1.01,5.34 -0.09,1.82 -0.33,3.55 -0.72,5.19 2.79,-2.89 6.06,-5.72 9.81,-8.51 3.74,-2.79 7.4,-4.9 10.95,-6.35 1.73,-0.67 3.32,-0.76 4.76,-0.28 1.44,0.48 2.69,1.37 3.75,2.66 1.06,1.3 1.85,2.89 2.38,4.76 0.53,1.88 0.75,3.82 0.65,5.84 -1.15,2.41 -2.26,4.74 -3.32,7 -1.05,2.25 -2.02,4.49 -2.88,6.7 -0.87,2.21 -1.56,4.42 -2.09,6.63 -0.53,2.21 -0.75,4.47 -0.65,6.78 0.67,0.48 1.8,0.19 3.39,-0.86 1.58,-1.06 3.39,-2.46 5.41,-4.19 2.01,-1.73 4.1,-3.55 6.27,-5.48 2.16,-1.92 4.06,-3.55 5.69,-4.9 4.71,-3.75 7.31,-5.33 7.79,-4.76 0.48,0.58 -0.87,2.74 -4.04,6.49 -3.07,3.66 -6.32,7.26 -9.73,10.82 -3.41,3.55 -7.04,6.63 -10.89,9.23 -1.25,0.86 -2.69,1.32 -4.32,1.37 -1.64,0.04 -3.25,-0.24 -4.83,-0.87 -1.59,-0.62 -2.96,-1.59 -4.11,-2.88 -1.16,-1.3 -1.83,-2.91 -2.02,-4.83 -0.29,-2.5 -0.12,-5.15 0.5,-7.94 0.63,-2.78 1.47,-5.55 2.53,-8.29 1.05,-2.74 2.26,-5.4 3.6,-8 1.35,-2.59 2.6,-5 3.75,-7.21 -0.29,-0.77 -1.37,-0.5 -3.24,0.79 -1.88,1.3 -4.16,3.1 -6.85,5.41 -2.69,2.31 -5.53,4.9 -8.51,7.79 -2.98,2.88 -5.72,5.53 -8.22,7.93 -1.06,0.96 -1.85,1.56 -2.38,1.8 -0.53,0.24 -0.98,0.36 -1.37,0.36 -0.96,0 -1.58,-0.79 -1.87,-2.38 -0.29,-1.58 -0.41,-3.41 -0.36,-5.48 0.04,-2.06 0.21,-4.08 0.5,-6.05 0.29,-1.97 0.53,-3.34 0.72,-4.11zm52.63 18.02c-0.19,-3.65 0.2,-7.45 1.16,-11.39 0.96,-3.94 2.4,-7.57 4.32,-10.89 1.93,-3.31 4.35,-6.03 7.28,-8.14 2.94,-2.12 6.37,-3.22 10.31,-3.32 2.02,0.48 3.58,1.49 4.69,3.03 1.11,1.54 1.42,3.41 0.94,5.62 -0.39,2.12 -0.94,3.92 -1.66,5.41 -0.72,1.49 -1.95,3.05 -3.68,4.69 -0.86,0.76 -2.06,1.77 -3.6,3.02 -1.54,1.25 -3.03,2.55 -4.47,3.9 -1.44,1.34 -2.69,2.71 -3.75,4.11 -1.06,1.39 -1.59,2.57 -1.59,3.53 -0.29,2.5 0.1,4.11 1.16,4.83 1.05,0.72 2.42,1.01 4.11,0.86 1.68,-0.14 3.38,-0.6 5.11,-1.36 1.74,-0.77 3.13,-1.45 4.19,-2.02 1.25,-0.87 2.64,-1.95 4.18,-3.25 1.54,-1.3 3.07,-2.67 4.61,-4.11 1.54,-1.44 3.03,-2.83 4.47,-4.18 1.44,-1.35 2.65,-2.45 3.61,-3.32 0.77,-0.77 1.46,-1.49 2.09,-2.16 0.62,-0.67 1.37,-1.25 2.23,-1.73 0.77,-0.19 1.37,-0.24 1.81,-0.14 0.43,0.09 0.36,0.81 -0.22,2.16 -0.77,1.63 -1.71,3.17 -2.81,4.61 -1.11,1.45 -2.29,2.89 -3.54,4.33 -1.73,1.92 -3.58,3.94 -5.55,6.06 -1.97,2.11 -4.03,4.06 -6.2,5.84 -2.16,1.77 -4.42,3.31 -6.77,4.61 -2.36,1.3 -4.79,2.14 -7.29,2.52 -4.42,0.29 -8.05,-0.62 -10.88,-2.74 -2.84,-2.11 -4.26,-5.57 -4.26,-10.38zm23.07 -27.11c-2.59,0.96 -4.63,2.21 -6.12,3.75 -1.49,1.54 -2.58,3.8 -3.25,6.78 2.12,-1.54 4.01,-3.1 5.7,-4.69 1.68,-1.58 2.91,-3.53 3.67,-5.84z"/>
  </g>
 </g>
</svg>
