<?xml version="1.0" encoding="UTF-8"?>
<!DOCTYPE svg PUBLIC "-//W3C//DTD SVG 1.1//EN" "http://www.w3.org/Graphics/SVG/1.1/DTD/svg11.dtd">
<!-- Creator: CorelDRAW -->
<svg xmlns="http://www.w3.org/2000/svg" xml:space="preserve" width="598px" height="1309px" version="1.1" style="shape-rendering:geometricPrecision; text-rendering:geometricPrecision; image-rendering:optimizeQuality; fill-rule:evenodd; clip-rule:evenodd"
viewBox="0 0 596.32 1306.26"
 xmlns:xlink="http://www.w3.org/1999/xlink"
 xmlns:xodm="http://www.corel.com/coreldraw/odm/2003">
 <defs>
  <style type="text/css">
   <![CDATA[
    .str0 {stroke:#2923E8;stroke-width:3.34;stroke-miterlimit:22.9256}
    .str1 {stroke:#2923E8;stroke-width:3.34;stroke-miterlimit:22.9256}
    .fil14 {fill:none;fill-rule:nonzero}
    .fil8 {fill:#FEFEFE}
    .fil12 {fill:#F8FAFC}
    .fil7 {fill:#ECCE54}
    .fil13 {fill:#D5D3E9}
    .fil1 {fill:#CED02D}
    .fil0 {fill:#BAB9DC}
    .fil3 {fill:#FAD9DC;fill-rule:nonzero}
    .fil9 {fill:#FDF7DE;fill-rule:nonzero}
    .fil2 {fill:#F8F9E8;fill-rule:nonzero}
    .fil10 {fill:#F1EACC;fill-rule:nonzero}
    .fil20 {fill:#E2E7D4;fill-rule:nonzero}
    .fil15 {fill:#E2E5D3;fill-rule:nonzero}
    .fil21 {fill:#E1E0B9;fill-rule:nonzero}
    .fil5 {fill:#DBE3B1;fill-rule:nonzero}
    .fil11 {fill:#D5D3E9;fill-rule:nonzero}
    .fil19 {fill:#D2BC49;fill-rule:nonzero}
    .fil17 {fill:#C3CF94;fill-rule:nonzero}
    .fil22 {fill:#BCC0CC;fill-rule:nonzero}
    .fil4 {fill:#8FA546;fill-rule:nonzero}
    .fil16 {fill:#80963A;fill-rule:nonzero}
    .fil6 {fill:#627744;fill-rule:nonzero}
    .fil18 {fill:#586C3A;fill-rule:nonzero}
    .fil23 {fill:#3FAB18;fill-rule:nonzero}
   ]]>
  </style>
 </defs>
 <g id="Layer_x0020_1">
  <metadata id="CorelCorpID_0Corel-Layer"/>
  <g id="_2875353231312">
   <path class="fil0" d="M129.41 1266.22c0.33,4.19 0.74,8.59 3.3,12.07 3.33,4.52 9.46,6.37 15.16,7.83 104.13,26.76 214.56,22.67 321.98,11.63 3.98,-0.41 8.43,-1.07 10.83,-4.04 1.69,-2.08 1.94,-4.83 2.14,-7.42 1.47,-19.14 2.94,-21.62 4.4,-40.77 -91.05,8.83 -176.32,6.57 -266.08,6.42 -22.2,-0.04 -74.29,-13.89 -96.23,-15.24 0,0 2.52,4.75 4.5,29.52z"/>
   <polygon class="fil1" points="256.39,963.28 204.94,957.83 306.45,0 357.89,5.45 "/>
   <polygon class="fil2" points="356.77,16.08 300.6,55.22 294.18,115.82 350.35,76.69 "/>
   <polygon class="fil2" points="343.7,139.39 287.53,178.53 281.11,239.14 337.28,200 "/>
   <polygon class="fil2" points="330.19,266.91 274.02,306.05 267.6,366.66 323.77,327.52 "/>
   <polygon class="fil3" points="317.12,390.22 260.95,429.36 254.53,489.96 310.7,450.83 "/>
   <polygon class="fil3" points="303.24,521.19 247.07,560.32 240.65,620.93 296.82,581.79 "/>
   <polygon class="fil3" points="276.66,772.01 220.49,811.15 214.07,871.76 270.23,832.62 "/>
   <polygon class="fil3" points="263.59,895.33 207.42,934.46 204.94,957.83 247.91,962.39 257.17,955.93 "/>
   <path class="fil4" d="M112.57 904.28c12.61,11.14 32.49,13.07 47.01,4.56 7.53,-4.41 13.56,-11.23 21.46,-14.93 21.49,-10.06 45.19,5.91 67.09,15.03 31.36,13.06 68.39,11.72 98.72,-3.58 15.63,-7.89 29.68,-19.31 46.52,-24.09 22.21,-6.31 45.75,-0.21 68.58,3.24 13.81,2.08 28.77,2.82 42.18,-0.39 12.46,-147.42 26.05,-332.49 24.87,-426.32 -151.44,-4.14 -309.36,-1.15 -460.8,-5.29 1.66,75.26 19.3,266.74 37.16,441.16 2.05,4.3 4.38,8.1 7.21,10.61z"/>
   <path class="fil5" d="M136.25 821.52c1.8,-2.98 2.08,-6.59 2.28,-10.06 1.62,-27.92 1.53,-57.85 17.32,-80.93 3.79,-5.53 9.61,-10.96 16.23,-9.93 4.96,0.77 8.66,4.99 11.04,9.41 4.77,8.82 5.98,19.05 7.73,28.93 1.76,9.87 4.38,20.11 11.2,27.46 6.83,7.36 19.04,10.59 27.08,4.58 7.48,-5.59 8.5,-16.31 8.1,-25.65 -0.76,-17.66 -4.23,-35.42 -1.5,-52.89 2.59,-16.64 10.96,-32.32 23.32,-43.74 2.6,-2.4 5.48,-4.67 8.9,-5.59 8.88,-2.37 17.62,5.48 20.69,14.15 3.06,8.67 2.41,18.17 3.98,27.23 1.57,9.06 6.56,18.73 15.48,20.95 11.81,2.92 22.04,-8.43 28.02,-19.02 12.01,0.76 17.12,15.37 19.31,27.19 1.69,9.15 3.38,18.29 5.07,27.44 1.64,8.84 4.12,18.88 12.11,23 9.56,4.92 21.7,-2.26 26.25,-12 4.55,-9.75 3.75,-21 3.42,-31.75 -0.43,-13.61 0.04,-27.24 1.4,-40.78 1.44,-14.39 4.25,-29.48 13.73,-40.39 9.49,-10.92 27.66,-15.44 38.59,-5.97 10.72,9.31 9.51,25.84 11.88,39.84 0.69,4.12 1.98,8.48 5.32,10.97 4.95,3.68 12.47,1.44 16.47,-3.25 4,-4.69 5.32,-11.04 6.28,-17.13 4.71,7.54 14.13,11.69 22.89,10.43 0.57,-8.39 1.13,-16.72 1.67,-25.01 6.1,-54.06 1.67,-72.27 6.1,-108.13 1.8,-40.04 2.74,-75.52 2.39,-103.08 -151.44,-4.14 -309.36,-1.15 -460.8,-5.29 1.44,65.36 14.94,218.38 30.16,371.75 4.59,2.34 10.27,3.15 15.52,3.64 8.17,0.77 18.14,0.65 22.37,-6.38z"/>
   <path class="fil4" d="M461.95 884.51c-22.83,-3.45 -46.37,-9.55 -68.58,-3.24 -16.84,4.78 -30.89,16.2 -46.52,24.09 -30.33,15.3 -67.36,16.64 -98.72,3.58 -21.9,-9.12 -45.6,-25.09 -67.09,-15.03 -7.9,3.7 -13.93,10.52 -21.46,14.93 -14.52,8.51 -34.4,6.58 -47.01,-4.56 -2.83,-2.51 -5.16,-6.31 -7.21,-10.61 9.95,97.21 19.97,189.08 27.33,252.6 9.24,-0.87 19.52,3.32 27.71,9.09 19.72,13.89 41.86,24.34 66.22,26.21 20.21,1.54 40.36,-2.76 60.14,-7.2 24.72,-5.56 49.38,-11.36 73.98,-17.43 14.59,-3.6 29.38,-7.31 44.4,-6.84 18.44,0.58 36.01,7.4 53.78,12.37 6.03,1.68 12.12,3.11 18.24,4.45 3.26,-24.14 5.63,-48.42 7.97,-72.66 2.1,-21.77 10.27,-106.69 19,-210.14 -13.41,3.21 -28.37,2.47 -42.18,0.39z"/>
   <path class="fil6" d="M405.14 1150.1c-15.02,-0.47 -16.62,-27.77 -31.2,-24.17 -12.42,3.06 -22.09,-1.02 -31.8,-5.1 -9.54,-4 -19.12,-8.01 -31.36,-5.25 -19.78,4.44 -38.8,45.03 -59.01,43.48 -24.35,-1.87 -44.81,-11.69 -64.53,-25.59 -8.19,-5.76 -53.1,-47.35 -62.34,-46.48 3.28,28.24 13.81,110.18 15.79,125.17 102.53,33.79 228.39,27.33 326.44,12.44 4.26,-19.08 15.39,-110.99 18,-130.34 -3.04,-0.66 -8.95,4.83 -14.86,10.32 -6,5.57 -12.01,11.14 -15.05,10.29 -9.33,-2.61 -17.59,7.4 -26,17.41 -7.6,9.05 -15.33,18.1 -24.08,17.82z"/>
   <path class="fil7" d="M362.21 994.11c0,17.28 -14.01,31.29 -31.29,31.29 -17.28,0 -31.28,-14.01 -31.28,-31.29 0,-17.27 14,-31.28 31.28,-31.28 17.28,0 31.29,14.01 31.29,31.28z"/>
   <path class="fil8" d="M331.66 978.69c0,4.17 -3.38,7.55 -7.55,7.55 -4.17,0 -7.55,-3.38 -7.55,-7.55 0,-4.16 3.38,-7.54 7.55,-7.54 4.17,0 7.55,3.38 7.55,7.54z"/>
   <path class="fil7" d="M189.22 956.9c-0.53,-17.27 13.03,-31.7 30.3,-32.24 17.27,-0.54 31.7,13.03 32.24,30.3 0.53,17.27 -13.03,31.7 -30.3,32.24 -17.27,0.53 -31.71,-13.03 -32.24,-30.3z"/>
   <path class="fil8" d="M220.23 971.37c-0.13,-4.17 3.15,-7.65 7.31,-7.78 4.17,-0.14 7.65,3.14 7.78,7.31 0.13,4.16 -3.15,7.64 -7.31,7.78 -4.17,0.13 -7.65,-3.15 -7.78,-7.31z"/>
   <path class="fil7" d="M346.48 1193.3c1.96,17.17 -10.36,32.67 -27.53,34.63 -17.17,1.96 -32.67,-10.37 -34.64,-27.53 -1.95,-17.17 10.38,-32.67 27.54,-34.63 17.16,-1.97 32.67,10.36 34.63,27.53z"/>
   <path class="fil8" d="M314.38 1181.44c0.47,4.14 -2.5,7.89 -6.64,8.36 -4.14,0.47 -7.89,-2.5 -8.36,-6.64 -0.47,-4.15 2.5,-7.88 6.64,-8.36 4.15,-0.47 7.89,2.5 8.36,6.64z"/>
   <path class="fil7" d="M425.18 936.66c-17.26,0.69 -31.82,-12.75 -32.5,-30.02 -0.69,-17.26 12.76,-31.81 30.02,-32.49 17.26,-0.69 31.81,12.75 32.5,30.02 0.68,17.26 -12.75,31.81 -30.02,32.49z"/>
   <path class="fil8" d="M439.37 905.53c-4.16,0.16 -7.67,-3.08 -7.83,-7.24 -0.17,-4.17 3.07,-7.68 7.23,-7.85 4.17,-0.16 7.68,3.08 7.85,7.24 0.16,4.17 -3.08,7.68 -7.25,7.85z"/>
   <path class="fil7" d="M196.49 1041.3c-2.2,16.12 -17.06,27.42 -33.18,25.22 -16.13,-2.21 -27.42,-17.06 -25.23,-33.19 2.21,-16.13 17.06,-27.42 33.19,-25.22 16.13,2.2 27.42,17.06 25.22,33.19z"/>
   <path class="fil8" d="M169.94 1023.02c-0.53,3.88 -4.12,6.61 -8.01,6.08 -3.89,-0.53 -6.62,-4.12 -6.08,-8.01 0.52,-3.89 4.11,-6.61 8,-6.08 3.9,0.53 6.62,4.11 6.09,8.01z"/>
   <path class="fil7" d="M349.6 1071.22c12.24,10.73 13.48,29.34 2.76,41.59 -10.72,12.25 -29.34,13.49 -41.58,2.77 -12.25,-10.72 -13.49,-29.34 -2.77,-41.59 10.72,-12.25 29.34,-13.49 41.59,-2.77z"/>
   <path class="fil8" d="M319.71 1083.31c2.96,2.59 3.26,7.08 0.67,10.04 -2.59,2.95 -7.08,3.25 -10.04,0.66 -2.95,-2.58 -3.25,-7.07 -0.66,-10.03 2.58,-2.96 7.08,-3.26 10.03,-0.67z"/>
   <path class="fil7" d="M451.4 999.89c12.25,10.72 13.48,29.34 2.76,41.59 -10.72,12.24 -29.34,13.48 -41.58,2.76 -12.25,-10.72 -13.49,-29.34 -2.77,-41.59 10.72,-12.24 29.34,-13.48 41.59,-2.76z"/>
   <path class="fil8" d="M421.51 1011.97c2.96,2.59 3.26,7.08 0.67,10.04 -2.59,2.96 -7.08,3.26 -10.03,0.67 -2.96,-2.59 -3.26,-7.08 -0.67,-10.03 2.58,-2.96 7.08,-3.26 10.03,-0.68z"/>
   <path class="fil7" d="M425.64 1177.41c-17.26,0.69 -31.81,-12.75 -32.5,-30.01 -0.69,-17.27 12.75,-31.82 30.02,-32.51 17.26,-0.68 31.81,12.76 32.5,30.02 0.68,17.26 -12.76,31.82 -30.02,32.5z"/>
   <path class="fil8" d="M439.83 1146.28c-4.16,0.16 -7.68,-3.08 -7.84,-7.24 -0.16,-4.17 3.08,-7.68 7.25,-7.85 4.16,-0.16 7.67,3.08 7.84,7.24 0.16,4.17 -3.08,7.68 -7.25,7.85z"/>
   <path class="fil7" d="M311.32 833.35c-1.7,12.85 -13.5,21.89 -26.36,20.18 -12.85,-1.7 -21.88,-13.5 -20.18,-26.35 1.7,-12.86 13.5,-21.89 26.36,-20.19 12.85,1.7 21.89,13.51 20.18,26.36z"/>
   <path class="fil8" d="M290.12 818.86c-0.41,3.11 -3.26,5.29 -6.36,4.87 -3.1,-0.41 -5.28,-3.25 -4.87,-6.35 0.41,-3.11 3.25,-5.29 6.36,-4.87 3.1,0.41 5.28,3.25 4.87,6.35z"/>
   <path class="fil7" d="M252.01 1104.48c6.48,10.81 2.98,24.83 -7.83,31.32 -10.81,6.48 -24.82,2.97 -31.31,-7.83 -6.48,-10.81 -2.98,-24.83 7.83,-31.31 10.81,-6.49 24.83,-2.98 31.31,7.82z"/>
   <path class="fil8" d="M227.11 1106.3c1.57,2.61 0.72,5.99 -1.89,7.56 -2.6,1.56 -5.99,0.72 -7.55,-1.89 -1.57,-2.61 -0.72,-5.99 1.89,-7.55 2.61,-1.57 5.99,-0.72 7.55,1.88z"/>
   <path class="fil7" d="M206.81 1170.15c6.48,10.8 2.98,24.82 -7.83,31.31 -10.81,6.48 -24.83,2.97 -31.31,-7.83 -6.49,-10.81 -2.98,-24.83 7.83,-31.31 10.81,-6.49 24.83,-2.98 31.31,7.83z"/>
   <path class="fil8" d="M181.91 1171.97c1.57,2.6 0.72,5.98 -1.88,7.55 -2.61,1.57 -6,0.72 -7.56,-1.89 -1.56,-2.61 -0.72,-5.99 1.89,-7.56 2.61,-1.56 5.99,-0.71 7.55,1.9z"/>
   <path class="fil9" d="M58.61 494.18c-6.1,0.35 6.41,21.8 9.59,27.01 1.78,2.9 6.21,0.57 10.8,-1.76 3.65,-1.85 7.38,-3.7 9.97,-2.94 22.95,6.78 47.13,10.33 70.9,7.56 24.97,-2.91 50.13,-12.7 74.54,-6.69 13.6,3.35 25.52,11.34 38.31,17.06 27.59,12.35 59.86,13.85 88.48,4.12 17.88,-6.09 34.36,-16.36 52.86,-20.26 11.18,-2.35 22.64,-2.27 34.11,-2.19 6.48,0.04 12.97,0.09 19.42,-0.31 12.91,-0.79 25.72,-3.36 37.93,-7.61 10.51,-3.66 20.81,-8.71 28.55,-16.7 7.75,-8 12.64,-19.31 10.91,-30.3 -1.79,-11.28 -10,-20.42 -18.6,-27.95 12.6,-12.84 16.53,-33.43 9.54,-50 -7,-16.56 -24.5,-28.12 -42.48,-28.04 2.54,-14.91 -2.81,-30.07 -9.85,-43.46 -4.37,-8.32 -9.46,-16.33 -15.87,-23.21 -20.18,-21.67 -51.5,-29.88 -81.11,-29.2 -29.6,0.69 -58.39,9.13 -87.19,16 -28.81,6.88 -58.8,12.25 -87.9,6.73 -14.48,-2.74 -30.9,-11.36 -31.4,-26.08 -17.11,17.59 -13.04,50.81 7.83,63.74 -17.33,-5.03 -37.67,5.63 -43.38,22.75 -5.71,17.11 4.15,37.86 21.03,44.24 -11.03,2 -22.33,-0.38 -33.54,-0.58 -11.21,-0.2 -23.66,2.55 -30.06,11.76 -6.55,9.42 -4.59,22.11 -2.32,33.36 -9.55,-3.53 -21.15,-0.58 -27.86,7.09 -7.43,8.51 -33.69,57.02 -13.21,55.86z"/>
   <path class="fil10" d="M320.61 387.21c43.96,3.7 88.87,-4.62 128.59,-23.81 -28.73,30.42 -72.57,40.9 -114.18,45.28 -42.99,4.52 -86.35,4.09 -129.53,2.18 -5.81,-0.26 -11.8,-0.59 -17.07,-3.07 -10.64,-5.01 -12.58,-19.17 -2.83,-26.24 7.71,-5.6 25.31,-4.69 34.21,-5.15 33.95,-1.78 67.18,7.97 100.81,10.81z"/>
   <path class="fil9" d="M415.18 541.36c11.34,-4.68 23.57,-6.77 35.76,-8.13 20.48,-2.3 41.17,-2.65 61.71,-1.07 -7.51,7.45 -19.34,7.37 -29.75,9.29 -10.33,1.9 -20.19,6.24 -28.58,12.57 -3.78,2.87 -7.31,6.15 -11.52,8.34 -6.46,3.35 -13.97,3.84 -21.23,4.28 -18.59,1.1 -52.69,6.04 -67.81,-7.32 6.02,-4.59 15.59,-3.71 23.03,-4.69 14.29,-1.88 25.29,-7.86 38.39,-13.27z"/>
   <path class="fil11" d="M51.75 400.1c-0.45,-4.65 -0.67,-9.2 -0.67,-13.66 0,-20.16 4.45,-38.49 12.53,-55.79 8.09,-17.29 19.87,-33.53 34.58,-49.17 5.72,-6.12 15.53,-13.69 25.72,-20.79 10.21,-7.12 20.84,-13.87 28.59,-18.88 15.27,-9.91 38.38,-18.53 62.27,-24.57 23.89,-6.08 48.66,-9.66 67.31,-10.03 5.57,-0.11 10.76,-0.16 15.65,-0.16 21.54,0 37.13,1.09 53.39,3.52 16.25,2.44 33.26,6.25 57.32,11.72 3.37,0.75 9.45,2.84 16.6,5.86 10.77,4.55 24.21,11.24 36.55,18.9 12.33,7.63 23.58,16.36 29.87,24.38 30.94,39.13 51.94,86.46 54.61,135.8 0.18,3.17 2.89,5.6 6.06,5.43 3.17,-0.17 5.6,-2.89 5.42,-6.05 -2.85,-52.22 -24.93,-101.66 -57.06,-142.31 -5.21,-6.58 -12.31,-12.77 -20.3,-18.61 -11.99,-8.74 -26.01,-16.59 -38.64,-22.68 -6.32,-3.04 -12.28,-5.63 -17.48,-7.66 -5.22,-2.03 -9.61,-3.48 -13.08,-4.28 -24.06,-5.46 -41.32,-9.34 -58.16,-11.87 -16.85,-2.53 -33.19,-3.66 -55.1,-3.66 -4.98,0 -10.25,0.06 -15.88,0.17 -19.86,0.41 -45.21,4.12 -69.91,10.38 -24.69,6.29 -48.61,15.05 -65.69,26.06 -7.68,4.98 -18.45,11.81 -28.92,19.11 -10.49,7.34 -20.66,15.06 -27.52,22.34 -15.32,16.3 -27.87,33.5 -36.61,52.17 -8.74,18.66 -13.63,38.8 -13.62,60.67 0,4.83 0.24,9.75 0.72,14.77 0.31,3.15 3.12,5.47 6.28,5.16 3.16,-0.3 5.47,-3.11 5.17,-6.27z"/>
   <path class="fil11" d="M119.66 1230.85l-1.8 5.82c62.56,19.29 132.31,26.29 200.69,26.3 60.32,0 119.58,-5.47 171.87,-12.9l4.1 -0.58 0.96 -4.04c10.98,-46 15.77,-92.71 20.54,-139.02 1.39,-13.53 5.21,-44.67 10.15,-86.34 7.41,-62.53 17.35,-148.86 25.43,-235.88 8.08,-87.02 14.32,-174.67 14.33,-240.08 0,-4.29 -0.03,-8.49 -0.08,-12.58l-0.08 -5.86 -5.85 -0.15c-41.44,-1.06 -82.92,-1.42 -124.41,-1.42 -89.15,0 -178.37,1.67 -267.37,1.67 -41.4,0 -82.76,-0.36 -124.05,-1.42l-6.39 -0.16 0.15 6.39c0.86,36.32 5.01,90.93 10.99,154.37 17.96,190.3 52.51,459.78 64.79,546.73l0.54 3.83 3.69 1.14 1.8 -5.82 6.02 -0.85c-8.16,-57.8 -26.24,-196.87 -42.69,-339.42 -8.23,-71.28 -16.05,-143.44 -22.03,-206.75 -5.97,-63.3 -10.1,-117.79 -10.94,-153.52l-6.08 0.15 -0.16 6.08c41.42,1.06 82.89,1.42 124.36,1.42 89.15,0 178.37,-1.67 267.37,-1.67 41.42,0 82.79,0.36 124.09,1.42l0.16 -6.08 -6.08 0.08c0.05,4.04 0.07,8.18 0.07,12.42 0.01,86.24 -11.03,212.94 -22.79,324.74 -5.88,55.91 -11.94,108.13 -16.87,149.78 -4.94,41.68 -8.76,72.72 -10.18,86.53 -4.76,46.31 -9.54,92.49 -20.26,137.45l5.92 1.41 -0.86 -6.02c-51.85,7.37 -110.58,12.78 -170.16,12.78 -67.55,0 -136.19,-6.97 -197.1,-25.77l-1.79 5.82 6.02 -0.85 -6.02 0.85z"/>
   <path class="fil11" d="M592.76 531.02c1.83,-12.83 3.55,-32.89 3.56,-51.81 -0.02,-13.3 -0.82,-25.92 -3.28,-35.47 -1.47,-5.63 -3.41,-11.58 -6.49,-17.2 -3.07,-5.6 -7.36,-10.91 -13.39,-14.85 -5.99,-3.91 -12.72,-5.92 -19.45,-7.06 -6.74,-1.14 -13.56,-1.42 -19.96,-1.64 -127.52,-4.29 -255.14,-6.44 -382.76,-6.44 -32.79,0 -65.59,0.14 -98.38,0.43 -5.68,0.08 -12.15,0.04 -18.64,2.4 -6.59,2.44 -11.47,6.86 -15.25,11.23 -7.17,8.28 -11.76,17.77 -14.57,27.56 -2.81,9.79 -3.88,19.9 -4.06,29.67 -0.07,3.21 -0.09,6.93 -0.09,10.9 0,19.72 0.6,45.81 0.6,45.83 0.08,3.14 2.66,5.65 5.8,5.62 44.44,-0.37 88.89,-0.56 133.33,-0.56 149.09,0 298.17,2.11 447.18,6.33 3.17,0.09 5.82,-2.42 5.91,-5.59 0.09,-3.18 -2.41,-5.82 -5.59,-5.91 -149.11,-4.22 -298.3,-6.33 -447.5,-6.33 -44.47,0 -88.95,0.19 -133.43,0.57l0.05 5.74 5.75 -0.13c0,-0.01 -0.15,-6.5 -0.3,-15.46 -0.15,-8.95 -0.3,-20.36 -0.3,-30.11 0,-3.92 0.03,-7.58 0.08,-10.69 0.17,-9.07 1.18,-18.2 3.63,-26.7 2.44,-8.52 6.3,-16.4 12.2,-23.22 3.09,-3.57 6.56,-6.51 10.53,-7.96 3.93,-1.48 9.13,-1.67 14.77,-1.69 32.76,-0.29 65.52,-0.43 98.28,-0.43 127.49,0 254.99,2.14 382.38,6.43 6.32,0.22 12.65,0.51 18.42,1.49 5.79,0.97 10.93,2.63 15.07,5.35 4.17,2.73 7.2,6.38 9.61,10.76 2.41,4.36 4.11,9.42 5.44,14.56 2.03,7.72 2.92,19.81 2.91,32.57 0,18.21 -1.69,38 -3.44,50.18 -0.45,3.15 1.73,6.06 4.88,6.51 3.14,0.45 6.05,-1.73 6.5,-4.88z"/>
   <path class="fil12" d="M142.02 794c0.28,4.47 0.52,9.18 -1.48,13.18 -4.74,9.44 -18.04,9.31 -28.5,7.79 2.09,0.31 -9.68,-116.52 -11.2,-129.78 -2.95,-25.76 -25.97,-135.74 25.21,-130.29 7.22,38.2 5.74,80.3 8.25,119.24 2.57,39.96 5.14,79.91 7.72,119.86z"/>
   <path class="fil12" d="M143.31 823.55c0.23,7.36 0.22,14.73 0,22.1 -7.79,2 -15.88,2.79 -23.91,2.35 -1.98,-0.12 -3.98,-18.57 -1.28,-20.94 4.11,-3.61 19.46,-2.07 25.19,-3.51z"/>
   <path class="fil13" d="M474.06 1179.87c3.56,-0.61 7.11,-1.23 10.66,-1.84 2.95,-61.05 8.37,-121.98 16.25,-182.59 -5.7,-0.19 -17.1,-2.91 -22.35,0.04 -6.33,3.55 -3.74,11.39 -3.44,17.76 0.87,18.61 1.39,37.23 1.59,55.86 0.11,9.92 2.42,109.89 -2.71,110.77z"/>
   <path class="fil11" d="M335.45 216.99l-1.21 11.59c8.79,2.54 13.13,7.25 12.94,9.64 -0.13,1.68 -4.41,5.02 -16.64,4.73l-45.66 -1.16c-12.16,-0.31 -24.73,-0.63 -36.17,-4.25 -2.15,-0.68 -4.79,-1.66 -6.14,-3.24 -0.65,-0.76 -0.79,-1.73 -0.72,-2.08 5.52,-5.45 21.47,-7.84 40.63,-8l1.23 -11.58c-20.65,0.04 -41.94,2.65 -50.64,12.12l-0.31 0.38c-3.63,4.68 -3.17,11.69 1.08,16.64 3.24,3.79 7.79,5.58 11.39,6.72 13,4.11 26.4,4.45 39.36,4.79l45.66 1.16c0.64,0.01 1.26,0.02 1.87,0.02 23.42,0 26.23,-11.67 26.52,-15.32 0.79,-9.68 -8.9,-18.64 -23.19,-22.16z"/>
   <path class="fil13" d="M198.47 270.37c-41.11,12.89 -77.21,41.14 -99.62,77.95 -0.6,-4.66 -8.17,-4.06 -11.04,-7.78 -2.3,-2.99 -0.61,-7.28 1.12,-10.62 4.16,-8 8.32,-15.99 12.48,-23.99 4.69,-9.03 9.42,-18.12 15.73,-26.1 11.47,-14.49 28.03,-24.7 45.75,-29.63 6.62,-1.85 14.8,-4.69 21.21,-1.2 3.51,1.9 12.84,21.85 14.37,21.37z"/>
   <path class="fil12" d="M499.11 492.72c4.07,0.04 9.72,4.17 6.39,6.52 -78.4,3.88 -163.43,11.95 -241.43,2.29 -4.39,-18.24 91.58,-10.13 106.75,-10 42.76,0.4 85.53,0.68 128.29,1.19z"/>
   <path class="fil9" d="M189.71 550.64c6.77,0.75 13.47,2.1 20.23,2.97 16.17,2.06 32.55,1.35 48.82,0.63 -11.54,2.85 -21.4,10.73 -32.99,13.38 -7.63,1.74 -15.57,1.12 -23.36,0.49 -9.51,-0.78 -19.02,-1.55 -28.53,-2.32 -3.72,-0.3 -7.49,-0.61 -11,-1.88 -28.93,-10.51 17.31,-14.33 26.83,-13.27z"/>
   <path class="fil10" d="M306.02 322.68c15.01,-2.73 29.15,-8.9 43.77,-13.25 23.66,-7.06 48.74,-9.35 73.28,-6.7 7.54,0.81 16.77,3.78 17.68,11.3 -13.89,-2.15 -28.31,-0.82 -41.57,3.85 -15.33,5.4 -28.81,15.05 -43.76,21.45 -27.48,11.77 -59.76,11.83 -87.29,0.16 -5.71,-2.42 -11.68,-5.81 -13.82,-11.63 -5.43,-14.71 9.11,-10.26 15.44,-8.29 12.34,3.82 23.33,5.46 36.27,3.11z"/>
   <path class="fil10" d="M309.74 464.22c54.43,14.99 112.69,15.83 167.52,2.41 12.01,-2.94 37.43,-23.07 11.12,-22.59 -18.26,0.34 -40.62,11.7 -59.05,15.07 -35.31,6.46 -84.25,14.85 -119.59,5.11z"/>
   <path class="fil4" d="M241.05 311.42c0,2.96 -2.4,5.36 -5.36,5.36 -2.97,0 -5.37,-2.4 -5.37,-5.36 0,-2.97 2.4,-5.37 5.37,-5.37 2.96,0 5.36,2.4 5.36,5.37z"/>
   <path class="fil4" d="M230.32 339.69c0,2.79 -2.26,5.05 -5.05,5.05 -2.78,0 -5.04,-2.26 -5.04,-5.05 0,-2.78 2.26,-5.05 5.04,-5.05 2.79,0 5.05,2.27 5.05,5.05z"/>
   <path class="fil4" d="M298.89 313.61c0,1.21 -0.98,2.19 -2.19,2.19 -1.22,0 -2.2,-0.98 -2.2,-2.19 0,-1.21 0.98,-2.19 2.2,-2.19 1.21,0 2.19,0.98 2.19,2.19z"/>
   <path class="fil4" d="M343.7 289.89c0,1.77 -1.44,3.21 -3.21,3.21 -1.78,0 -3.21,-1.44 -3.21,-3.21 0,-1.77 1.43,-3.21 3.21,-3.21 1.77,0 3.21,1.44 3.21,3.21z"/>
   <path class="fil4" d="M323.77 348.06c0,1.84 -1.49,3.32 -3.33,3.32 -1.83,0 -3.32,-1.48 -3.32,-3.32 0,-1.84 1.49,-3.32 3.32,-3.32 1.84,0 3.33,1.48 3.33,3.32z"/>
   <path class="fil4" d="M281.7 337.17c0,1.39 -1.13,2.52 -2.52,2.52 -1.39,0 -2.52,-1.13 -2.52,-2.52 0,-1.39 1.13,-2.53 2.52,-2.53 1.39,0 2.52,1.14 2.52,2.53z"/>
   <path class="fil4" d="M215.63 301.94c0,2.27 -1.84,4.11 -4.1,4.11 -2.27,0 -4.11,-1.84 -4.11,-4.11 0,-2.26 1.84,-4.11 4.11,-4.11 2.26,0 4.1,1.85 4.1,4.11z"/>
   <path class="fil4" d="M204.94 342.93c0,1.78 -1.44,3.23 -3.23,3.23 -1.78,0 -3.24,-1.45 -3.24,-3.23 0,-1.79 1.46,-3.24 3.24,-3.24 1.79,0 3.23,1.45 3.23,3.24z"/>
   <path class="fil4" d="M254.53 378.45c0,0.38 -0.32,0.7 -0.71,0.7 -0.39,0 -0.7,-0.32 -0.7,-0.7 0,-0.39 0.31,-0.71 0.7,-0.71 0.39,0 0.71,0.32 0.71,0.71z"/>
   <path class="fil4" d="M372.58 349.72c0,0.92 -0.74,1.66 -1.66,1.66 -0.92,0 -1.66,-0.74 -1.66,-1.66 0,-0.92 0.74,-1.66 1.66,-1.66 0.92,0 1.66,0.74 1.66,1.66z"/>
   <path class="fil4" d="M401.68 297.39c0,2.36 -1.92,4.27 -4.29,4.27 -2.36,0 -4.27,-1.91 -4.27,-4.27 0,-2.37 1.91,-4.29 4.27,-4.29 2.37,0 4.29,1.92 4.29,4.29z"/>
   <path class="fil4" d="M397.39 278.52c0,1.31 -1.06,2.37 -2.37,2.37 -1.31,0 -2.36,-1.06 -2.36,-2.37 0,-1.31 1.05,-2.37 2.36,-2.37 1.31,0 2.37,1.06 2.37,2.37z"/>
   <path class="fil4" d="M293.38 291.49c0,0.89 -0.72,1.61 -1.61,1.61 -0.89,0 -1.6,-0.72 -1.6,-1.61 0,-0.88 0.71,-1.6 1.6,-1.6 0.89,0 1.61,0.72 1.61,1.6z"/>
   <path class="fil4" d="M262.98 299.89c0,1.13 -0.92,2.05 -2.05,2.05 -1.13,0 -2.05,-0.92 -2.05,-2.05 0,-1.13 0.92,-2.06 2.05,-2.06 1.13,0 2.05,0.93 2.05,2.06z"/>
   <path class="fil4" d="M274.02 321.71c0,1.17 -0.96,2.12 -2.13,2.12 -1.18,0 -2.14,-0.95 -2.14,-2.12 0,-1.19 0.96,-2.14 2.14,-2.14 1.17,0 2.13,0.95 2.13,2.14z"/>
   <path class="fil4" d="M414.76 342.22c0,1.39 -1.13,2.52 -2.52,2.52 -1.39,0 -2.52,-1.13 -2.52,-2.52 0,-1.4 1.13,-2.53 2.52,-2.53 1.39,0 2.52,1.13 2.52,2.53z"/>
   <path class="fil4" d="M368.02 324.61c0,1.61 -1.3,2.91 -2.91,2.91 -1.6,0 -2.9,-1.3 -2.9,-2.91 0,-1.6 1.3,-2.9 2.9,-2.9 1.61,0 2.91,1.3 2.91,2.9z"/>
   <path class="fil4" d="M369.26 286.68c0,0 -2.15,0 -4.8,0 -2.65,0 -4.8,0 -4.8,0 0,0 2.15,0 4.8,0 2.65,0 4.8,0 4.8,0z"/>
   <path class="fil4" d="M375.61 263.73c0,1.76 -1.42,3.18 -3.18,3.18 -1.75,0 -3.17,-1.42 -3.17,-3.18 0,-1.75 1.42,-3.18 3.17,-3.18 1.76,0 3.18,1.43 3.18,3.18z"/>
   <path class="fil4" d="M331.66 269.99c0,0.95 -0.77,1.72 -1.72,1.72 -0.94,0 -1.71,-0.77 -1.71,-1.72 0,-0.95 0.77,-1.71 1.71,-1.71 0.95,0 1.72,0.76 1.72,1.71z"/>
   <path class="fil4" d="M290.17 278.98c0,1.56 -1.27,2.83 -2.84,2.83 -1.56,0 -2.83,-1.27 -2.83,-2.83 0,-1.56 1.27,-2.83 2.83,-2.83 1.57,0 2.84,1.27 2.84,2.83z"/>
   <path class="fil4" d="M241.48 283.78c0,1.6 -1.3,2.9 -2.9,2.9 -1.59,0 -2.89,-1.3 -2.89,-2.9 0,-1.6 1.3,-2.89 2.89,-2.89 1.6,0 2.9,1.29 2.9,2.89z"/>
   <path class="fil4" d="M179.25 380.18c0,0.57 -0.46,1.03 -1.03,1.03 -0.56,0 -1.03,-0.46 -1.03,-1.03 0,-0.57 0.47,-1.03 1.03,-1.03 0.57,0 1.03,0.46 1.03,1.03z"/>
   <path class="fil4" d="M146.49 454.65c0,1.19 -0.96,2.14 -2.14,2.14 -1.18,0 -2.14,-0.95 -2.14,-2.14 0,-1.18 0.96,-2.14 2.14,-2.14 1.18,0 2.14,0.96 2.14,2.14z"/>
   <path class="fil4" d="M220.23 459.88c0,1.7 -1.38,3.07 -3.08,3.07 -1.71,0 -3.08,-1.37 -3.08,-3.07 0,-1.71 1.37,-3.09 3.08,-3.09 1.7,0 3.08,1.38 3.08,3.09z"/>
   <path class="fil4" d="M179.25 498.89c0,0.57 -0.46,1.03 -1.03,1.03 -0.56,0 -1.03,-0.46 -1.03,-1.03 0,-0.57 0.47,-1.03 1.03,-1.03 0.57,0 1.03,0.46 1.03,1.03z"/>
   <path class="fil4" d="M346.93 430.97c0,0.89 -0.72,1.62 -1.61,1.62 -0.9,0 -1.62,-0.73 -1.62,-1.62 0,-0.89 0.72,-1.61 1.62,-1.61 0.89,0 1.61,0.72 1.61,1.61z"/>
   <path class="fil4" d="M288.05 368.43c0,0.98 -0.8,1.77 -1.77,1.77 -0.98,0 -1.78,-0.79 -1.78,-1.77 0,-0.98 0.8,-1.77 1.78,-1.77 0.97,0 1.77,0.79 1.77,1.77z"/>
   <path class="fil4" d="M257.17 368.45c0,2.78 -2.26,5.05 -5.05,5.05 -2.79,0 -5.05,-2.27 -5.05,-5.05 0,-2.79 2.26,-5.05 5.05,-5.05 2.79,0 5.05,2.26 5.05,5.05z"/>
   <path class="fil4" d="M451.99 308.73c0,1.48 -1.2,2.69 -2.68,2.69 -1.48,0 -2.69,-1.21 -2.69,-2.69 0,-1.48 1.21,-2.68 2.69,-2.68 1.48,0 2.68,1.2 2.68,2.68z"/>
   <path class="fil4" d="M440.75 272.66c0,2.42 -1.96,4.38 -4.38,4.38 -2.42,0 -4.38,-1.96 -4.38,-4.38 0,-2.42 1.96,-4.38 4.38,-4.38 2.42,0 4.38,1.96 4.38,4.38z"/>
   <path class="fil4" d="M416.04 275.82c0,1.74 -1.42,3.16 -3.16,3.16 -1.75,0 -3.16,-1.42 -3.16,-3.16 0,-1.74 1.41,-3.16 3.16,-3.16 1.74,0 3.16,1.42 3.16,3.16z"/>
   <path class="fil4" d="M365.11 305.16c0,1.77 -1.44,3.21 -3.21,3.21 -1.77,0 -3.21,-1.44 -3.21,-3.21 0,-1.78 1.44,-3.22 3.21,-3.22 1.77,0 3.21,1.44 3.21,3.22z"/>
   <path class="fil4" d="M330.92 314.14c0,1.51 -1.22,2.73 -2.72,2.73 -1.51,0 -2.73,-1.22 -2.73,-2.73 0,-1.5 1.22,-2.72 2.73,-2.72 1.5,0 2.72,1.22 2.72,2.72z"/>
   <path class="fil4" d="M323.77 291.45c0,2.63 -2.14,4.77 -4.77,4.77 -2.64,0 -4.77,-2.14 -4.77,-4.77 0,-2.64 2.13,-4.77 4.77,-4.77 2.63,0 4.77,2.13 4.77,4.77z"/>
   <path class="fil4" d="M456.72 373.93c0,4.02 -3.25,7.28 -7.27,7.28 -4.02,0 -7.28,-3.26 -7.28,-7.28 0,-4.02 3.26,-7.27 7.28,-7.27 4.02,0 7.27,3.25 7.27,7.27z"/>
   <path class="fil4" d="M467.21 340.05c0,1.59 -1.28,2.88 -2.87,2.88 -1.6,0 -2.88,-1.29 -2.88,-2.88 0,-1.59 1.28,-2.88 2.88,-2.88 1.59,0 2.87,1.29 2.87,2.88z"/>
   <path class="fil4" d="M431.99 447.83c0,2.09 -1.7,3.79 -3.8,3.79 -2.09,0 -3.79,-1.7 -3.79,-3.79 0,-2.1 1.7,-3.79 3.79,-3.79 2.1,0 3.8,1.69 3.8,3.79z"/>
   <line class="fil14" x1="485.13" y1="476.11" x2="485.13" y2= "476.11" />
   <path class="fil4" d="M358.69 464.05c0,2.3 -1.87,4.16 -4.17,4.16 -2.31,0 -4.17,-1.86 -4.17,-4.16 0,-2.31 1.86,-4.17 4.17,-4.17 2.3,0 4.17,1.86 4.17,4.17z"/>
   <path class="fil4" d="M288.05 434.44c0,1.92 -1.56,3.47 -3.47,3.47 -1.92,0 -3.47,-1.55 -3.47,-3.47 0,-1.91 1.55,-3.47 3.47,-3.47 1.91,0 3.47,1.56 3.47,3.47z"/>
   <path class="fil4" d="M395.02 329.84c0,2.71 -2.19,4.9 -4.9,4.9 -2.71,0 -4.9,-2.19 -4.9,-4.9 0,-2.71 2.19,-4.91 4.9,-4.91 2.71,0 4.9,2.2 4.9,4.91z"/>
   <path class="fil4" d="M182.7 343.52c0,3.5 -2.84,6.35 -6.35,6.35 -3.51,0 -6.35,-2.85 -6.35,-6.35 0,-3.51 2.84,-6.35 6.35,-6.35 3.51,0 6.35,2.84 6.35,6.35z"/>
   <path class="fil4" d="M485.39 319.27c0,3.13 -2.54,5.66 -5.66,5.66 -3.13,0 -5.67,-2.53 -5.67,-5.66 0,-3.12 2.54,-5.66 5.67,-5.66 3.12,0 5.66,2.54 5.66,5.66z"/>
   <path class="fil15" d="M309.01 1236.67c-35.88,-0.23 -72.07,-2.87 -106.92,-8.93 0.06,-0.09 0.14,-0.19 0.21,-0.28 34.76,6.16 70.88,8.89 106.71,9.21zm174.87 -350.37l0 0c0,0 0.01,0 0.02,0 -0.01,0 -0.02,0 -0.02,0zm-0.03 0c-6.5,0 -13.04,-0.56 -19.38,-1.43 6.34,0.87 12.89,1.43 19.38,1.43zm-19.44 -1.44c-0.82,-0.11 -1.64,-0.23 -2.46,-0.35 -0.16,-0.03 -0.32,-0.05 -0.49,-0.08 0.17,0.03 0.33,0.05 0.49,0.08 0.82,0.12 1.64,0.24 2.46,0.35zm-3.21 -0.47c-0.23,-0.03 -0.47,-0.07 -0.71,-0.11 0.24,0.04 0.48,0.08 0.71,0.11zm-0.73 -0.11c-0.18,-0.03 -0.36,-0.06 -0.54,-0.08 0.18,0.02 0.36,0.05 0.54,0.08zm-0.55 -0.08c-0.1,-0.02 -0.2,-0.04 -0.31,-0.05 0.11,0.01 0.21,0.03 0.31,0.05zm-0.42 -0.07c-5.07,-0.8 -10.18,-1.71 -15.29,-2.55l0 0c5.11,0.84 10.22,1.75 15.29,2.55zm-65.93 -2.91c0.12,-0.04 0.24,-0.07 0.37,-0.11 -0.13,0.04 -0.25,0.07 -0.37,0.11z"/>
   <path class="fil16" d="M352.4 902.39c26.8,-64.81 53.3,-129.78 80.09,-194.59 7.62,-18.43 15.16,-36.89 22.55,-55.41 0.32,0.24 0.64,0.5 0.96,0.77 10.72,9.31 9.51,25.84 11.88,39.84 0.69,4.12 1.98,8.48 5.32,10.97 1.71,1.27 3.73,1.84 5.8,1.84 3.93,0 8.05,-2.02 10.67,-5.09 4,-4.69 5.32,-11.04 6.28,-17.13 4.15,6.65 11.95,10.65 19.74,10.65 0.4,0 0.8,0 1.2,-0.03 -4.37,63.74 -9.63,129.94 -14.69,189.91 -0.02,0.14 -0.03,0.3 -0.04,0.44 -5.9,1.23 -12.06,1.74 -18.26,1.74 -0.01,0 -0.02,0 -0.02,0 -0.01,0 -0.02,0 -0.03,0 -6.49,0 -13.04,-0.56 -19.38,-1.43 -0.02,0 -0.04,-0.01 -0.06,-0.01 -0.82,-0.11 -1.64,-0.23 -2.46,-0.35 -0.16,-0.03 -0.32,-0.05 -0.49,-0.08 -0.08,-0.01 -0.17,-0.02 -0.26,-0.04 -0.23,-0.03 -0.47,-0.07 -0.71,-0.11 -0.01,0 -0.02,0 -0.02,0 -0.18,-0.03 -0.36,-0.06 -0.54,-0.08l-0.01 0c-0.1,-0.02 -0.2,-0.04 -0.31,-0.05 -0.03,-0.01 -0.07,-0.01 -0.11,-0.02 -5.07,-0.8 -10.18,-1.71 -15.29,-2.55 -5.47,-4.67 -12.56,-7.46 -20.25,-7.46 -0.42,0 -0.84,0.01 -1.26,0.03 -5.6,0.22 -10.79,1.9 -15.24,4.66 -4.55,0.35 -9.06,1.08 -13.52,2.3 -0.13,0.04 -0.25,0.07 -0.37,0.11 -0.07,0.01 -0.13,0.03 -0.2,0.05l0 0c-14.82,4.21 -27.49,13.56 -40.97,21.12z"/>
   <path class="fil17" d="M479 705.81c-2.07,0 -4.09,-0.57 -5.8,-1.84 -3.34,-2.49 -4.63,-6.85 -5.32,-10.97 -2.37,-14 -1.16,-30.53 -11.88,-39.84 -0.32,-0.27 -0.64,-0.53 -0.96,-0.77 7.11,-17.85 14.09,-35.75 20.86,-53.73 3.42,-9.1 12.45,-33.61 23.59,-59.93 2.2,-0.51 4.32,-1.16 6.32,-2.03 6.62,0.08 13.24,0.18 19.85,0.3 -1.74,46.51 -4.92,100.9 -8.77,157.21 -0.4,0.03 -0.8,0.03 -1.2,0.03 -7.79,0 -15.59,-4 -19.74,-10.65 -0.96,6.09 -2.28,12.44 -6.28,17.13 -2.62,3.07 -6.74,5.09 -10.67,5.09z"/>
   <path class="fil16" d="M252.9 1159.11c-0.37,0 -0.75,-0.02 -1.13,-0.05 -2.15,-0.16 -4.26,-0.39 -6.34,-0.67 24.42,-45.64 43.92,-94.18 62.54,-143.02 5.72,6.17 13.88,10.03 22.95,10.03 17.28,0 31.29,-14.01 31.29,-31.29 0,-17.27 -14.01,-31.28 -31.29,-31.28 -1.05,0 -2.09,0.05 -3.12,0.15 2.17,-5.7 4.35,-11.39 6.54,-17.07 6.04,-14.5 12.06,-29 18.06,-43.52 13.48,-7.56 26.15,-16.91 40.97,-21.12l0 0c0.07,-0.02 0.13,-0.04 0.2,-0.05 0.12,-0.04 0.24,-0.07 0.37,-0.11 4.46,-1.22 8.97,-1.95 13.52,-2.3 -9.25,5.74 -15.24,16.17 -14.78,27.83 0.67,16.85 14.54,30.05 31.24,30.05 0.42,0 0.84,-0.01 1.26,-0.03 17.27,-0.68 30.7,-15.23 30.02,-32.49 -0.36,-9.1 -4.57,-17.13 -10.99,-22.59 5.11,0.84 10.22,1.75 15.29,2.55 0.04,0.01 0.08,0.01 0.11,0.02 0.11,0.01 0.21,0.03 0.31,0.05l0.01 0c0.18,0.02 0.36,0.05 0.54,0.08 0,0 0.01,0 0.02,0 0.24,0.04 0.48,0.08 0.71,0.11 0.09,0.02 0.18,0.03 0.26,0.04 0.17,0.03 0.33,0.05 0.49,0.08 0.82,0.12 1.64,0.24 2.46,0.35 0.02,0 0.04,0.01 0.06,0.01 6.34,0.87 12.88,1.43 19.38,1.43 0.01,0 0.02,0 0.03,0l0 0c0,0 0.01,0 0.02,0 6.2,0 12.36,-0.51 18.26,-1.74 -3.41,40.4 -6.74,77.94 -9.65,110 -2.22,-0.25 -4.53,-0.45 -6.69,-0.45 -2.81,0 -5.37,0.35 -7.2,1.37 -6.33,3.55 -3.74,11.39 -3.44,17.76 0.87,18.61 1.39,37.23 1.59,55.86 0.03,3.06 0.28,14.65 0.45,29.26 -2.19,1.8 -4.57,4.02 -6.95,6.22 -5.59,5.19 -11.19,10.38 -14.38,10.38 -0.24,0 -0.46,-0.03 -0.67,-0.09 -1.02,-0.28 -2.03,-0.42 -3.02,-0.42 -3.89,0 -7.6,2.05 -11.25,5.16 -4.81,-3.01 -10.48,-4.74 -16.53,-4.74 -0.42,0 -0.84,0.01 -1.26,0.02 -15.59,0.62 -28.06,12.54 -29.83,27.56 -5.29,-7.19 -9.06,-16.85 -16.84,-16.85 -0.8,0 -1.65,0.1 -2.55,0.33 -3.04,0.74 -5.91,1.06 -8.65,1.06 -8.49,0 -15.81,-3.08 -23.15,-6.16 -0.2,-0.08 -0.38,-0.16 -0.57,-0.23 4.02,-1.68 7.73,-4.29 10.79,-7.79 10.72,-12.25 9.48,-30.86 -2.76,-41.59 -5.59,-4.89 -12.51,-7.29 -19.4,-7.29 -8.2,0 -16.36,3.4 -22.19,10.06 -10.72,12.25 -9.48,30.87 2.77,41.59 -19.41,4.36 -38.09,43.52 -57.88,43.53zm179.1 -166.52c-8.2,0 -16.36,3.4 -22.19,10.06 -10.72,12.25 -9.48,30.87 2.77,41.59 5.58,4.9 12.5,7.3 19.39,7.3 8.21,0 16.37,-3.41 22.19,-10.06 10.72,-12.25 9.49,-30.87 -2.76,-41.59 -5.59,-4.9 -12.51,-7.3 -19.4,-7.3z"/>
   <path class="fil18" d="M314.37 1236.69c-1.78,0 -3.57,0 -5.36,-0.02 -35.83,-0.32 -71.95,-3.05 -106.71,-9.21 16.12,-21.98 30.3,-45.12 43.13,-69.07 2.08,0.28 4.19,0.51 6.34,0.67 0.38,0.03 0.76,0.05 1.13,0.05 19.79,-0.01 38.47,-39.17 57.88,-43.53l0 0c5.59,4.89 12.5,7.29 19.39,7.29 3.89,0 7.77,-0.76 11.4,-2.27 0.19,0.07 0.37,0.15 0.57,0.23 7.34,3.08 14.66,6.16 23.15,6.16 2.74,0 5.61,-0.32 8.65,-1.06 0.9,-0.23 1.75,-0.33 2.55,-0.33 7.78,0 11.55,9.66 16.84,16.85 -0.19,1.61 -0.26,3.27 -0.19,4.95 0.67,16.84 14.53,30.04 31.24,30.04 0.42,0 0.83,-0.01 1.26,-0.03 17.26,-0.68 30.7,-15.24 30.02,-32.5 -0.43,-10.74 -6.22,-20 -14.71,-25.3 3.65,-3.11 7.36,-5.16 11.25,-5.16 0.99,0 2,0.14 3.02,0.42 0.21,0.06 0.43,0.09 0.67,0.09 3.19,0 8.79,-5.19 14.38,-10.38 2.38,-2.2 4.76,-4.42 6.95,-6.22 0.19,16.82 0.29,37.65 -0.13,54.04 -0.6,4.84 -1.21,9.68 -1.87,14.52 -2.61,19.34 -5.77,38.6 -10.03,57.68 -45.93,6.97 -97.94,12.09 -150.82,12.09zm1.07 -71.13c-1.19,0 -2.39,0.07 -3.59,0.21 -17.16,1.96 -29.49,17.46 -27.54,34.63 1.83,15.96 15.36,27.73 31.05,27.73 1.18,0 2.38,-0.06 3.59,-0.2 17.17,-1.96 29.49,-17.46 27.53,-34.63 -1.82,-15.96 -15.36,-27.74 -31.04,-27.74z"/>
   <path class="fil19" d="M330.92 1025.4c-9.07,0 -17.23,-3.86 -22.95,-10.03 3.9,-10.21 7.75,-20.43 11.6,-30.64 1.27,0.95 2.84,1.51 4.54,1.51 4.17,0 7.55,-3.38 7.55,-7.55 0,-3.96 -3.07,-7.22 -6.96,-7.52 1.03,-2.73 2.07,-5.46 3.1,-8.19 1.03,-0.1 2.07,-0.15 3.12,-0.15 17.28,0 31.29,14.01 31.29,31.28 0,17.28 -14.01,31.29 -31.29,31.29z"/>
   <path class="fil20" d="M324.11 986.24c-1.7,0 -3.27,-0.56 -4.54,-1.51 1.71,-4.52 3.42,-9.04 5.13,-13.56 3.89,0.3 6.96,3.56 6.96,7.52 0,4.17 -3.38,7.55 -7.55,7.55z"/>
   <path class="fil19" d="M315.36 1228.13c-15.69,0 -29.22,-11.77 -31.05,-27.73 -1.95,-17.17 10.38,-32.67 27.54,-34.63 1.2,-0.14 2.4,-0.21 3.59,-0.21 15.68,0 29.22,11.78 31.04,27.74 1.96,17.17 -10.36,32.67 -27.53,34.63 -1.21,0.14 -2.41,0.2 -3.59,0.2zm-8.47 -53.38c-0.29,0 -0.58,0.02 -0.87,0.05 -4.14,0.48 -7.11,4.21 -6.64,8.36 0.44,3.85 3.7,6.69 7.49,6.69 0.28,0 0.58,-0.02 0.87,-0.05 4.14,-0.47 7.11,-4.22 6.64,-8.36 -0.44,-3.85 -3.71,-6.69 -7.49,-6.69z"/>
   <path class="fil20" d="M306.87 1189.85c-3.79,0 -7.05,-2.84 -7.49,-6.69 -0.47,-4.15 2.5,-7.88 6.64,-8.36 0.29,-0.03 0.58,-0.05 0.87,-0.05 3.78,0 7.05,2.84 7.49,6.69 0.47,4.14 -2.5,7.89 -6.64,8.36 -0.29,0.03 -0.59,0.05 -0.87,0.05z"/>
   <path class="fil19" d="M423.92 936.69c-16.7,0 -30.57,-13.2 -31.24,-30.05 -0.46,-11.66 5.53,-22.09 14.78,-27.83 4.45,-2.76 9.64,-4.44 15.24,-4.66 0.42,-0.02 0.84,-0.03 1.26,-0.03 7.69,0 14.78,2.79 20.25,7.46l0 0c6.42,5.46 10.63,13.49 10.99,22.59 0.68,17.26 -12.75,31.81 -30.02,32.49 -0.42,0.02 -0.84,0.03 -1.26,0.03zm15.16 -46.25c-0.1,0 -0.2,0 -0.31,0 -4.16,0.17 -7.4,3.68 -7.23,7.85 0.15,4.06 3.5,7.24 7.53,7.24 0.1,0 0.2,0 0.3,0 4.17,-0.17 7.41,-3.68 7.25,-7.85 -0.16,-4.05 -3.51,-7.24 -7.54,-7.24z"/>
   <path class="fil20" d="M439.07 905.53c-4.03,0 -7.38,-3.18 -7.53,-7.24 -0.17,-4.17 3.07,-7.68 7.23,-7.85 0.11,0 0.21,0 0.31,0 4.03,0 7.38,3.19 7.54,7.24 0.16,4.17 -3.08,7.68 -7.25,7.85 -0.1,0 -0.2,0 -0.3,0z"/>
   <path class="fil19" d="M330.17 1122.87c-6.89,0 -13.8,-2.4 -19.39,-7.29l0 0c-12.25,-10.72 -13.49,-29.34 -2.77,-41.59 5.83,-6.66 13.99,-10.06 22.19,-10.06 6.89,0 13.81,2.4 19.4,7.29 12.24,10.73 13.48,29.34 2.76,41.59 -3.06,3.5 -6.77,6.11 -10.79,7.79 -3.63,1.51 -7.51,2.27 -11.4,2.27zm-15.14 -41.32c-1.98,0 -3.95,0.82 -5.35,2.43 -2.59,2.96 -2.29,7.45 0.66,10.03 1.36,1.18 3.03,1.76 4.69,1.76 1.97,0 3.95,-0.82 5.35,-2.42 2.59,-2.96 2.29,-7.45 -0.67,-10.04 -1.35,-1.18 -3.01,-1.76 -4.68,-1.76z"/>
   <path class="fil20" d="M315.03 1095.77c-1.66,0 -3.33,-0.58 -4.69,-1.76 -2.95,-2.58 -3.25,-7.07 -0.66,-10.03 1.4,-1.61 3.37,-2.43 5.35,-2.43 1.67,0 3.33,0.58 4.68,1.76 2.96,2.59 3.26,7.08 0.67,10.04 -1.4,1.6 -3.38,2.42 -5.35,2.42z"/>
   <path class="fil19" d="M431.97 1051.54c-6.89,0 -13.81,-2.4 -19.39,-7.3 -12.25,-10.72 -13.49,-29.34 -2.77,-41.59 5.83,-6.66 13.99,-10.06 22.19,-10.06 6.89,0 13.81,2.4 19.4,7.3 12.25,10.72 13.48,29.34 2.76,41.59 -5.82,6.65 -13.98,10.06 -22.19,10.06zm-15.14 -41.33c-1.98,0 -3.95,0.83 -5.35,2.44 -2.59,2.95 -2.29,7.44 0.67,10.03 1.34,1.18 3.02,1.76 4.67,1.76 1.98,0 3.96,-0.82 5.36,-2.43 2.59,-2.96 2.29,-7.45 -0.67,-10.04 -1.35,-1.18 -3.01,-1.76 -4.68,-1.76z"/>
   <path class="fil20" d="M416.82 1024.44c-1.65,0 -3.33,-0.58 -4.67,-1.76 -2.96,-2.59 -3.26,-7.08 -0.67,-10.03 1.4,-1.61 3.37,-2.44 5.35,-2.44 1.67,0 3.33,0.58 4.68,1.76 2.96,2.59 3.26,7.08 0.67,10.04 -1.4,1.61 -3.38,2.43 -5.36,2.43z"/>
   <path class="fil19" d="M424.38 1177.44c-16.71,0 -30.57,-13.2 -31.24,-30.04 -0.07,-1.68 0,-3.34 0.19,-4.95 1.77,-15.02 14.24,-26.94 29.83,-27.56 0.42,-0.01 0.84,-0.02 1.26,-0.02 6.05,0 11.72,1.73 16.53,4.74 8.49,5.3 14.28,14.56 14.71,25.3 0.68,17.26 -12.76,31.82 -30.02,32.5 -0.43,0.02 -0.84,0.03 -1.26,0.03zm15.16 -46.25c-0.1,0 -0.2,0 -0.3,0 -4.17,0.17 -7.41,3.68 -7.25,7.85 0.16,4.06 3.51,7.25 7.55,7.25 0.1,0 0.19,-0.01 0.29,-0.01 4.17,-0.17 7.41,-3.68 7.25,-7.85 -0.16,-4.06 -3.51,-7.24 -7.54,-7.24z"/>
   <path class="fil20" d="M439.54 1146.29c-4.04,0 -7.39,-3.19 -7.55,-7.25 -0.16,-4.17 3.08,-7.68 7.25,-7.85 0.1,0 0.2,0 0.3,0 4.03,0 7.38,3.18 7.54,7.24 0.16,4.17 -3.08,7.68 -7.25,7.85 -0.1,0 -0.19,0.01 -0.29,0.01z"/>
   <path class="fil21" d="M499.49 538.73c0.3,-0.7 0.59,-1.39 0.89,-2.09 1.81,0.02 3.62,0.04 5.43,0.06 -2,0.87 -4.12,1.52 -6.32,2.03z"/>
   <path class="fil22" d="M525.66 537c-6.61,-0.12 -13.23,-0.22 -19.85,-0.3 -1.81,-0.02 -3.62,-0.04 -5.43,-0.06 0.41,-0.95 0.82,-1.91 1.23,-2.87 8.05,0.19 16.1,0.38 24.15,0.57 -0.03,0.89 -0.06,1.77 -0.1,2.66z"/>
   <path class="fil17" d="M526.15 522.85c-6.51,-0.16 -13.03,-0.32 -19.54,-0.47 2.73,-6.1 5.54,-12.15 8.38,-17.98 4.15,-1.9 8.15,-4.11 11.83,-6.74 -0.16,8.04 -0.38,16.46 -0.67,25.19z"/>
   <path class="fil21" d="M514.99 504.4c4,-8.22 8.07,-16.01 12.07,-22.88 -0.05,5.19 -0.12,10.58 -0.24,16.14 -3.68,2.63 -7.68,4.84 -11.83,6.74z"/>
   <path class="fil22" d="M525.76 534.34c-8.05,-0.19 -16.1,-0.38 -24.15,-0.57 1.63,-3.79 3.3,-7.6 5,-11.39 6.51,0.15 13.03,0.31 19.54,0.47 -0.12,3.78 -0.25,7.6 -0.39,11.49z"/>
   <path class="fil22" d="M477.09 1152.4c0.42,-16.39 0.32,-37.22 0.13,-54.04 -0.17,-14.61 -0.42,-26.2 -0.45,-29.26 -0.2,-18.63 -0.72,-37.25 -1.59,-55.86 -0.3,-6.37 -2.89,-14.21 3.44,-17.76 1.83,-1.02 4.39,-1.37 7.2,-1.37 2.16,0 4.47,0.2 6.69,0.45 -4.53,49.89 -8.04,86.47 -9.32,99.7 -1.86,19.39 -3.76,38.8 -6.1,58.14z"/>
   <g>
    <g>
     <polygon class="fil14 str0" points="187.08,646.01 187.08,702.01 169.52,702.01 169.52,646.01 "/>
     <polygon class="fil14 str0" points="262.14,702.01 244.58,702.01 226,673.85 226,702.01 208.44,702.01 208.44,646.01 226,646.01 244.58,674.64 244.58,646.01 262.14,646.01 "/>
     <polygon class="fil14 str0" points="339.89,646.01 321.07,702.01 298.37,702.01 279.54,646.01 298.21,646.01 309.76,684.53 321.23,646.01 "/>
     <polygon class="fil14 str0" points="374.85,660.01 374.85,666.89 392.25,666.89 392.25,680.1 374.85,680.1 374.85,688.01 394.62,688.01 394.62,702.01 357.29,702.01 357.29,646.01 394.62,646.01 394.62,660.01 "/>
     <polygon class="fil14 str0" points="432.27,660.01 432.27,666.89 449.68,666.89 449.68,680.1 432.27,680.1 432.27,688.01 452.05,688.01 452.05,702.01 414.72,702.01 414.72,646.01 452.05,646.01 452.05,660.01 "/>
     <path class="fil14 str1" d="M178.3 608.1c2.28,-4.55 4.56,-6.83 9.12,-6.83 5.02,0 9.11,4.08 9.11,9.11 0,9.11 -9.11,18.22 -18.23,27.34 -9.11,-9.12 -18.22,-18.23 -18.22,-27.34 0,-5.03 4.08,-9.11 9.11,-9.11 4.56,0 6.84,2.28 9.11,6.83z"/>
    </g>
    <path class="fil23" d="M348.4 685.49c-0.12,0.32 -0.06,0.66 0.19,1.03 0.25,0.37 0.49,0.77 0.74,1.21 0.25,0.43 0.42,0.88 0.51,1.35 0.1,0.46 -0.01,0.91 -0.32,1.35 -3.6,6.7 -6.86,14.01 -9.77,21.92 -2.92,7.91 -5.87,16.92 -8.85,27.04 -0.18,0.68 -0.35,1.3 -0.51,1.86 -0.15,0.56 -0.32,1.11 -0.51,1.67 -0.19,0.56 -0.39,1.18 -0.6,1.86 -0.22,0.69 -0.45,1.49 -0.7,2.42 -0.37,0.81 -0.87,1.06 -1.49,0.75 -0.87,-0.37 -1.46,-1.29 -1.77,-2.75 -0.31,-1.46 -0.5,-3.05 -0.56,-4.79 -0.06,-1.74 -0.03,-3.4 0.09,-4.98 0.13,-1.58 0.25,-2.68 0.38,-3.3 0.56,-3.54 1.36,-7.34 2.42,-11.41 1.05,-4.06 2.32,-8.11 3.81,-12.14 1.49,-4.04 3.15,-7.93 4.98,-11.68 1.83,-3.76 3.83,-7.15 6.01,-10.2 0.31,-0.3 0.49,-0.52 0.55,-0.65 -0.43,-0.18 -1.49,-0.23 -3.16,-0.14 -1.68,0.1 -3.52,0.25 -5.54,0.47 -2.02,0.22 -4,0.5 -5.96,0.84 -1.95,0.34 -3.42,0.66 -4.42,0.97 0.25,0.31 0.78,0.81 1.59,1.49 0.8,0.69 1.56,1.37 2.28,2.05 0.71,0.68 1.14,1.29 1.3,1.82 0.15,0.52 -0.3,0.79 -1.35,0.79 -1.43,0 -2.81,-0.17 -4.14,-0.51 -1.34,-0.35 -2.59,-0.83 -3.77,-1.45 -0.62,-0.31 -1.32,-0.66 -2.1,-1.07 -0.77,-0.4 -1.5,-0.84 -2.18,-1.3 -0.69,-0.47 -1.27,-0.98 -1.77,-1.54 -0.5,-0.56 -0.75,-1.18 -0.75,-1.86 0,-1.74 0.84,-3.04 2.52,-3.91 3.6,-1.73 8.03,-3.07 13.31,-4 5.27,-0.93 10.87,-1.5 16.8,-1.72 5.92,-0.22 11.91,-0.11 17.96,0.32 6.05,0.44 11.62,1.12 16.71,2.05 0.31,0.06 0.79,0.22 1.44,0.47 0.65,0.25 1.35,0.56 2.09,0.93 0.75,0.37 1.46,0.76 2.15,1.16 0.68,0.4 1.19,0.81 1.53,1.21 0.34,0.41 0.43,0.76 0.28,1.07 -0.16,0.31 -0.67,0.53 -1.54,0.65 -0.86,0.13 -1.73,0.19 -2.6,0.19 -0.87,0 -1.74,0 -2.61,0 -5.46,0 -10.93,0 -16.43,0 -5.49,0 -10.9,0.15 -16.24,0.46zm21.04 38.26l1.11 -1.12 0.1 0 0 0.19c0.12,1.43 0,2.5 -0.37,3.21 -0.38,0.71 -0.56,1.1 -0.56,1.16 -0.62,0.93 -1.46,2.13 -2.52,3.59 -1.05,1.45 -2.15,2.94 -3.3,4.46 -1.15,1.52 -2.25,2.92 -3.3,4.19 -1.06,1.27 -1.9,2.19 -2.52,2.75 -0.74,0.87 -1.55,1.67 -2.42,2.42 -0.31,0.25 -0.73,0.46 -1.25,0.65 -0.53,0.19 -1.08,0.33 -1.63,0.42 -0.56,0.09 -1.1,0.11 -1.63,0.04 -0.53,-0.06 -0.95,-0.21 -1.26,-0.46 -1.05,-0.68 -1.88,-1.51 -2.46,-2.47 -0.59,-0.96 -0.89,-2 -0.89,-3.12 -0.18,-3.41 0.11,-6.9 0.89,-10.47 0.77,-3.56 1.69,-6.81 2.74,-9.72 0.31,-0.87 0.75,-1.77 1.3,-2.7 0.56,-0.56 1.21,-0.72 1.96,-0.47 0.74,0.25 1.41,0.76 2,1.54 0.59,0.77 1.02,1.72 1.3,2.84 0.28,1.11 0.24,2.23 -0.14,3.35 -0.31,1.05 -0.59,2.06 -0.83,3.02 -0.25,0.96 -0.53,1.97 -0.84,3.03 -0.13,0.49 -0.33,1.21 -0.61,2.14 -0.28,0.93 -0.57,1.91 -0.88,2.93 -0.31,1.02 -0.59,2 -0.84,2.93 -0.25,0.93 -0.4,1.65 -0.46,2.14 -0.13,0.93 0.12,1.18 0.74,0.75 0.62,-0.44 1.46,-1.18 2.51,-2.24 2.55,-2.6 4.97,-5.13 7.26,-7.58 2.3,-2.45 4.56,-4.92 6.8,-7.4zm-13.03 -11.17c-0.44,0.43 -0.75,0.43 -0.93,0 -0.81,-1.24 -1.34,-2.54 -1.59,-3.91 -0.24,-1.36 -0.12,-2.73 0.38,-4.09 0.24,-0.81 0.79,-1.48 1.62,-2.01 0.84,-0.52 1.6,-0.69 2.29,-0.51 0.37,0.13 0.77,0.33 1.2,0.61 0.44,0.28 0.72,0.6 0.84,0.97 0.44,1.68 0.2,3.29 -0.69,4.84 -0.91,1.56 -1.94,2.92 -3.12,4.1zm27.17 10.89c-2.6,2.92 -5.04,5.86 -7.3,8.84 -2.27,2.98 -4.49,5.96 -6.66,8.94 -0.49,0.43 -0.93,0.62 -1.3,0.56 -0.37,-0.07 -0.7,-0.25 -0.98,-0.56 -0.28,-0.31 -0.49,-0.7 -0.65,-1.17 -0.15,-0.46 -0.26,-0.88 -0.32,-1.25 -0.13,-1.12 -0.13,-2.35 0,-3.68 0.12,-1.33 0.24,-2.19 0.37,-2.56 0.25,-1.05 0.57,-2.26 0.98,-3.63 0.4,-1.36 0.82,-2.74 1.25,-4.14 0.44,-1.4 0.86,-2.76 1.26,-4.1 0.4,-1.33 0.79,-2.52 1.16,-3.58 0.25,-0.74 0.68,-1.19 1.31,-1.35 0.62,-0.15 1.22,-0.06 1.81,0.28 0.59,0.34 1.05,0.92 1.4,1.72 0.34,0.81 0.38,1.83 0.13,3.07 -0.24,1.24 -0.52,2.49 -0.83,3.73 -0.31,1.24 -0.59,2.45 -0.84,3.63 1.8,-1.99 3.58,-4.05 5.35,-6.19 1.77,-2.14 3.49,-4.27 5.17,-6.38 0.8,-0.56 1.64,-0.68 2.51,-0.37 0.87,0.31 1.52,0.99 1.96,2.05 0.49,1.11 0.71,2.26 0.65,3.44 -0.07,1.18 -0.22,2.3 -0.47,3.35 1.8,-1.86 3.91,-3.69 6.33,-5.49 2.42,-1.8 4.78,-3.17 7.07,-4.1 1.12,-0.43 2.15,-0.49 3.08,-0.18 0.93,0.31 1.73,0.88 2.42,1.72 0.68,0.84 1.19,1.86 1.53,3.07 0.34,1.21 0.48,2.47 0.42,3.77 -0.74,1.55 -1.46,3.06 -2.14,4.52 -0.68,1.45 -1.3,2.9 -1.86,4.32 -0.56,1.43 -1.01,2.86 -1.35,4.28 -0.34,1.43 -0.48,2.89 -0.42,4.38 0.43,0.31 1.16,0.12 2.19,-0.56 1.02,-0.68 2.18,-1.58 3.49,-2.7 1.3,-1.12 2.65,-2.29 4.05,-3.54 1.39,-1.24 2.62,-2.29 3.67,-3.16 3.04,-2.42 4.72,-3.44 5.03,-3.07 0.31,0.37 -0.56,1.77 -2.61,4.19 -1.98,2.35 -4.08,4.68 -6.28,6.98 -2.2,2.29 -4.55,4.28 -7.03,5.96 -0.8,0.55 -1.73,0.85 -2.79,0.88 -1.05,0.03 -2.09,-0.16 -3.12,-0.56 -1.02,-0.4 -1.91,-1.02 -2.65,-1.86 -0.75,-0.84 -1.18,-1.88 -1.3,-3.12 -0.19,-1.61 -0.08,-3.32 0.32,-5.12 0.41,-1.8 0.95,-3.58 1.63,-5.35 0.68,-1.77 1.46,-3.49 2.33,-5.17 0.87,-1.67 1.67,-3.22 2.42,-4.65 -0.19,-0.5 -0.89,-0.32 -2.1,0.51 -1.21,0.84 -2.68,2 -4.42,3.49 -1.74,1.49 -3.57,3.17 -5.49,5.03 -1.92,1.86 -3.69,3.57 -5.3,5.12 -0.69,0.62 -1.2,1.01 -1.54,1.16 -0.34,0.16 -0.64,0.23 -0.88,0.23 -0.62,0 -1.03,-0.51 -1.21,-1.53 -0.19,-1.03 -0.27,-2.2 -0.24,-3.54 0.03,-1.33 0.14,-2.64 0.33,-3.91 0.19,-1.27 0.34,-2.15 0.46,-2.65zm33.98 11.63c-0.13,-2.35 0.12,-4.8 0.74,-7.35 0.62,-2.54 1.55,-4.89 2.79,-7.03 1.25,-2.14 2.81,-3.89 4.7,-5.26 1.9,-1.36 4.11,-2.07 6.66,-2.14 1.3,0.31 2.31,0.97 3.02,1.96 0.72,0.99 0.92,2.2 0.61,3.63 -0.25,1.36 -0.61,2.53 -1.07,3.49 -0.47,0.96 -1.26,1.97 -2.37,3.02 -0.56,0.5 -1.34,1.15 -2.33,1.96 -0.99,0.81 -1.96,1.64 -2.89,2.51 -0.93,0.87 -1.73,1.76 -2.42,2.65 -0.68,0.9 -1.02,1.66 -1.02,2.28 -0.19,1.62 0.06,2.66 0.74,3.12 0.69,0.47 1.57,0.65 2.66,0.56 1.08,-0.09 2.18,-0.39 3.3,-0.88 1.12,-0.5 2.02,-0.93 2.7,-1.31 0.81,-0.55 1.71,-1.25 2.7,-2.09 0.99,-0.84 1.98,-1.72 2.98,-2.65 0.99,-0.93 1.95,-1.83 2.88,-2.7 0.93,-0.87 1.71,-1.58 2.33,-2.14 0.5,-0.5 0.95,-0.96 1.35,-1.4 0.4,-0.43 0.88,-0.81 1.44,-1.12 0.5,-0.12 0.89,-0.15 1.17,-0.09 0.27,0.06 0.23,0.53 -0.14,1.4 -0.5,1.05 -1.11,2.04 -1.82,2.98 -0.71,0.93 -1.47,1.86 -2.28,2.79 -1.12,1.24 -2.31,2.54 -3.58,3.91 -1.28,1.36 -2.61,2.62 -4.01,3.77 -1.39,1.14 -2.85,2.14 -4.37,2.98 -1.52,0.83 -3.09,1.38 -4.7,1.62 -2.85,0.19 -5.2,-0.4 -7.03,-1.76 -1.83,-1.37 -2.74,-3.6 -2.74,-6.71zm14.89 -17.49c-1.68,0.62 -2.99,1.42 -3.96,2.42 -0.96,0.99 -1.66,2.45 -2.09,4.37 1.36,-0.99 2.59,-2 3.68,-3.02 1.08,-1.03 1.87,-2.29 2.37,-3.77z"/>
   </g>
  </g>
 </g>
</svg>
