<?xml version="1.0" encoding="UTF-8"?>
<!DOCTYPE svg PUBLIC "-//W3C//DTD SVG 1.1//EN" "http://www.w3.org/Graphics/SVG/1.1/DTD/svg11.dtd">
<!-- Creator: CorelDRAW -->
<svg xmlns="http://www.w3.org/2000/svg" xml:space="preserve" width="598px" height="1309px" version="1.1" style="shape-rendering:geometricPrecision; text-rendering:geometricPrecision; image-rendering:optimizeQuality; fill-rule:evenodd; clip-rule:evenodd"
viewBox="0 0 596.32 1306.26"
 xmlns:xlink="http://www.w3.org/1999/xlink"
 xmlns:xodm="http://www.corel.com/coreldraw/odm/2003">
 <defs>
  <style type="text/css">
   <![CDATA[
    .str0 {stroke:#2923E8;stroke-width:3.34;stroke-miterlimit:22.9256}
    .str1 {stroke:#2923E8;stroke-width:3.34;stroke-miterlimit:22.9256}
    .fil21 {fill:none;fill-rule:nonzero}
    .fil7 {fill:#FBD68E}
    .fil12 {fill:#F8BB36}
    .fil6 {fill:#F4A318}
    .fil13 {fill:#F8FAFC}
    .fil14 {fill:#D5D3E9}
    .fil0 {fill:#BAB9DC}
    .fil11 {fill:#4B2E28}
    .fil2 {fill:#9077B3}
    .fil4 {fill:#FAD9DC;fill-rule:nonzero}
    .fil15 {fill:#F6E1D4;fill-rule:nonzero}
    .fil9 {fill:#EEDEBD;fill-rule:nonzero}
    .fil8 {fill:#E7A113;fill-rule:nonzero}
    .fil18 {fill:#E5C5A0;fill-rule:nonzero}
    .fil17 {fill:#DF901D;fill-rule:nonzero}
    .fil3 {fill:#DDD6E9;fill-rule:nonzero}
    .fil1 {fill:#D5D3E9;fill-rule:nonzero}
    .fil20 {fill:#CEBBCE;fill-rule:nonzero}
    .fil5 {fill:#A96441;fill-rule:nonzero}
    .fil16 {fill:#A25939;fill-rule:nonzero}
    .fil10 {fill:#4B2E28;fill-rule:nonzero}
    .fil19 {fill:#472A25;fill-rule:nonzero}
    .fil22 {fill:#3FAB18;fill-rule:nonzero}
   ]]>
  </style>
 </defs>
 <g id="Layer_x0020_1">
  <metadata id="CorelCorpID_0Corel-Layer"/>
  <g id="_2875353564672">
   <path class="fil0" d="M129.41 1266.22c0.33,4.19 0.75,8.59 3.3,12.07 3.34,4.52 9.46,6.37 15.16,7.83 104.13,26.76 214.56,22.67 321.98,11.63 3.99,-0.41 8.44,-1.07 10.83,-4.04 1.69,-2.08 1.95,-4.83 2.15,-7.42 1.46,-19.14 2.93,-21.62 4.39,-40.77 -91.05,8.83 -176.32,6.57 -266.08,6.42 -22.2,-0.04 -74.29,-13.89 -96.23,-15.24 0,0 2.52,4.75 4.5,29.52z"/>
   <path class="fil1" d="M51.75 400.1c-0.45,-4.65 -0.67,-9.21 -0.67,-13.68 0,-20.15 4.45,-38.48 12.54,-55.78 8.08,-17.28 19.87,-33.52 34.57,-49.16 5.73,-6.12 15.53,-13.69 25.73,-20.79 10.2,-7.12 20.83,-13.87 28.59,-18.88 15.26,-9.91 38.37,-18.53 62.26,-24.57 23.9,-6.08 48.66,-9.66 67.31,-10.03 5.57,-0.11 10.76,-0.16 15.65,-0.16 21.54,0 37.13,1.09 53.39,3.52 16.26,2.44 33.27,6.25 57.33,11.72 3.36,0.75 9.44,2.84 16.59,5.86 10.77,4.55 24.21,11.24 36.55,18.9 12.33,7.63 23.58,16.36 29.88,24.38 30.94,39.13 51.93,86.46 54.61,135.8 0.17,3.17 2.88,5.6 6.05,5.43 3.17,-0.17 5.6,-2.89 5.43,-6.05 -2.86,-52.22 -24.94,-101.66 -57.07,-142.31 -5.21,-6.58 -12.31,-12.77 -20.3,-18.61 -11.98,-8.74 -26.01,-16.59 -38.64,-22.68 -6.32,-3.04 -12.28,-5.63 -17.48,-7.66 -5.21,-2.03 -9.61,-3.48 -13.08,-4.28 -24.06,-5.46 -41.31,-9.34 -58.16,-11.87 -16.85,-2.53 -33.19,-3.66 -55.1,-3.66 -4.98,0 -10.25,0.06 -15.88,0.17 -19.86,0.41 -45.22,4.12 -69.91,10.38 -24.69,6.29 -48.61,15.05 -65.68,26.06 -7.69,4.98 -18.45,11.81 -28.93,19.11 -10.49,7.34 -20.66,15.06 -27.52,22.34 -15.32,16.3 -27.87,33.5 -36.61,52.17 -8.74,18.66 -13.63,38.79 -13.62,60.65 0,4.85 0.24,9.77 0.72,14.79 0.31,3.15 3.12,5.47 6.28,5.16 3.16,-0.3 5.47,-3.11 5.17,-6.27z"/>
   <polygon class="fil2" points="256.39,963.28 204.95,957.83 306.45,0 357.9,5.45 "/>
   <polygon class="fil3" points="356.77,16.08 300.6,55.22 294.18,115.82 350.35,76.69 "/>
   <polygon class="fil3" points="343.7,139.39 287.53,178.53 281.11,239.14 337.28,200 "/>
   <polygon class="fil3" points="330.19,266.91 274.02,306.05 267.6,366.66 323.76,327.52 "/>
   <polygon class="fil4" points="317.12,390.22 260.95,429.36 254.53,489.96 310.7,450.83 "/>
   <polygon class="fil4" points="303.24,521.19 247.07,560.32 240.65,620.93 296.82,581.79 "/>
   <polygon class="fil4" points="290.17,644.49 234.01,683.63 227.58,744.24 283.75,705.1 "/>
   <polygon class="fil4" points="276.66,772.01 220.49,811.15 214.06,871.76 270.23,832.62 "/>
   <polygon class="fil4" points="263.59,895.33 207.42,934.46 204.95,957.83 247.91,962.39 257.17,955.93 "/>
   <path class="fil5" d="M529 457.8c-151.44,-4.14 -309.36,-1.15 -460.8,-5.29 1.67,75.26 19.3,266.74 37.16,441.15 9.95,97.22 19.97,189.09 27.33,252.61 3.27,28.24 6.02,50.9 8.01,65.89 102.52,33.79 228.38,27.33 326.43,12.44 4.26,-19.08 7.42,-38.34 10.04,-57.68 3.25,-24.14 5.63,-48.42 7.96,-72.66 2.1,-21.77 10.27,-106.69 19,-210.14 12.45,-147.42 26.06,-332.49 24.87,-426.32z"/>
   <path class="fil6" d="M270.92 448.88c-13.98,10.15 -33.54,7.04 -43.7,-6.94 -10.15,-13.98 -7.04,-33.54 6.94,-43.69 13.98,-10.15 33.54,-7.05 43.69,6.93 10.15,13.98 7.05,33.54 -6.93,43.7z"/>
   <path class="fil7" d="M265.45 415.1c-3.38,2.45 -8.1,1.7 -10.55,-1.67 -2.45,-3.38 -1.7,-8.1 1.67,-10.55 3.38,-2.45 8.1,-1.7 10.55,1.68 2.45,3.37 1.7,8.09 -1.67,10.54z"/>
   <path class="fil6" d="M408.37 475.5c-13.97,10.15 -33.54,7.05 -43.69,-6.93 -10.15,-13.98 -7.05,-33.54 6.93,-43.69 13.98,-10.16 33.54,-7.05 43.7,6.93 10.15,13.98 7.04,33.54 -6.94,43.69z"/>
   <path class="fil7" d="M402.9 441.72c-3.37,2.45 -8.09,1.7 -10.54,-1.67 -2.45,-3.37 -1.7,-8.09 1.67,-10.54 3.37,-2.45 8.09,-1.7 10.55,1.67 2.45,3.38 1.69,8.09 -1.68,10.54z"/>
   <path class="fil6" d="M469.71 451.48c-13.98,10.15 -33.55,7.05 -43.7,-6.93 -10.15,-13.99 -7.05,-33.55 6.93,-43.7 13.98,-10.15 33.54,-7.05 43.7,6.93 10.15,13.98 7.05,33.54 -6.93,43.7z"/>
   <path class="fil7" d="M464.23 417.7c-3.37,2.45 -8.09,1.7 -10.54,-1.67 -2.45,-3.37 -1.7,-8.1 1.67,-10.55 3.37,-2.45 8.1,-1.7 10.55,1.67 2.45,3.38 1.7,8.1 -1.68,10.55z"/>
   <path class="fil6" d="M154.01 448.88c-13.97,10.15 -33.54,7.04 -43.69,-6.94 -10.15,-13.98 -7.05,-33.54 6.93,-43.69 13.98,-10.15 33.55,-7.05 43.7,6.93 10.14,13.98 7.04,33.54 -6.94,43.7z"/>
   <path class="fil7" d="M148.54 415.1c-3.37,2.45 -8.09,1.7 -10.54,-1.67 -2.45,-3.38 -1.7,-8.1 1.67,-10.55 3.37,-2.45 8.1,-1.7 10.54,1.68 2.45,3.37 1.71,8.09 -1.67,10.54z"/>
   <path class="fil6" d="M121.61 435.89c7.17,15.71 0.23,34.27 -15.5,41.43 -15.72,7.17 -34.27,0.23 -41.43,-15.49 -7.17,-15.72 -0.23,-34.28 15.49,-41.44 15.72,-7.17 34.28,-0.23 41.44,15.5z"/>
   <path class="fil7" d="M87.42 434.52c1.73,3.79 0.05,8.27 -3.74,10 -3.79,1.73 -8.27,0.05 -10,-3.74 -1.72,-3.79 -0.05,-8.27 3.74,-10 3.79,-1.73 8.27,-0.05 10,3.74z"/>
   <path class="fil8" d="M437.45 481.64c-22.39,-4.16 -98.26,-10.57 -118.51,-0.15 -7.83,4.02 -23.73,0.11 -39.58,-3.8 -15.47,-3.81 -30.89,-7.63 -38.71,-4.07 -40.47,18.43 -44.42,11.8 -88.71,7.9 -10.52,-0.93 -35.48,22.05 -45.74,24.58 -15.11,3.73 -22.4,55.83 -28.93,88.99 3.47,42.35 7.7,89.7 12.35,138.97 17.52,-15.7 38.28,-29.78 60.98,-26.31 12.23,1.87 23.91,8.84 36.17,7.13 15.58,-2.18 26.41,-17.61 41.74,-21.13 14.6,-3.35 30.09,5.54 37.78,18.38 7.7,12.85 8.78,28.7 6.83,43.55 -2.19,16.77 -7.85,34.28 -1.82,50.08 1.64,4.28 4.31,8.44 8.44,10.42 8.33,4 17.81,-2.29 24.42,-8.74 16.33,-15.94 29.42,-35.19 38.24,-56.23 8.23,-19.63 14.31,-42.7 32.8,-53.23 8.94,-5.1 19.63,-6.35 29.89,-5.55 13.31,1.02 26.36,5.36 37.64,12.5 9.09,5.75 17.93,13.6 28.69,13.7 10.64,0.11 19.65,-7.44 27.16,-14.96 6.06,-6.08 13.4,-17.83 21.41,-26.77 3.98,-59.74 7.07,-116.55 8.38,-163.21 -6.59,-3.86 -15.13,-6.24 -27.4,-8.12 -21.57,-3.3 -42.06,-19.94 -63.52,-23.93z"/>
   <path class="fil9" d="M471.42 718.63c-10.76,-0.1 -19.6,-7.95 -28.69,-13.7 -11.28,-7.14 -24.33,-11.48 -37.64,-12.5 -10.26,-0.8 -20.95,0.45 -29.89,5.55 -18.49,10.53 -24.57,33.6 -32.8,53.23 -8.82,21.04 -21.91,40.29 -38.24,56.23 -7.37,7.19 -18.32,14.19 -27.24,6.93 -2.2,-1.79 -3.75,-4.27 -4.9,-6.87 -7.18,-16.25 -1.17,-34.43 1.1,-51.82 1.95,-14.85 0.87,-30.7 -6.83,-43.55 -7.69,-12.84 -23.18,-21.73 -37.78,-18.38 -15.33,3.52 -26.16,18.95 -41.74,21.13 -12.26,1.71 -23.94,-5.26 -36.17,-7.13 -22.7,-3.47 -43.46,10.61 -60.98,26.31 4.94,52.3 10.32,106.73 15.74,159.6 2.96,28.87 5.91,57.24 8.81,84.56 3.47,2.18 6.88,4.49 10.73,5.84 14.81,5.19 30.47,-5.47 40.62,-17.44 10.14,-11.97 18.64,-26.45 32.88,-33.04 21.55,-10 46.31,1.92 67.58,12.51 21.28,10.58 48.33,19.59 67.31,5.29 20.3,-15.29 19.34,-49.31 40.68,-63.12 6.47,-4.18 14.22,-5.87 21.85,-7 4.23,-0.63 8.69,-1.09 12.7,0.41 8.58,3.19 11.67,13.52 13.61,22.47 3.78,17.38 7.56,34.77 11.33,52.16 1.82,8.35 12.71,10.66 17.68,3.7l0.11 -0.16c3.71,-5.19 11.2,-10.19 15.76,-5.72 2.02,1.98 2.38,5.06 2.62,7.87 0.58,6.83 1.16,13.66 1.74,20.48 9.43,-1.27 15.18,-10.56 21.75,-17.44 1.24,-1.31 2.71,-2.52 4.31,-3.58 2.12,-23.94 4.39,-49.98 6.7,-77.33 5.53,-65.41 11.28,-138.23 15.86,-207.22 -8.01,8.94 -15.35,20.69 -21.41,26.77 -7.51,7.52 -16.52,15.07 -27.16,14.96z"/>
   <path class="fil10" d="M459.75 1070.09c-36.39,-6.76 -73.28,7.11 -106.63,23.14 -33.36,16.03 -66.56,34.83 -103.35,38.87 -12.05,1.32 -24.58,0.95 -35.8,-3.62 -6.43,-2.62 -12.29,-6.55 -18.82,-8.92 -8.4,-3.04 -17.5,-3.36 -26.43,-3.64 -4.23,-0.14 -8.42,-0.03 -12.5,0.07 -10.13,0.25 -19.6,0.5 -27.32,-2.83 1.33,11.69 2.6,22.81 3.79,33.11 3.27,28.24 6.02,50.9 8.01,65.89 102.52,33.79 228.38,27.33 326.43,12.44 4.26,-19.08 7.42,-38.34 10.04,-57.68 3.25,-24.14 5.63,-48.42 7.96,-72.66 0.41,-4.32 1.08,-11.16 1.93,-20.1 -8.81,0.19 -18.48,-2.43 -27.31,-4.07z"/>
   <path class="fil8" d="M471.37 982.47c-0.58,-6.82 -1.16,-13.65 -1.74,-20.48 -0.24,-2.81 -0.6,-5.89 -2.62,-7.87 -4.56,-4.47 -12.05,0.53 -15.76,5.72 -3.7,5.2 -11.66,-1.74 -17.79,-3.54 -4.75,-21.86 -6.58,-30.3 -11.33,-52.16 -1.94,-8.95 -5.03,-19.28 -13.61,-22.47 -4.01,-1.5 -8.47,-1.04 -12.7,-0.41 -7.63,1.13 -15.38,2.82 -21.85,7 -21.34,13.81 -20.38,47.83 -40.68,63.12 -18.98,14.3 -46.03,5.29 -67.31,-5.29 -21.27,-10.59 -46.03,-22.51 -67.58,-12.51 -14.24,6.59 -22.74,21.07 -32.88,33.04 -10.15,11.97 -25.81,22.63 -40.62,17.44 -3.85,-1.35 -7.26,-3.66 -10.73,-5.84 5.27,49.77 10.32,95.94 14.73,134.94 7.72,3.33 17.19,3.08 27.32,2.83 4.08,-0.1 8.27,-0.21 12.5,-0.07 8.93,0.28 18.03,0.6 26.43,3.64 6.53,2.37 12.39,6.3 18.82,8.92 11.22,4.57 23.75,4.94 35.8,3.62 36.79,-4.04 69.99,-22.84 103.35,-38.87 33.35,-16.03 70.24,-29.9 106.63,-23.14 8.83,1.64 18.5,4.26 27.31,4.07 2.3,-24.22 6.04,-64.08 10.37,-112.71 -1.6,1.06 -3.07,2.27 -4.31,3.58 -6.57,6.88 -12.32,16.17 -21.75,17.44z"/>
   <path class="fil11" d="M385.03 443.42c-23.75,-3.7 -46.34,-13.33 -70.21,-16.24 -29.73,-3.63 -59.57,3.36 -89.29,7.03 -42.02,5.19 -84.56,3.77 -126.86,5.03 -6.61,0.2 -13.21,1.74 -18.92,5.06 -19.37,11.25 -14.22,31.52 -10.33,48.8 15.42,68.57 2.4,140.26 8.93,210.24 0.41,4.44 1.05,9.24 5.74,11.62 3.93,1.99 8.7,1.1 12.18,-1.58 6.05,-4.68 7.61,-12.44 8.69,-19.72 3.11,-21.1 4.24,-42.49 3.35,-63.79 -1.19,-28.69 -6,-57.76 7.81,-85.37 5.31,-10.64 14.26,-19.16 25.17,-23.87 2.45,-1.06 5.08,-1.88 7.72,-1.59 9.76,1.12 11.94,15.24 10.37,24.15 -0.61,3.48 -0.92,7.04 -0.27,10.52 3.5,18.75 20.73,14.8 27.54,5.28 4.79,-6.69 5.97,-15.21 7.79,-23.25 2.42,-10.71 6.99,-22.24 20.04,-23.99 8.19,-1.1 16.18,2.83 21.37,9.26 11.23,13.96 9.56,31.77 8.78,48.53 -1.41,29.97 0.65,60.1 6.13,89.6 0.8,4.26 2.38,8.42 5.05,11.83 12.46,15.85 32.13,2.29 36.36,-13.16 3.59,-13.1 0.51,-27.03 1.51,-40.58 0.15,-2.14 0.53,-4.5 2.18,-5.87 3.37,-2.78 8.18,0.72 11.06,3.99 6.78,7.7 13.55,15.39 20.32,23.08 12.86,-11.18 17.67,-29.08 18.97,-46.07 1.3,-17 -0.23,-34.25 2.98,-50.99 3.55,-18.59 14.55,-37.47 33.78,-41.68 3.9,-0.84 8.05,-0.64 11.72,0.92 4.76,2.03 7.68,5.45 9.38,9.58 6.36,15.52 27.18,19.1 39.2,7.4 1.84,-1.79 3.61,-3.61 5.31,-5.41 1.18,19.08 2.36,38.15 3.54,57.23 0.27,4.26 0.63,8.84 5.48,11.21 4.16,2.04 9.14,0.97 12.74,-1.96 7.67,-6.24 8.73,-16.44 13.94,-24.22 8.53,4.61 14.91,13.09 16.72,22.65 0.69,3.63 2.57,7.03 5.55,9.2 4.78,3.48 8.63,1.08 11.47,-1.78 9.77,-9.82 10.94,-25.03 11.52,-38.87 1.16,-27.01 17.3,-86.93 -15.83,-99.86 -21.99,-8.58 -47.97,-6.05 -73.76,-3.52 -18.97,1.87 -37.84,3.73 -54.92,1.16z"/>
   <path class="fil12" d="M322.92 444.04c0,17.27 -14.01,31.28 -31.28,31.28 -17.28,0 -31.29,-14.01 -31.29,-31.28 0,-17.28 14.01,-31.29 31.29,-31.29 17.27,0 31.28,14.01 31.28,31.29z"/>
   <path class="fil7" d="M292.37 428.62c0,4.16 -3.38,7.54 -7.55,7.54 -4.16,0 -7.54,-3.38 -7.54,-7.54 0,-4.17 3.38,-7.55 7.54,-7.55 4.17,0 7.55,3.38 7.55,7.55z"/>
   <path class="fil12" d="M389.97 415.06c0,17.28 -14,31.28 -31.28,31.28 -17.28,0 -31.28,-14 -31.28,-31.28 0,-17.28 14,-31.29 31.28,-31.29 17.28,0 31.28,14.01 31.28,31.29z"/>
   <path class="fil7" d="M359.42 399.64c0,4.17 -3.37,7.55 -7.54,7.55 -4.17,0 -7.55,-3.38 -7.55,-7.55 0,-4.17 3.38,-7.55 7.55,-7.55 4.17,0 7.54,3.38 7.54,7.55z"/>
   <path class="fil12" d="M407.81 477.1c-10.85,-13.45 -8.75,-33.14 4.7,-44 13.44,-10.84 33.14,-8.74 43.99,4.7 10.85,13.45 8.75,33.14 -4.7,43.99 -13.44,10.85 -33.14,8.75 -43.99,-4.69z"/>
   <path class="fil7" d="M441.26 469.91c-2.62,-3.25 -2.11,-7.99 1.13,-10.61 3.25,-2.62 8,-2.12 10.62,1.13 2.62,3.24 2.11,8 -1.13,10.61 -3.25,2.62 -8,2.11 -10.62,-1.13z"/>
   <path class="fil12" d="M512.36 472.15c-15.53,7.58 -34.26,1.13 -41.84,-14.39 -7.57,-15.53 -1.13,-34.26 14.4,-41.84 15.52,-7.58 34.25,-1.14 41.83,14.39 7.58,15.53 1.14,34.26 -14.39,41.84z"/>
   <path class="fil7" d="M512.82 437.93c-3.75,1.83 -8.27,0.28 -10.1,-3.47 -1.83,-3.75 -0.27,-8.27 3.47,-10.1 3.75,-1.82 8.27,-0.27 10.1,3.48 1.82,3.74 0.27,8.26 -3.47,10.09z"/>
   <path class="fil12" d="M255.64 477.16c0,14.54 -11.78,26.33 -26.33,26.33 -14.54,0 -26.33,-11.79 -26.33,-26.33 0,-14.55 11.79,-26.33 26.33,-26.33 14.55,0 26.33,11.78 26.33,26.33z"/>
   <path class="fil7" d="M229.93 464.18c0,3.51 -2.84,6.35 -6.35,6.35 -3.5,0 -6.35,-2.84 -6.35,-6.35 0,-3.51 2.85,-6.35 6.35,-6.35 3.51,0 6.35,2.84 6.35,6.35z"/>
   <path class="fil12" d="M194.31 444.07c-2.2,16.13 -17.06,27.43 -33.18,25.23 -16.13,-2.21 -27.42,-17.06 -25.22,-33.19 2.2,-16.13 17.05,-27.42 33.18,-25.22 16.13,2.2 27.42,17.05 25.22,33.18z"/>
   <path class="fil7" d="M167.76 425.79c-0.53,3.89 -4.12,6.62 -8.01,6.09 -3.89,-0.53 -6.61,-4.12 -6.08,-8.01 0.53,-3.89 4.11,-6.62 8,-6.08 3.89,0.52 6.62,4.11 6.09,8z"/>
   <path class="fil1" d="M119.66 1230.85l-1.79 5.82c62.55,19.29 132.3,26.29 200.68,26.3 60.32,0 119.58,-5.47 171.87,-12.9l4.11 -0.58 0.96 -4.03c10.97,-46.01 15.76,-92.72 20.53,-139.03 1.39,-13.53 5.22,-44.67 10.16,-86.34 7.41,-62.53 17.34,-148.86 25.43,-235.88 8.08,-87.02 14.32,-174.67 14.32,-240.08 0,-4.29 -0.02,-8.49 -0.08,-12.58l-0.08 -5.86 -5.85 -0.15c-41.44,-1.06 -82.92,-1.42 -124.41,-1.42 -89.15,0 -178.37,1.67 -267.37,1.67 -41.4,0 -82.76,-0.36 -124.05,-1.42l-6.39 -0.16 0.15 6.39c0.86,36.32 5.01,90.93 10.99,154.37 17.97,190.3 52.51,459.78 64.8,546.73l0.54 3.83 3.69 1.14 1.79 -5.82 6.03 -0.85c-8.17,-57.8 -26.25,-196.87 -42.7,-339.42 -8.23,-71.28 -16.05,-143.44 -22.03,-206.75 -5.97,-63.3 -10.1,-117.79 -10.94,-153.52l-6.08 0.15 -0.16 6.08c41.42,1.06 82.89,1.42 124.36,1.42 89.16,0 178.37,-1.67 267.37,-1.67 41.42,0 82.8,0.36 124.1,1.42l0.15 -6.08 -6.08 0.08c0.06,4.04 0.08,8.18 0.08,12.42 0,86.24 -11.04,212.94 -22.8,324.74 -5.88,55.91 -11.94,108.13 -16.87,149.78 -4.94,41.68 -8.76,72.72 -10.18,86.53 -4.76,46.31 -9.53,92.49 -20.27,137.45l5.93 1.41 -0.86 -6.02c-51.85,7.37 -110.57,12.78 -170.16,12.78 -67.55,0 -136.19,-6.97 -197.09,-25.77l-1.8 5.82 6.03 -0.85 -6.03 0.85z"/>
   <path class="fil1" d="M592.76 531.02c1.83,-12.83 3.56,-32.89 3.56,-51.8 -0.02,-13.31 -0.81,-25.93 -3.28,-35.48 -1.47,-5.63 -3.4,-11.58 -6.49,-17.2 -3.06,-5.6 -7.36,-10.91 -13.39,-14.85 -5.99,-3.91 -12.71,-5.92 -19.45,-7.06 -6.74,-1.14 -13.55,-1.42 -19.95,-1.64 -127.52,-4.29 -255.15,-6.44 -382.77,-6.44 -32.79,0 -65.59,0.14 -98.38,0.43 -5.67,0.08 -12.15,0.04 -18.64,2.4 -6.59,2.44 -11.47,6.86 -15.25,11.23 -7.17,8.27 -11.76,17.77 -14.57,27.56 -2.81,9.79 -3.88,19.9 -4.06,29.67 -0.07,3.21 -0.09,6.92 -0.09,10.88 0,19.72 0.61,45.83 0.61,45.85 0.07,3.14 2.65,5.65 5.79,5.62 44.44,-0.37 88.89,-0.56 133.34,-0.56 149.08,0 298.16,2.11 447.17,6.33 3.17,0.09 5.82,-2.42 5.91,-5.59 0.09,-3.18 -2.41,-5.82 -5.59,-5.91 -149.11,-4.22 -298.3,-6.33 -447.49,-6.33 -44.48,0 -88.96,0.19 -133.43,0.57l0.04 5.74 5.75 -0.13c0,-0.01 -0.15,-6.51 -0.3,-15.47 -0.15,-8.96 -0.3,-20.37 -0.3,-30.12 0,-3.92 0.03,-7.57 0.08,-10.67 0.17,-9.07 1.18,-18.2 3.62,-26.7 2.45,-8.52 6.31,-16.4 12.21,-23.22 3.09,-3.57 6.56,-6.51 10.53,-7.96 3.93,-1.48 9.13,-1.67 14.77,-1.69 32.76,-0.29 65.52,-0.43 98.28,-0.43 127.49,0 254.99,2.14 382.38,6.43 6.32,0.22 12.66,0.51 18.43,1.49 5.78,0.97 10.92,2.63 15.07,5.35 4.16,2.73 7.2,6.38 9.6,10.76 2.41,4.36 4.11,9.42 5.44,14.56 2.04,7.72 2.93,19.82 2.91,32.58 0.01,18.2 -1.69,37.99 -3.44,50.17 -0.45,3.15 1.73,6.06 4.87,6.51 3.15,0.45 6.06,-1.73 6.51,-4.88z"/>
   <path class="fil13" d="M142.02 794c0.29,4.47 0.53,9.18 -1.48,13.18 -4.74,9.44 -18.04,9.31 -28.5,7.79 2.09,0.31 -9.68,-116.52 -11.19,-129.78 -2.95,-25.76 -25.97,-135.74 25.21,-130.29 7.21,38.2 5.73,80.3 8.24,119.24 2.57,39.96 5.15,79.91 7.72,119.86z"/>
   <path class="fil13" d="M143.32 823.55c0.22,7.36 0.22,14.73 -0.01,22.1 -7.79,2 -15.88,2.79 -23.91,2.35 -1.98,-0.12 -3.98,-18.57 -1.28,-20.94 4.12,-3.61 19.46,-2.07 25.2,-3.51z"/>
   <path class="fil14" d="M474.06 1179.87c3.56,-0.61 7.11,-1.23 10.67,-1.84 2.94,-61.05 8.37,-121.98 16.24,-182.59 -5.7,-0.19 -17.1,-2.91 -22.35,0.04 -6.33,3.55 -3.74,11.39 -3.44,17.76 0.87,18.61 1.39,37.23 1.6,55.86 0.1,9.92 2.42,109.89 -2.72,110.77z"/>
   <path class="fil1" d="M335.46 216.99l-1.22 11.59c8.79,2.54 13.14,7.25 12.94,9.64 -0.13,1.68 -4.41,5.02 -16.64,4.73l-45.66 -1.16c-12.16,-0.31 -24.73,-0.63 -36.17,-4.25 -2.15,-0.68 -4.78,-1.66 -6.14,-3.24 -0.65,-0.76 -0.79,-1.73 -0.72,-2.08 5.52,-5.45 21.47,-7.84 40.63,-8l1.23 -11.58c-20.65,0.04 -41.94,2.65 -50.63,12.12l-0.32 0.38c-3.62,4.68 -3.17,11.69 1.08,16.64 3.25,3.79 7.79,5.58 11.4,6.72 12.99,4.11 26.39,4.45 39.35,4.79l45.66 1.16c0.64,0.01 1.26,0.02 1.88,0.02 23.41,0 26.22,-11.67 26.51,-15.32 0.79,-9.68 -8.9,-18.64 -23.18,-22.16z"/>
   <path class="fil14" d="M198.48 270.37c-41.12,12.89 -77.22,41.14 -99.62,77.95 -0.61,-4.66 -8.17,-4.06 -11.04,-7.78 -2.31,-2.99 -0.62,-7.28 1.12,-10.62 4.16,-8 8.31,-15.99 12.47,-23.99 4.69,-9.03 9.42,-18.12 15.74,-26.1 11.46,-14.49 28.02,-24.7 45.74,-29.63 6.63,-1.85 14.8,-4.69 21.22,-1.2 3.5,1.9 12.82,21.85 14.37,21.37z"/>
   <path class="fil13" d="M499.1 492.72c4.09,0.04 9.73,4.17 6.4,6.52 -78.4,3.88 -163.42,11.95 -241.43,2.29 -4.39,-18.24 91.58,-10.13 106.76,-10 42.76,0.4 85.52,0.68 128.27,1.19z"/>
   <path class="fil11" d="M224.72 1003.65c-10.66,0 -28.66,12.31 -40.08,15.33 -0.32,8.1 1.27,16.27 4.6,23.65 13.3,-6.53 25.32,-15.43 39.42,-18.54 2.98,-0.66 4.58,-3.88 3.18,-6.59l-7.12 -13.85z"/>
   <path class="fil11" d="M176.95 1079.3c-7.43,0 -19.98,8.58 -27.95,10.68 -0.22,5.65 0.89,11.35 3.21,16.5 9.28,-4.55 17.66,-10.76 27.49,-12.93 2.08,-0.46 3.19,-2.71 2.22,-4.59l-4.97 -9.66z"/>
   <path class="fil11" d="M304.57 1040.4c-7.43,0 -19.98,8.58 -27.95,10.69 -0.22,5.64 0.88,11.34 3.21,16.49 9.27,-4.56 17.65,-10.77 27.49,-12.93 2.07,-0.46 3.19,-2.7 2.21,-4.59l-4.96 -9.66z"/>
   <path class="fil11" d="M330.03 1091.61c-7.43,0 -19.99,8.57 -27.95,10.69 -0.23,5.64 0.87,11.34 3.2,16.49 9.27,-4.55 17.66,-10.76 27.49,-12.93 2.08,-0.46 3.19,-2.7 2.22,-4.59l-4.96 -9.66z"/>
   <path class="fil11" d="M414.38 1031.8c-6.56,-4.62 -22.58,-5.42 -30.83,-8.65 -3.45,4.47 -5.76,9.81 -6.66,15.47 10.8,2.05 21.78,2.19 31.7,6.54 2.1,0.92 4.38,-0.23 4.61,-2.37l1.18 -10.99z"/>
   <path class="fil11" d="M376.89 988.26c-4.25,-2.99 -14.6,-3.5 -19.93,-5.59 -2.23,2.89 -3.72,6.34 -4.31,10 6.98,1.32 14.08,1.42 20.49,4.22 1.35,0.6 2.83,-0.14 2.98,-1.53l0.77 -7.1z"/>
   <path class="fil11" d="M448.71 1011.55c-5.12,0.82 -12.9,7.67 -18.17,9.89 0.41,3.63 1.75,7.14 3.88,10.17 5.92,-3.92 11.07,-8.8 17.63,-11.26 1.39,-0.52 1.93,-2.08 1.07,-3.18l-4.41 -5.62z"/>
   <path class="fil11" d="M463.78 1047.52c-5.12,0.81 -12.9,7.67 -18.17,9.88 0.41,3.63 1.76,7.15 3.88,10.18 5.93,-3.92 11.07,-8.8 17.63,-11.27 1.39,-0.52 1.93,-2.07 1.07,-3.17l-4.41 -5.62z"/>
   <path class="fil11" d="M361.79 1065.71c-3.72,0 -10,4.28 -13.98,5.34 -0.11,2.82 0.44,5.67 1.61,8.25 4.63,-2.28 8.83,-5.38 13.74,-6.47 1.04,-0.23 1.6,-1.35 1.11,-2.3l-2.48 -4.82z"/>
   <path class="fil11" d="M302.05 1000.63c-2.09,-3.07 -9.16,-5.86 -12.27,-8.57 -2.4,1.49 -4.45,3.55 -5.93,5.96 4.49,2.56 9.41,4.29 13.07,7.75 0.77,0.73 2.02,0.56 2.52,-0.37l2.61 -4.77z"/>
   <path class="fil11" d="M240.3 1067.58c11.58,5.32 23.79,9.29 36.29,11.8 0.11,6.69 -1.02,13.41 -3.32,19.69 -8.41,-5.34 -18.29,-8.34 -28.25,-8.58 -1.28,-0.03 -2.74,-0.09 -3.6,-1.04 -0.65,-0.72 -0.77,-1.76 -0.84,-2.72 -0.35,-5.27 -1.66,-14.05 -0.28,-19.15z"/>
   <path class="fil15" d="M331.73 1236.56c47.53,-0.88 93.94,-5.67 135.4,-11.96 3.32,-14.89 5.98,-29.89 8.23,-44.96 0.24,-0.03 0.48,-0.08 0.71,-0.12 -2.25,15.11 -4.91,30.15 -8.24,45.08 -41.66,6.32 -88.33,11.12 -136.1,11.96zm163.39 -241.69c-0.23,-0.03 -0.46,-0.06 -0.69,-0.09 0.96,-10.54 1.96,-21.69 3,-33.33 0.6,-6.79 1.21,-13.73 1.84,-20.83 0.57,-6.58 1.16,-13.29 1.75,-20.12 1.02,-11.81 2.07,-23.96 3.11,-36.38 2.73,-32.22 5.5,-66.24 8.17,-100.7 5.66,-73.26 10.82,-148.57 13.88,-213 0.3,-0.97 0.58,-1.94 0.83,-2.93 -4.45,95.22 -13.58,214.88 -22.18,316.63 -3.43,40.69 -6.78,78.51 -9.71,110.75z"/>
   <path class="fil16" d="M353.38 1093.1c0.13,-0.06 0.27,-0.13 0.4,-0.19 -0.13,0.06 -0.27,0.13 -0.4,0.19zm123.46 -19.71c-5.69,-0.86 -11.47,-2.25 -16.93,-3.27 5.46,1.02 11.24,2.41 16.93,3.27l0 0zm-17.74 -3.42c-6.26,-1.12 -12.54,-1.63 -18.81,-1.63 6.27,0 12.55,0.51 18.81,1.63zm-18.86 -1.63c0.02,0 0.03,0 0.04,0l0 0c-0.01,0 -0.02,0 -0.04,0zm31.13 -85.87c-0.58,-6.82 -1.16,-13.65 -1.74,-20.48 -0.24,-2.81 -0.6,-5.89 -2.62,-7.87 -0.01,-0.01 -0.02,-0.03 -0.03,-0.04 0.01,0.01 0.02,0.03 0.03,0.04 2.02,1.98 2.38,5.06 2.62,7.87 0.58,6.83 1.16,13.66 1.74,20.48 9.43,-1.27 15.18,-10.56 21.75,-17.44 1.24,-1.31 2.71,-2.52 4.31,-3.58l0 0c-1.6,1.06 -3.07,2.27 -4.31,3.58 -6.57,6.88 -12.32,16.17 -21.75,17.44zm-20.12 -22.63l0 0c0.01,-0.01 0.02,-0.03 0.04,-0.04 -0.02,0.01 -0.03,0.03 -0.04,0.04l0 0zm15.64 -5.84c-0.02,-0.02 -0.04,-0.03 -0.05,-0.05 0.01,0.02 0.03,0.03 0.05,0.05zm-0.05 -0.05c-1.2,-1.09 -2.59,-1.56 -4.06,-1.56 1.47,0 2.86,0.47 4.06,1.56zm-4.14 -1.56c0.02,0 0.05,0 0.07,0l0 0c-0.02,0 -0.05,0 -0.07,0zm-127.1 -2.9l0 0c17.95,-16.05 17.87,-47.97 38.37,-61.23 6.47,-4.18 14.22,-5.87 21.85,-7 0.06,-0.01 0.12,-0.02 0.18,-0.03 -0.06,0.01 -0.12,0.02 -0.18,0.03 -7.63,1.13 -15.38,2.82 -21.85,7 -20.5,13.26 -20.42,45.18 -38.37,61.23zm163.67 -8.87c0.57,-6.58 1.16,-13.29 1.75,-20.12 -0.59,6.83 -1.18,13.54 -1.75,20.12zm-77.14 -36.48l0 0c-1.94,-8.95 -5.03,-19.28 -13.61,-22.47 -0.06,-0.02 -0.12,-0.04 -0.17,-0.07 0.05,0.03 0.11,0.05 0.17,0.07 8.58,3.19 11.67,13.52 13.61,22.47l0 0zm-14.12 -22.65c-1.83,-0.6 -3.75,-0.82 -5.69,-0.82 1.94,0 3.86,0.22 5.69,0.82zm-11.97 -0.26c0.05,-0.01 0.1,-0.02 0.16,-0.03 -0.06,0.01 -0.11,0.02 -0.16,0.03zm0.22 -0.04c0.03,0 0.06,0 0.09,-0.01 -0.03,0.01 -0.06,0.01 -0.09,0.01zm6.04 -0.52c0.01,0 0.01,0 0.02,0l0 0c-0.01,0 -0.01,0 -0.02,0zm110 -97.25c2.74,-35.52 5.37,-71.51 7.69,-106.52 -8.01,8.94 -15.35,20.69 -21.41,26.77 -0.04,0.04 -0.09,0.08 -0.13,0.12 0.04,-0.04 0.09,-0.08 0.13,-0.12 6.06,-6.08 13.4,-17.83 21.41,-26.77 2.48,-37.2 4.61,-73.28 6.18,-106.47 0.01,-0.01 0.01,-0.01 0.01,-0.01 -3.06,64.43 -8.22,139.74 -13.88,213zm-40.66 -64.78l0 0c0.02,0 0.02,0 0.04,0 -0.02,0 -0.02,0 -0.04,0zm-0.1 0l-0.01 0c0.01,0 0.01,0 0.01,0z"/>
   <path class="fil17" d="M471.64 718.64c-0.03,0 -0.07,0 -0.1,0 0,0 0,0 -0.01,0 -0.03,0 -0.07,0 -0.11,-0.01l0 0c-10.76,-0.1 -19.6,-7.95 -28.69,-13.7 -1.69,-1.07 -3.41,-2.08 -5.17,-3.01 14.11,-34.24 27.93,-68.61 40.97,-103.26 2.42,-6.42 7.62,-20.5 14.38,-37.47 4.08,4.43 6.96,9.96 8.09,15.9 0.69,3.63 2.57,7.03 5.55,9.2 1.68,1.23 3.26,1.73 4.71,1.73 2.66,0 4.92,-1.66 6.76,-3.51 3.94,-3.96 6.48,-8.8 8.15,-14.08 -1.57,33.19 -3.7,69.27 -6.18,106.47 -8.01,8.94 -15.35,20.69 -21.41,26.77 -0.04,0.04 -0.09,0.08 -0.13,0.12 -7.42,7.43 -16.32,14.83 -26.77,14.85 -0.02,0 -0.02,0 -0.04,0z"/>
   <path class="fil18" d="M471.37 982.47c-0.58,-6.82 -1.16,-13.65 -1.74,-20.48 -0.24,-2.81 -0.6,-5.89 -2.62,-7.87 -0.01,-0.01 -0.02,-0.03 -0.03,-0.04 -0.03,-0.03 -0.06,-0.05 -0.09,-0.08 -0.02,-0.02 -0.04,-0.03 -0.05,-0.05l0 0c-1.2,-1.09 -2.59,-1.56 -4.06,-1.56 0,0 0,0 -0.01,0l0 0c-0.02,0 -0.05,0 -0.07,0 -4.08,0.04 -8.72,3.66 -11.41,7.41 -0.02,0.01 -0.03,0.03 -0.04,0.04l0 0c-0.98,1.38 -2.25,1.9 -3.7,1.9 -4.07,0 -9.58,-4.11 -14.09,-5.44l0 0c-4.75,-21.86 -6.58,-30.3 -11.33,-52.16l0 0c-1.94,-8.95 -5.03,-19.28 -13.61,-22.47 -0.06,-0.02 -0.12,-0.04 -0.17,-0.07 -0.11,-0.03 -0.23,-0.07 -0.34,-0.11 -1.83,-0.6 -3.75,-0.82 -5.69,-0.82l0 0c-0.01,0 -0.01,0 -0.02,0 -1.98,0 -3.99,0.23 -5.95,0.51 -0.03,0.01 -0.06,0.01 -0.09,0.01 -0.02,0.01 -0.04,0.01 -0.06,0.01 -0.06,0.01 -0.11,0.02 -0.16,0.03 -0.02,0 -0.03,0 -0.04,0 -0.06,0.01 -0.12,0.02 -0.18,0.03 -7.63,1.13 -15.38,2.82 -21.85,7 -20.5,13.26 -20.42,45.18 -38.37,61.23 0.45,-1.19 0.91,-2.39 1.37,-3.58 33.01,-79.22 65.36,-158.78 98.16,-238.11 0.81,-1.96 1.62,-3.92 2.43,-5.88 1.76,0.93 3.48,1.94 5.17,3.01 9.09,5.75 17.93,13.6 28.69,13.7l0 0c0.04,0.01 0.08,0.01 0.11,0.01l0.01 0c0.03,0 0.07,0 0.1,0l0 0c0.02,0 0.02,0 0.04,0 10.45,-0.02 19.35,-7.42 26.77,-14.85 0.04,-0.04 0.09,-0.08 0.13,-0.12 6.06,-6.08 13.4,-17.83 21.41,-26.77 -2.32,35.01 -4.95,71 -7.69,106.52 -2.67,34.46 -5.44,68.48 -8.17,100.7 -1.04,12.42 -2.09,24.57 -3.11,36.38 -0.59,6.83 -1.18,13.54 -1.75,20.12 -0.63,7.1 -1.24,14.04 -1.84,20.83l0 0c-1.6,1.06 -3.07,2.27 -4.31,3.58 -6.57,6.88 -12.32,16.17 -21.75,17.44z"/>
   <path class="fil19" d="M317.01 1236.69c-37.63,0 -75.69,-2.6 -112.29,-8.95 22.49,-30.59 41.19,-63.47 57.7,-97.61 14.4,-2.89 28.29,-7.81 41.91,-13.65 0.29,0.78 0.61,1.55 0.95,2.31 9.27,-4.55 17.66,-10.76 27.49,-12.93 1.82,-0.4 2.9,-2.18 2.49,-3.88 5.96,-2.94 11.91,-5.89 17.86,-8.75 0.09,-0.04 0.17,-0.09 0.26,-0.13 0.13,-0.06 0.27,-0.13 0.4,-0.19 27.22,-13.04 56.77,-24.56 86.46,-24.57 0.02,0 0.03,0 0.04,0 0,0 0.01,0 0.01,0 6.27,0 12.55,0.51 18.81,1.63 0.22,0.04 0.43,0.08 0.65,0.12 0.05,0.01 0.11,0.02 0.16,0.03 5.46,1.02 11.24,2.41 16.93,3.27 0.38,21.7 1.93,105.67 -2.78,106.48 0.44,-0.08 0.87,-0.15 1.3,-0.23 -2.25,15.07 -4.91,30.07 -8.23,44.96 -41.46,6.29 -87.87,11.08 -135.4,11.96 -4.9,0.08 -9.8,0.13 -14.72,0.13z"/>
   <path class="fil17" d="M262.42 1130.13c11.02,-22.78 21.05,-46.12 30.58,-69.72 4.61,-2.47 9.27,-4.65 14.32,-5.76 2.07,-0.46 3.19,-2.7 2.21,-4.59l-4.96 -9.66c-1.17,0 -2.46,0.21 -3.84,0.57 11.91,-30.41 23.2,-61.12 34.87,-91.48 17.95,-16.05 17.87,-47.97 38.37,-61.23 6.47,-4.18 14.22,-5.87 21.85,-7 0.06,-0.01 0.12,-0.02 0.18,-0.03 0.01,0 0.02,0 0.04,0 0.05,-0.01 0.1,-0.02 0.16,-0.03 0.02,0 0.04,0 0.06,-0.01 0.03,0 0.06,0 0.09,-0.01 1.96,-0.28 3.97,-0.51 5.95,-0.51 0.01,0 0.01,0 0.02,0l0 0c1.94,0 3.86,0.22 5.69,0.82 0.11,0.04 0.23,0.08 0.34,0.11 0.05,0.03 0.11,0.05 0.17,0.07 8.58,3.19 11.67,13.52 13.61,22.47l0 0c4.75,21.86 6.58,30.3 11.33,52.16l0 0c4.51,1.33 10.02,5.44 14.09,5.44 1.45,0 2.72,-0.52 3.7,-1.9l0 0c0.01,-0.01 0.02,-0.03 0.04,-0.04 2.69,-3.75 7.33,-7.37 11.41,-7.41 0.02,0 0.05,0 0.07,0l0 0c0.01,0 0.01,0 0.01,0 1.47,0 2.86,0.47 4.06,1.56l0 0c0.01,0.02 0.03,0.03 0.05,0.05 0.03,0.03 0.06,0.05 0.09,0.08 0.01,0.01 0.02,0.03 0.03,0.04 2.02,1.98 2.38,5.06 2.62,7.87 0.58,6.83 1.16,13.66 1.74,20.48 9.43,-1.27 15.18,-10.56 21.75,-17.44 1.24,-1.31 2.71,-2.52 4.31,-3.58l0 0c-1.04,11.64 -2.04,22.79 -3,33.33 -2.79,-0.33 -5.82,-0.67 -8.62,-0.67 -2.8,0 -5.36,0.35 -7.19,1.37 -6.33,3.55 -3.74,11.39 -3.44,17.76 0.87,18.61 1.39,37.23 1.6,55.86 0,0.83 0.03,2.3 0.06,4.29 -5.69,-0.86 -11.47,-2.25 -16.93,-3.27 -0.05,-0.01 -0.11,-0.02 -0.16,-0.03 -0.22,-0.04 -0.43,-0.08 -0.65,-0.12 -6.26,-1.12 -12.54,-1.63 -18.81,-1.63 0,0 -0.01,0 -0.01,0l0 0c-0.01,0 -0.02,0 -0.04,0 -29.69,0.01 -59.24,11.53 -86.46,24.57 -0.13,0.06 -0.27,0.13 -0.4,0.19 -0.09,0.04 -0.17,0.09 -0.26,0.13 -5.95,2.86 -11.9,5.81 -17.86,8.75 -0.06,-0.24 -0.15,-0.48 -0.27,-0.71l-4.96 -9.66c-7.43,0 -19.99,8.57 -27.95,10.69 -0.2,4.81 0.58,9.66 2.25,14.18 -13.62,5.84 -27.51,10.76 -41.91,13.65zm99.37 -64.42c-3.72,0 -10,4.28 -13.98,5.34 -0.11,2.82 0.44,5.67 1.61,8.25 4.63,-2.28 8.83,-5.38 13.74,-6.47 1.04,-0.23 1.6,-1.35 1.11,-2.3l-2.48 -4.82zm101.99 -18.19c-5.12,0.81 -12.9,7.67 -18.17,9.88 0.41,3.63 1.76,7.15 3.88,10.18 5.93,-3.92 11.07,-8.8 17.63,-11.27 1.39,-0.52 1.93,-2.07 1.07,-3.17l-4.41 -5.62zm-80.23 -24.37c-3.45,4.47 -5.76,9.81 -6.66,15.47 10.8,2.05 21.78,2.19 31.7,6.54 0.5,0.21 1.01,0.32 1.5,0.32 1.57,0 2.94,-1.05 3.11,-2.69l1.18 -10.99c-6.56,-4.62 -22.58,-5.42 -30.83,-8.65zm65.16 -11.6c-5.12,0.82 -12.9,7.67 -18.17,9.89 0.41,3.63 1.75,7.14 3.88,10.17 5.92,-3.92 11.07,-8.8 17.63,-11.26 1.39,-0.52 1.93,-2.08 1.07,-3.18l-4.41 -5.62zm-91.75 -28.88c-2.23,2.89 -3.72,6.34 -4.31,10 6.98,1.32 14.08,1.42 20.49,4.22 0.32,0.14 0.65,0.21 0.97,0.21 1.01,0 1.89,-0.68 2.01,-1.74l0.77 -7.1c-4.25,-2.99 -14.6,-3.5 -19.93,-5.59z"/>
   <path class="fil19" d="M511.26 588.02c-1.45,0 -3.03,-0.5 -4.71,-1.73 -2.98,-2.17 -4.86,-5.57 -5.55,-9.2 -1.13,-5.94 -4.01,-11.47 -8.09,-15.9 3.08,-7.73 6.48,-16.05 10.09,-24.52 8.44,0.1 16.87,0.22 25.3,0.37 -0.37,9.82 -0.81,19.98 -1.29,30.45 -0.25,0.99 -0.53,1.96 -0.83,2.93 0,0 0,0 -0.01,0.01 -1.67,5.28 -4.21,10.12 -8.15,14.08 -1.84,1.85 -4.1,3.51 -6.76,3.51z"/>
   <path class="fil20" d="M528.3 537.04c-8.43,-0.15 -16.86,-0.27 -25.3,-0.37 0.41,-0.95 0.81,-1.89 1.22,-2.84 8.05,0.19 16.12,0.38 24.17,0.58 -0.03,0.87 -0.06,1.75 -0.09,2.63z"/>
   <path class="fil19" d="M528.79 522.92c-6.53,-0.17 -13.05,-0.32 -19.57,-0.47 6.59,-14.74 13.62,-29.16 20.48,-40.93 -0.12,12.73 -0.43,26.59 -0.91,41.4z"/>
   <path class="fil20" d="M528.39 534.41c-8.05,-0.2 -16.12,-0.39 -24.17,-0.58 1.63,-3.79 3.3,-7.6 5,-11.38 6.52,0.15 13.04,0.3 19.57,0.47 -0.12,3.76 -0.26,7.6 -0.4,11.49z"/>
   <path class="fil20" d="M474.06 1179.87c4.71,-0.81 3.16,-84.78 2.78,-106.48l0 0c-0.03,-1.99 -0.06,-3.46 -0.06,-4.29 -0.21,-18.63 -0.73,-37.25 -1.6,-55.86 -0.3,-6.37 -2.89,-14.21 3.44,-17.76 1.83,-1.02 4.39,-1.37 7.19,-1.37 2.8,0 5.83,0.34 8.62,0.67 0.23,0.03 0.46,0.06 0.69,0.09 -4.52,49.73 -8.02,86.18 -9.29,99.39 -2.34,24.24 -4.71,48.52 -7.97,72.66 -0.57,4.2 -1.16,8.41 -1.79,12.6 -0.23,0.04 -0.47,0.09 -0.71,0.12 -0.43,0.08 -0.86,0.15 -1.3,0.23z"/>
   <path class="fil19" d="M293 1060.41c2.61,-6.46 5.18,-12.94 7.73,-19.44 1.38,-0.36 2.67,-0.57 3.84,-0.57l4.96 9.66c0.98,1.89 -0.14,4.13 -2.21,4.59 -5.05,1.11 -9.71,3.29 -14.32,5.76z"/>
   <path class="fil19" d="M305.28 1118.79c-0.34,-0.76 -0.66,-1.53 -0.95,-2.31 -1.67,-4.52 -2.45,-9.37 -2.25,-14.18 7.96,-2.12 20.52,-10.69 27.95,-10.69l4.96 9.66c0.12,0.23 0.21,0.47 0.27,0.71 0.41,1.7 -0.67,3.48 -2.49,3.88 -9.83,2.17 -18.22,8.38 -27.49,12.93z"/>
   <path class="fil19" d="M410.09 1045.48c-0.49,0 -1,-0.11 -1.5,-0.32 -9.92,-4.35 -20.9,-4.49 -31.7,-6.54 0.9,-5.66 3.21,-11 6.66,-15.47 8.25,3.23 24.27,4.03 30.83,8.65l-1.18 10.99c-0.17,1.64 -1.54,2.69 -3.11,2.69z"/>
   <path class="fil19" d="M374.11 997.1c-0.32,0 -0.65,-0.07 -0.97,-0.21 -6.41,-2.8 -13.51,-2.9 -20.49,-4.22 0.59,-3.66 2.08,-7.11 4.31,-10 5.33,2.09 15.68,2.6 19.93,5.59l-0.77 7.1c-0.12,1.06 -1,1.74 -2.01,1.74z"/>
   <path class="fil19" d="M434.42 1031.61c-2.13,-3.03 -3.47,-6.54 -3.88,-10.17 5.27,-2.22 13.05,-9.07 18.17,-9.89l4.41 5.62c0.86,1.1 0.32,2.66 -1.07,3.18 -6.56,2.46 -11.71,7.34 -17.63,11.26z"/>
   <path class="fil19" d="M449.49 1067.58c-2.12,-3.03 -3.47,-6.55 -3.88,-10.18 5.27,-2.21 13.05,-9.07 18.17,-9.88l4.41 5.62c0.86,1.1 0.32,2.65 -1.07,3.17 -6.56,2.47 -11.7,7.35 -17.63,11.27z"/>
   <path class="fil19" d="M349.42 1079.3c-1.17,-2.58 -1.72,-5.43 -1.61,-8.25 3.98,-1.06 10.26,-5.34 13.98,-5.34l2.48 4.82c0.49,0.95 -0.07,2.07 -1.11,2.3 -4.91,1.09 -9.11,4.19 -13.74,6.47z"/>
   <path class="fil10" d="M173.17 795.3c5.6,0.01 11.2,-1.47 16.05,-4.26l0.41 -31.65 0.02 0.16c0.9,6.83 11.23,5.91 11.37,-0.97l2.29 -117.08c0.08,-4.37 -1.25,-10.27 -5.61,-10.22 -4.16,0.04 -5.56,5.53 -5.7,9.68 -1.03,-7.31 -2.06,-14.62 -3.08,-21.94 -1.74,-12.36 -13,-24.86 -20.3,-9.34 -6.25,13.28 0.16,43.5 0.43,58.22 0.78,42.48 2.15,84.95 4.12,127.4z"/>
   <path class="fil10" d="M420.09 624.17c4.04,3.04 10.27,0.57 12.97,-3.71 2.69,-4.28 2.83,-9.63 2.88,-14.69 0.12,-11.99 0.24,-23.97 0.36,-35.96 0.18,-17.41 -13.49,-10.32 -16.36,1.13 -3.93,15.65 -1,37.28 0.15,53.23z"/>
   <path class="fil10" d="M461.04 700.79c3.15,1.32 6.41,-1.67 8.1,-4.63 5.3,-9.24 5.51,-20.44 5.57,-31.1 0.1,-17.67 0.21,-35.34 0.31,-53 0.04,-7.39 -0.36,-15.81 -6.03,-20.56 -2.02,-1.69 -4.89,-2.72 -7.31,-1.69 -7.37,3.14 -0.67,37.01 -0.67,43.78 0.01,22.4 0.02,44.8 0.03,67.2z"/>
   <path class="fil10" d="M483.42 749.43c-1.05,12.33 -1.55,24.71 -1.5,37.09 0.02,3.38 1.3,7.95 4.66,7.64 1.48,-0.14 2.64,-1.29 3.55,-2.46 7.11,-9.15 6.5,-21.91 5.56,-33.46 -0.25,-3.11 -0.64,-6.53 -2.91,-8.67 -2.28,-2.14 -7.02,-1.51 -7.42,1.59l-1.94 -1.73z"/>
   <path class="fil10" d="M391.69 839.04c-0.15,5.51 -0.06,11.67 3.78,15.62 5.2,-1.28 9.05,-5.89 10.87,-10.93 1.81,-5.03 1.93,-10.5 2.03,-15.85 0.57,-32.2 1.14,-64.4 1.71,-96.6 0.13,-6.98 -4.04,-19.86 -13.28,-12.64 -5.77,4.5 -2.5,26.94 -2.68,33.48 -0.81,28.97 -1.62,57.94 -2.43,86.92z"/>
   <path class="fil10" d="M160.3 876.56c0,4.41 1.3,10.27 5.71,10.44 4.49,0.17 6.18,-5.77 6.35,-10.26 0.61,-15.8 0.65,-31.63 0.11,-47.43 -0.57,-16.44 -13.05,-9.7 -14.67,2.08 -1.77,12.92 2.48,31.45 2.5,45.17z"/>
   <g>
    <g>
     <polygon class="fil21 str0" points="187.09,650.72 187.09,706.72 169.53,706.72 169.53,650.72 "/>
     <polygon class="fil21 str0" points="262.14,706.72 244.59,706.72 226,678.56 226,706.72 208.44,706.72 208.44,650.72 226,650.72 244.59,679.35 244.59,650.72 262.14,650.72 "/>
     <polygon class="fil21 str0" points="339.89,650.72 321.07,706.72 298.37,706.72 279.55,650.72 298.21,650.72 309.76,689.24 321.23,650.72 "/>
     <polygon class="fil21 str0" points="374.85,664.72 374.85,671.6 392.25,671.6 392.25,684.81 374.85,684.81 374.85,692.72 394.63,692.72 394.63,706.72 357.29,706.72 357.29,650.72 394.63,650.72 394.63,664.72 "/>
     <polygon class="fil21 str0" points="432.28,664.72 432.28,671.6 449.68,671.6 449.68,684.81 432.28,684.81 432.28,692.72 452.05,692.72 452.05,706.72 414.72,706.72 414.72,650.72 452.05,650.72 452.05,664.72 "/>
     <path class="fil21 str1" d="M178.31 612.81c2.27,-4.55 4.55,-6.83 9.11,-6.83 5.03,0 9.11,4.08 9.11,9.11 0,9.11 -9.11,18.22 -18.22,27.33 -9.12,-9.11 -18.23,-18.22 -18.23,-27.33 0,-5.03 4.09,-9.11 9.11,-9.11 4.56,0 6.84,2.28 9.12,6.83z"/>
    </g>
    <path class="fil22" d="M348.4 690.2c-0.12,0.31 -0.06,0.65 0.19,1.03 0.25,0.37 0.5,0.77 0.74,1.21 0.25,0.43 0.42,0.88 0.52,1.35 0.09,0.46 -0.02,0.91 -0.33,1.34 -3.6,6.71 -6.86,14.01 -9.77,21.92 -2.92,7.91 -5.87,16.93 -8.84,27.04 -0.19,0.68 -0.36,1.3 -0.52,1.86 -0.15,0.56 -0.32,1.12 -0.51,1.68 -0.18,0.56 -0.39,1.18 -0.6,1.86 -0.22,0.68 -0.45,1.49 -0.7,2.42 -0.37,0.81 -0.87,1.06 -1.49,0.74 -0.87,-0.37 -1.46,-1.28 -1.77,-2.74 -0.31,-1.46 -0.5,-3.06 -0.56,-4.79 -0.06,-1.74 -0.03,-3.4 0.1,-4.98 0.12,-1.59 0.24,-2.69 0.37,-3.31 0.56,-3.53 1.36,-7.34 2.42,-11.4 1.05,-4.06 2.32,-8.11 3.81,-12.15 1.49,-4.03 3.15,-7.92 4.98,-11.68 1.83,-3.75 3.84,-7.15 6.01,-10.19 0.31,-0.31 0.49,-0.53 0.56,-0.65 -0.44,-0.19 -1.49,-0.23 -3.17,-0.14 -1.67,0.09 -3.52,0.25 -5.54,0.46 -2.01,0.22 -4,0.5 -5.95,0.84 -1.96,0.34 -3.43,0.67 -4.43,0.98 0.25,0.31 0.78,0.81 1.59,1.49 0.8,0.68 1.56,1.36 2.28,2.05 0.71,0.68 1.15,1.29 1.3,1.81 0.16,0.53 -0.29,0.79 -1.35,0.79 -1.43,0 -2.81,-0.17 -4.14,-0.51 -1.33,-0.34 -2.59,-0.82 -3.77,-1.44 -0.62,-0.31 -1.32,-0.67 -2.09,-1.07 -0.78,-0.4 -1.51,-0.84 -2.19,-1.31 -0.68,-0.46 -1.27,-0.97 -1.77,-1.53 -0.5,-0.56 -0.74,-1.18 -0.74,-1.86 0,-1.74 0.83,-3.04 2.51,-3.91 3.6,-1.74 8.03,-3.07 13.31,-4 5.27,-0.93 10.87,-1.51 16.8,-1.72 5.92,-0.22 11.91,-0.11 17.96,0.32 6.05,0.44 11.62,1.12 16.71,2.05 0.31,0.06 0.79,0.22 1.44,0.46 0.65,0.25 1.35,0.56 2.1,0.93 0.74,0.38 1.45,0.76 2.14,1.17 0.68,0.4 1.19,0.8 1.53,1.21 0.34,0.4 0.44,0.76 0.28,1.07 -0.15,0.31 -0.67,0.53 -1.53,0.65 -0.87,0.12 -1.74,0.19 -2.61,0.19 -0.87,0 -1.74,0 -2.61,0 -5.46,0 -10.93,0 -16.42,0 -5.5,0 -10.91,0.15 -16.25,0.46zm21.04 38.26l1.12 -1.12 0.09 0 0 0.18c0.12,1.43 0,2.5 -0.37,3.22 -0.38,0.71 -0.56,1.1 -0.56,1.16 -0.62,0.93 -1.46,2.12 -2.51,3.58 -1.06,1.46 -2.16,2.95 -3.31,4.47 -1.15,1.52 -2.25,2.92 -3.3,4.19 -1.06,1.27 -1.9,2.19 -2.52,2.74 -0.74,0.87 -1.55,1.68 -2.42,2.42 -0.31,0.25 -0.73,0.47 -1.25,0.66 -0.53,0.18 -1.07,0.32 -1.63,0.41 -0.56,0.1 -1.1,0.11 -1.63,0.05 -0.53,-0.06 -0.95,-0.22 -1.26,-0.46 -1.05,-0.69 -1.87,-1.51 -2.46,-2.47 -0.59,-0.96 -0.89,-2 -0.89,-3.12 -0.18,-3.41 0.11,-6.9 0.89,-10.47 0.77,-3.57 1.69,-6.81 2.74,-9.73 0.31,-0.86 0.75,-1.76 1.31,-2.7 0.55,-0.55 1.21,-0.71 1.95,-0.46 0.74,0.25 1.41,0.76 2,1.53 0.59,0.78 1.02,1.73 1.3,2.84 0.28,1.12 0.24,2.24 -0.14,3.35 -0.31,1.06 -0.59,2.07 -0.83,3.03 -0.25,0.96 -0.53,1.97 -0.84,3.02 -0.12,0.5 -0.33,1.21 -0.61,2.15 -0.27,0.93 -0.57,1.9 -0.88,2.93 -0.31,1.02 -0.59,2 -0.84,2.93 -0.25,0.93 -0.4,1.64 -0.46,2.14 -0.13,0.93 0.12,1.18 0.74,0.74 0.62,-0.43 1.46,-1.17 2.51,-2.23 2.55,-2.61 4.97,-5.13 7.26,-7.58 2.3,-2.46 4.57,-4.92 6.8,-7.4zm-13.03 -11.17c-0.44,0.43 -0.75,0.43 -0.93,0 -0.81,-1.25 -1.34,-2.55 -1.59,-3.91 -0.24,-1.37 -0.12,-2.73 0.38,-4.1 0.25,-0.8 0.79,-1.47 1.63,-2 0.83,-0.53 1.59,-0.7 2.28,-0.51 0.37,0.12 0.77,0.32 1.21,0.6 0.43,0.28 0.71,0.61 0.83,0.98 0.44,1.68 0.21,3.29 -0.69,4.84 -0.9,1.55 -1.94,2.92 -3.12,4.1zm27.18 10.89c-2.61,2.91 -5.05,5.86 -7.31,8.84 -2.27,2.98 -4.48,5.96 -6.66,8.93 -0.49,0.44 -0.93,0.62 -1.3,0.56 -0.37,-0.06 -0.7,-0.25 -0.98,-0.56 -0.28,-0.31 -0.49,-0.7 -0.65,-1.16 -0.15,-0.47 -0.26,-0.88 -0.32,-1.26 -0.13,-1.11 -0.13,-2.34 0,-3.67 0.12,-1.34 0.24,-2.19 0.37,-2.56 0.25,-1.06 0.57,-2.27 0.98,-3.63 0.4,-1.37 0.82,-2.75 1.25,-4.14 0.44,-1.4 0.86,-2.77 1.26,-4.1 0.4,-1.33 0.79,-2.53 1.16,-3.58 0.25,-0.75 0.69,-1.2 1.31,-1.35 0.62,-0.16 1.22,-0.06 1.81,0.28 0.59,0.34 1.06,0.91 1.4,1.72 0.34,0.81 0.38,1.83 0.14,3.07 -0.25,1.24 -0.53,2.48 -0.84,3.72 -0.31,1.24 -0.59,2.45 -0.84,3.63 1.8,-1.98 3.58,-4.05 5.35,-6.19 1.77,-2.14 3.49,-4.26 5.17,-6.37 0.81,-0.56 1.64,-0.69 2.51,-0.38 0.87,0.32 1.52,1 1.96,2.05 0.49,1.12 0.71,2.27 0.65,3.45 -0.06,1.18 -0.22,2.29 -0.47,3.35 1.8,-1.86 3.91,-3.69 6.33,-5.49 2.42,-1.8 4.78,-3.17 7.07,-4.1 1.12,-0.43 2.15,-0.5 3.08,-0.19 0.93,0.31 1.73,0.89 2.42,1.73 0.68,0.83 1.19,1.86 1.53,3.07 0.34,1.21 0.48,2.46 0.42,3.77 -0.74,1.55 -1.46,3.05 -2.14,4.51 -0.68,1.46 -1.3,2.9 -1.86,4.33 -0.56,1.43 -1.01,2.85 -1.35,4.28 -0.34,1.43 -0.48,2.89 -0.42,4.38 0.43,0.31 1.16,0.12 2.19,-0.56 1.02,-0.69 2.18,-1.58 3.49,-2.7 1.3,-1.12 2.65,-2.3 4.05,-3.54 1.39,-1.24 2.62,-2.3 3.67,-3.16 3.04,-2.42 4.72,-3.45 5.03,-3.08 0.31,0.38 -0.56,1.77 -2.61,4.19 -1.98,2.36 -4.08,4.69 -6.28,6.98 -2.2,2.3 -4.54,4.29 -7.03,5.96 -0.8,0.56 -1.73,0.85 -2.79,0.89 -1.05,0.03 -2.09,-0.16 -3.12,-0.56 -1.02,-0.41 -1.9,-1.03 -2.65,-1.86 -0.74,-0.84 -1.18,-1.88 -1.3,-3.12 -0.19,-1.62 -0.08,-3.32 0.32,-5.12 0.41,-1.8 0.95,-3.58 1.63,-5.35 0.69,-1.77 1.46,-3.49 2.33,-5.17 0.87,-1.67 1.67,-3.23 2.42,-4.65 -0.19,-0.5 -0.89,-0.33 -2.1,0.51 -1.2,0.84 -2.68,2 -4.42,3.49 -1.73,1.49 -3.56,3.16 -5.49,5.03 -1.92,1.86 -3.69,3.56 -5.3,5.11 -0.69,0.63 -1.2,1.01 -1.54,1.17 -0.34,0.15 -0.64,0.23 -0.88,0.23 -0.62,0 -1.03,-0.51 -1.21,-1.54 -0.19,-1.02 -0.27,-2.2 -0.24,-3.53 0.04,-1.34 0.14,-2.64 0.33,-3.91 0.19,-1.27 0.34,-2.16 0.47,-2.65zm33.97 11.63c-0.13,-2.36 0.12,-4.81 0.74,-7.35 0.62,-2.55 1.55,-4.89 2.8,-7.03 1.24,-2.14 2.8,-3.89 4.7,-5.26 1.89,-1.36 4.11,-2.08 6.65,-2.14 1.3,0.31 2.31,0.96 3.02,1.95 0.72,1 0.92,2.21 0.61,3.64 -0.25,1.36 -0.61,2.52 -1.07,3.48 -0.46,0.97 -1.26,1.98 -2.37,3.03 -0.56,0.5 -1.34,1.15 -2.33,1.95 -0.99,0.81 -1.96,1.65 -2.89,2.52 -0.93,0.87 -1.73,1.75 -2.42,2.65 -0.68,0.9 -1.02,1.66 -1.02,2.28 -0.19,1.61 0.06,2.65 0.74,3.12 0.69,0.46 1.57,0.65 2.66,0.56 1.08,-0.1 2.19,-0.39 3.3,-0.89 1.12,-0.49 2.02,-0.93 2.7,-1.3 0.81,-0.56 1.71,-1.26 2.7,-2.09 0.99,-0.84 1.99,-1.73 2.98,-2.66 0.99,-0.93 1.95,-1.83 2.88,-2.7 0.93,-0.86 1.71,-1.58 2.33,-2.14 0.5,-0.49 0.95,-0.96 1.35,-1.39 0.4,-0.44 0.88,-0.81 1.44,-1.12 0.5,-0.12 0.89,-0.15 1.17,-0.09 0.28,0.06 0.23,0.52 -0.14,1.39 -0.5,1.06 -1.1,2.05 -1.82,2.98 -0.71,0.93 -1.47,1.86 -2.28,2.79 -1.12,1.25 -2.31,2.55 -3.58,3.91 -1.27,1.37 -2.61,2.62 -4,3.77 -1.4,1.15 -2.86,2.14 -4.38,2.98 -1.52,0.84 -3.09,1.38 -4.7,1.63 -2.85,0.19 -5.2,-0.4 -7.03,-1.77 -1.83,-1.36 -2.74,-3.6 -2.74,-6.7zm14.89 -17.5c-1.68,0.62 -2.99,1.43 -3.95,2.42 -0.97,0.99 -1.67,2.45 -2.1,4.38 1.37,-1 2.59,-2.01 3.68,-3.03 1.08,-1.02 1.87,-2.28 2.37,-3.77z"/>
   </g>
  </g>
 </g>
</svg>
