<?xml version="1.0" encoding="UTF-8"?>
<!DOCTYPE svg PUBLIC "-//W3C//DTD SVG 1.1//EN" "http://www.w3.org/Graphics/SVG/1.1/DTD/svg11.dtd">
<!-- Creator: CorelDRAW -->
<svg xmlns="http://www.w3.org/2000/svg" xml:space="preserve" width="598px" height="1309px" version="1.1" style="shape-rendering:geometricPrecision; text-rendering:geometricPrecision; image-rendering:optimizeQuality; fill-rule:evenodd; clip-rule:evenodd"
viewBox="0 0 596.32 1306.26"
 xmlns:xlink="http://www.w3.org/1999/xlink"
 xmlns:xodm="http://www.corel.com/coreldraw/odm/2003">
 <defs>
  <style type="text/css">
   <![CDATA[
    .str0 {stroke:#2923E8;stroke-width:3.34;stroke-miterlimit:22.9256}
    .str1 {stroke:#2923E8;stroke-width:3.34;stroke-miterlimit:22.9256}
    .fil18 {fill:none;fill-rule:nonzero}
    .fil2 {fill:#EF8C8D}
    .fil9 {fill:#F8FAFC}
    .fil8 {fill:#D9C0B8}
    .fil10 {fill:#D5D3E9}
    .fil0 {fill:#BAB9DC}
    .fil7 {fill:#503C35}
    .fil3 {fill:#FAD9DC;fill-rule:nonzero}
    .fil17 {fill:#F6E1D4;fill-rule:nonzero}
    .fil4 {fill:#E0A278;fill-rule:nonzero}
    .fil11 {fill:#D79266;fill-rule:nonzero}
    .fil15 {fill:#D2AB99;fill-rule:nonzero}
    .fil1 {fill:#D5D3E9;fill-rule:nonzero}
    .fil16 {fill:#CEBBCE;fill-rule:nonzero}
    .fil5 {fill:#BF7D53;fill-rule:nonzero}
    .fil12 {fill:#B66E47;fill-rule:nonzero}
    .fil6 {fill:#A96441;fill-rule:nonzero}
    .fil13 {fill:#A25939;fill-rule:nonzero}
    .fil14 {fill:#4D352E;fill-rule:nonzero}
    .fil19 {fill:#3FAB18;fill-rule:nonzero}
   ]]>
  </style>
 </defs>
 <g id="Layer_x0020_1">
  <metadata id="CorelCorpID_0Corel-Layer"/>
  <g id="_2875348800848">
   <path class="fil0" d="M129.41 1266.22c0.33,4.19 0.74,8.59 3.3,12.07 3.33,4.52 9.46,6.37 15.16,7.83 104.13,26.76 214.56,22.67 321.98,11.63 3.99,-0.41 8.43,-1.07 10.83,-4.04 1.68,-2.08 1.94,-4.83 2.14,-7.42 1.47,-19.14 2.94,-21.62 4.4,-40.77 -91.05,8.83 -176.32,6.57 -266.08,6.42 -22.2,-0.04 -74.29,-13.89 -96.24,-15.24 0,0 2.53,4.75 4.51,29.52z"/>
   <path class="fil1" d="M51.74 400.1c-0.45,-4.65 -0.67,-9.2 -0.67,-13.66 0.01,-20.16 4.45,-38.49 12.54,-55.79 8.09,-17.29 19.87,-33.53 34.58,-49.17 5.73,-6.12 15.53,-13.69 25.72,-20.79 10.21,-7.12 20.84,-13.87 28.59,-18.88 15.27,-9.91 38.38,-18.53 62.27,-24.57 23.89,-6.08 48.66,-9.66 67.31,-10.03 5.57,-0.11 10.76,-0.16 15.65,-0.16 21.54,0 37.13,1.09 53.39,3.52 16.25,2.44 33.26,6.25 57.32,11.72 3.37,0.75 9.44,2.84 16.6,5.86 10.77,4.55 24.21,11.24 36.55,18.9 12.33,7.63 23.58,16.36 29.87,24.38 30.94,39.13 51.94,86.46 54.61,135.8 0.18,3.17 2.89,5.6 6.05,5.43 3.18,-0.17 5.6,-2.89 5.44,-6.05 -2.86,-52.22 -24.94,-101.66 -57.07,-142.31 -5.21,-6.58 -12.31,-12.77 -20.3,-18.61 -11.99,-8.74 -26.01,-16.59 -38.64,-22.68 -6.32,-3.04 -12.28,-5.63 -17.48,-7.66 -5.22,-2.03 -9.61,-3.48 -13.08,-4.28 -24.06,-5.46 -41.32,-9.34 -58.16,-11.87 -16.85,-2.53 -33.19,-3.66 -55.1,-3.66 -4.98,0 -10.25,0.06 -15.88,0.17 -19.86,0.41 -45.22,4.12 -69.91,10.38 -24.69,6.29 -48.61,15.05 -65.69,26.06 -7.68,4.98 -18.45,11.81 -28.92,19.11 -10.49,7.34 -20.66,15.06 -27.52,22.34 -15.32,16.3 -27.87,33.5 -36.61,52.17 -8.75,18.66 -13.63,38.8 -13.63,60.67 0,4.83 0.24,9.75 0.73,14.77 0.3,3.15 3.11,5.47 6.27,5.16 3.16,-0.3 5.48,-3.11 5.17,-6.27z"/>
   <polygon class="fil2" points="256.39,963.28 204.94,957.83 306.45,0 357.89,5.45 "/>
   <polygon class="fil3" points="356.77,16.08 300.6,55.22 294.18,115.82 350.35,76.69 "/>
   <polygon class="fil3" points="343.7,139.39 287.53,178.53 281.11,239.14 337.27,200 "/>
   <polygon class="fil3" points="330.19,266.91 274.02,306.05 267.6,366.66 323.76,327.52 "/>
   <polygon class="fil3" points="317.12,390.22 260.95,429.36 254.53,489.96 310.69,450.83 "/>
   <polygon class="fil3" points="303.24,521.19 247.07,560.32 240.65,620.93 296.81,581.79 "/>
   <polygon class="fil3" points="276.66,772.01 220.49,811.15 214.07,871.76 270.23,832.62 "/>
   <polygon class="fil3" points="263.59,895.33 207.42,934.46 204.94,957.83 247.9,962.39 257.16,955.93 "/>
   <path class="fil4" d="M112.57 904.28c12.61,11.14 32.5,13.07 47.01,4.56 7.54,-4.41 13.56,-11.23 21.47,-14.93 21.48,-10.06 45.18,5.91 67.08,15.03 31.36,13.06 68.39,11.72 98.72,-3.58 15.63,-7.89 29.68,-19.31 46.52,-24.09 22.21,-6.31 45.75,-0.21 68.58,3.24 13.82,2.08 28.77,2.82 42.18,-0.39 12.45,-147.42 26.05,-332.49 24.87,-426.32 -151.44,-4.14 -309.36,-1.15 -460.8,-5.29 1.67,75.26 19.3,266.74 37.16,441.16 2.05,4.3 4.38,8.1 7.21,10.61z"/>
   <path class="fil5" d="M461.95 884.51c-22.83,-3.45 -46.37,-9.55 -68.58,-3.24 -16.84,4.78 -30.89,16.2 -46.52,24.09 -30.33,15.3 -67.36,16.64 -98.72,3.58 -21.9,-9.12 -45.6,-25.09 -67.08,-15.03 -7.91,3.7 -13.93,10.52 -21.47,14.93 -14.51,8.51 -34.4,6.58 -47.01,-4.56 -2.83,-2.51 -5.16,-6.31 -7.21,-10.61 9.95,97.21 19.97,189.08 27.33,252.6 9.23,-0.87 19.52,3.32 27.71,9.09 19.72,13.89 41.86,24.34 66.22,26.21 20.21,1.54 40.36,-2.76 60.14,-7.2 24.72,-5.56 49.38,-11.36 73.98,-17.43 14.58,-3.6 29.38,-7.31 44.4,-6.84 18.43,0.58 36,7.4 53.77,12.37 6.04,1.68 12.13,3.11 18.25,4.45 3.26,-24.14 5.63,-48.42 7.97,-72.66 2.09,-21.77 10.27,-106.69 19,-210.14 -13.41,3.21 -28.36,2.47 -42.18,0.39z"/>
   <path class="fil6" d="M405.14 1150.1c-15.02,-0.47 -29.82,3.24 -44.4,6.84 -24.6,6.07 -49.26,11.87 -73.98,17.43 -19.78,4.44 -39.93,8.74 -60.14,7.2 -24.36,-1.87 -46.5,-12.32 -66.22,-26.21 -8.19,-5.77 -18.48,-9.96 -27.71,-9.09 3.27,28.24 6.02,50.9 8,65.89 102.53,33.79 228.39,27.33 326.44,12.44 4.26,-19.08 7.42,-38.34 10.03,-57.68 -6.12,-1.34 -12.21,-2.77 -18.25,-4.45 -17.77,-4.97 -35.34,-11.79 -53.77,-12.37z"/>
   <path class="fil7" d="M256.37 992.59c0,17.28 -14,31.29 -31.28,31.29 -17.27,0 -31.28,-14.01 -31.28,-31.29 0,-17.27 14.01,-31.28 31.28,-31.28 17.28,0 31.28,14.01 31.28,31.28z"/>
   <path class="fil8" d="M225.83 977.17c0,4.17 -3.38,7.55 -7.55,7.55 -4.17,0 -7.55,-3.38 -7.55,-7.55 0,-4.16 3.38,-7.55 7.55,-7.55 4.17,0 7.55,3.39 7.55,7.55z"/>
   <path class="fil7" d="M204.31 1119.24c-0.53,-17.26 13.03,-31.7 30.3,-32.23 17.27,-0.54 31.71,13.02 32.24,30.29 0.53,17.27 -13.03,31.71 -30.3,32.24 -17.27,0.54 -31.7,-13.03 -32.24,-30.3z"/>
   <path class="fil8" d="M235.32 1133.71c-0.13,-4.17 3.15,-7.65 7.32,-7.78 4.16,-0.13 7.65,3.14 7.77,7.31 0.13,4.17 -3.14,7.65 -7.31,7.78 -4.17,0.13 -7.64,-3.14 -7.78,-7.31z"/>
   <path class="fil7" d="M346.48 1193.3c1.96,17.17 -10.36,32.67 -27.53,34.63 -17.17,1.96 -32.67,-10.37 -34.63,-27.53 -1.96,-17.17 10.36,-32.67 27.53,-34.63 17.16,-1.97 32.67,10.36 34.63,27.53z"/>
   <path class="fil8" d="M314.38 1181.44c0.47,4.14 -2.5,7.89 -6.64,8.36 -4.14,0.47 -7.89,-2.5 -8.36,-6.64 -0.47,-4.15 2.5,-7.88 6.64,-8.36 4.15,-0.47 7.89,2.5 8.36,6.64z"/>
   <path class="fil7" d="M338.91 1043.58c-17.26,0.68 -31.81,-12.75 -32.5,-30.02 -0.69,-17.26 12.75,-31.81 30.02,-32.5 17.26,-0.68 31.81,12.76 32.49,30.02 0.69,17.26 -12.75,31.82 -30.01,32.5z"/>
   <path class="fil8" d="M353.1 1012.45c-4.16,0.16 -7.68,-3.08 -7.84,-7.25 -0.16,-4.17 3.08,-7.68 7.25,-7.84 4.16,-0.16 7.67,3.07 7.83,7.24 0.17,4.17 -3.07,7.68 -7.24,7.85z"/>
   <path class="fil7" d="M213.73 839.44c-2.2,16.13 -17.06,27.42 -33.19,25.22 -16.13,-2.2 -27.42,-17.06 -25.22,-33.18 2.2,-16.13 17.06,-27.43 33.19,-25.22 16.13,2.19 27.42,17.05 25.22,33.18z"/>
   <path class="fil8" d="M187.17 821.16c-0.53,3.89 -4.11,6.62 -8,6.09 -3.9,-0.53 -6.62,-4.12 -6.09,-8.01 0.53,-3.9 4.12,-6.62 8.01,-6.09 3.89,0.53 6.61,4.12 6.08,8.01z"/>
   <path class="fil7" d="M200.89 1063.67c-2.2,16.13 -17.06,27.42 -33.19,25.22 -16.13,-2.2 -27.42,-17.06 -25.22,-33.19 2.2,-16.13 17.06,-27.42 33.19,-25.22 16.13,2.2 27.42,17.06 25.22,33.19z"/>
   <path class="fil8" d="M174.33 1045.39c-0.53,3.89 -4.11,6.61 -8,6.08 -3.9,-0.53 -6.62,-4.11 -6.09,-8 0.53,-3.9 4.12,-6.62 8.01,-6.09 3.89,0.53 6.62,4.11 6.08,8.01z"/>
   <path class="fil7" d="M357.08 1076.66c12.24,10.72 13.48,29.35 2.76,41.6 -10.72,12.24 -29.33,13.48 -41.58,2.76 -12.25,-10.72 -13.49,-29.34 -2.77,-41.59 10.72,-12.25 29.34,-13.49 41.59,-2.77z"/>
   <path class="fil8" d="M327.19 1088.75c2.96,2.59 3.26,7.08 0.67,10.04 -2.58,2.95 -7.08,3.25 -10.04,0.66 -2.95,-2.58 -3.25,-7.07 -0.66,-10.03 2.59,-2.96 7.08,-3.26 10.03,-0.67z"/>
   <path class="fil7" d="M451.4 999.89c12.25,10.72 13.48,29.34 2.76,41.59 -10.72,12.24 -29.34,13.48 -41.58,2.76 -12.25,-10.72 -13.49,-29.34 -2.77,-41.59 10.72,-12.24 29.34,-13.48 41.59,-2.76z"/>
   <path class="fil8" d="M421.51 1011.97c2.96,2.59 3.26,7.08 0.67,10.04 -2.59,2.96 -7.08,3.26 -10.04,0.67 -2.95,-2.59 -3.25,-7.08 -0.66,-10.03 2.58,-2.96 7.07,-3.26 10.03,-0.68z"/>
   <path class="fil7" d="M425.64 1177.41c-17.26,0.69 -31.81,-12.75 -32.5,-30.01 -0.69,-17.27 12.75,-31.82 30.02,-32.51 17.26,-0.68 31.81,12.76 32.5,30.02 0.68,17.26 -12.76,31.82 -30.02,32.5z"/>
   <path class="fil8" d="M439.83 1146.28c-4.16,0.16 -7.68,-3.08 -7.84,-7.24 -0.16,-4.17 3.08,-7.68 7.24,-7.85 4.17,-0.16 7.68,3.08 7.85,7.24 0.16,4.17 -3.08,7.68 -7.25,7.85z"/>
   <path class="fil7" d="M440.77 815.04c-17.26,0.68 -31.81,-12.76 -32.49,-30.02 -0.69,-17.26 12.75,-31.82 30.01,-32.5 17.27,-0.68 31.81,12.75 32.5,30.02 0.69,17.26 -12.75,31.81 -30.02,32.5z"/>
   <path class="fil8" d="M454.97 783.9c-4.17,0.17 -7.68,-3.08 -7.84,-7.24 -0.17,-4.16 3.07,-7.68 7.24,-7.84 4.17,-0.17 7.68,3.07 7.84,7.24 0.16,4.17 -3.07,7.67 -7.24,7.84z"/>
   <path class="fil7" d="M310.15 917.16c-2.27,17.13 -18,29.17 -35.12,26.9 -17.13,-2.27 -29.17,-17.99 -26.9,-35.12 2.27,-17.13 17.99,-29.17 35.12,-26.9 17.13,2.27 29.17,17.99 26.9,35.12z"/>
   <path class="fil8" d="M281.9 897.86c-0.55,4.14 -4.35,7.04 -8.48,6.5 -4.13,-0.55 -7.04,-4.35 -6.49,-8.49 0.55,-4.12 4.34,-7.03 8.48,-6.48 4.13,0.55 7.03,4.34 6.49,8.47z"/>
   <path class="fil7" d="M450.65 910.21c6.48,10.81 2.97,24.83 -7.83,31.32 -10.81,6.48 -24.83,2.97 -31.32,-7.84 -6.48,-10.81 -2.97,-24.82 7.84,-31.31 10.8,-6.48 24.82,-2.98 31.31,7.83z"/>
   <path class="fil8" d="M425.75 912.03c1.57,2.61 0.72,5.99 -1.89,7.56 -2.61,1.56 -5.99,0.72 -7.56,-1.89 -1.56,-2.61 -0.71,-6 1.89,-7.56 2.61,-1.56 5.99,-0.72 7.56,1.89z"/>
   <path class="fil7" d="M206.81 1170.15c6.49,10.8 2.98,24.82 -7.83,31.31 -10.81,6.48 -24.83,2.97 -31.31,-7.83 -6.48,-10.81 -2.98,-24.83 7.83,-31.31 10.81,-6.49 24.82,-2.98 31.31,7.83z"/>
   <path class="fil8" d="M181.91 1171.97c1.57,2.6 0.72,5.98 -1.89,7.55 -2.6,1.57 -5.99,0.72 -7.55,-1.89 -1.56,-2.61 -0.72,-5.99 1.89,-7.56 2.61,-1.56 5.99,-0.71 7.55,1.9z"/>
   <path class="fil1" d="M119.66 1230.85l-1.8 5.82c62.56,19.29 132.31,26.29 200.69,26.3 60.32,0 119.58,-5.47 171.87,-12.9l4.1 -0.58 0.96 -4.04c10.97,-46 15.77,-92.71 20.54,-139.02 1.39,-13.53 5.21,-44.67 10.15,-86.34 7.41,-62.53 17.35,-148.86 25.43,-235.88 8.08,-87.02 14.32,-174.67 14.33,-240.08 0,-4.29 -0.03,-8.49 -0.08,-12.58l-0.08 -5.86 -5.85 -0.15c-41.44,-1.06 -82.92,-1.42 -124.41,-1.42 -89.15,0 -178.37,1.67 -267.37,1.67 -41.41,0 -82.77,-0.36 -124.05,-1.42l-6.39 -0.16 0.15 6.39c0.86,36.32 5.01,90.93 10.99,154.37 17.96,190.3 52.51,459.78 64.79,546.73l0.54 3.83 3.69 1.14 1.8 -5.82 6.02 -0.85c-8.16,-57.8 -26.24,-196.87 -42.69,-339.42 -8.23,-71.28 -16.05,-143.44 -22.03,-206.75 -5.98,-63.3 -10.1,-117.79 -10.94,-153.52l-6.09 0.15 -0.15 6.08c41.42,1.06 82.88,1.42 124.36,1.42 89.15,0 178.37,-1.67 267.37,-1.67 41.42,0 82.79,0.36 124.09,1.42l0.16 -6.08 -6.08 0.08c0.05,4.04 0.07,8.18 0.07,12.42 0.01,86.24 -11.03,212.94 -22.79,324.74 -5.88,55.91 -11.94,108.13 -16.87,149.78 -4.94,41.68 -8.76,72.72 -10.18,86.53 -4.76,46.31 -9.54,92.49 -20.26,137.45l5.91 1.41 -0.85 -6.02c-51.85,7.37 -110.58,12.78 -170.16,12.78 -67.55,0 -136.19,-6.97 -197.1,-25.77l-1.79 5.82 6.02 -0.85 -6.02 0.85z"/>
   <path class="fil1" d="M592.76 531.02c1.83,-12.83 3.55,-32.89 3.56,-51.8 -0.02,-13.31 -0.82,-25.93 -3.28,-35.48 -1.47,-5.63 -3.41,-11.58 -6.49,-17.2 -3.07,-5.6 -7.36,-10.91 -13.39,-14.85 -5.99,-3.91 -12.72,-5.92 -19.45,-7.06 -6.74,-1.14 -13.56,-1.42 -19.95,-1.64 -127.53,-4.29 -255.15,-6.44 -382.77,-6.44 -32.79,0 -65.59,0.14 -98.38,0.43l0 0c-5.68,0.08 -12.15,0.04 -18.64,2.4l0 0c-6.59,2.44 -11.47,6.86 -15.25,11.23l0 0c-7.17,8.28 -11.76,17.77 -14.57,27.56 -2.81,9.79 -3.88,19.9 -4.07,29.67 -0.06,3.21 -0.08,6.93 -0.08,10.9 0,19.72 0.6,45.81 0.6,45.83 0.07,3.14 2.66,5.65 5.8,5.62 44.44,-0.37 88.89,-0.56 133.33,-0.56 149.09,0 298.17,2.11 447.18,6.33 3.17,0.09 5.82,-2.42 5.91,-5.59 0.09,-3.18 -2.41,-5.82 -5.59,-5.91 -149.11,-4.22 -298.3,-6.33 -447.5,-6.33 -44.48,0 -88.95,0.19 -133.43,0.57l0.05 5.74 5.75 -0.13c0,-0.01 -0.15,-6.5 -0.3,-15.46 -0.15,-8.95 -0.3,-20.36 -0.3,-30.11 0,-3.92 0.02,-7.58 0.08,-10.69 0.17,-9.07 1.17,-18.2 3.62,-26.7 2.45,-8.52 6.31,-16.4 12.21,-23.22l0 0c3.09,-3.57 6.56,-6.51 10.53,-7.96l0 0c3.93,-1.48 9.13,-1.67 14.77,-1.69l0 0c32.76,-0.29 65.52,-0.43 98.28,-0.43 127.49,0 254.99,2.14 382.38,6.43 6.31,0.22 12.65,0.51 18.42,1.49 5.78,0.97 10.93,2.63 15.07,5.35 4.17,2.73 7.2,6.38 9.61,10.76 2.41,4.36 4.1,9.42 5.44,14.56 2.03,7.72 2.92,19.82 2.91,32.58 0,18.2 -1.69,37.99 -3.44,50.17 -0.45,3.15 1.73,6.06 4.88,6.51 3.14,0.45 6.05,-1.74 6.5,-4.88z"/>
   <path class="fil9" d="M142.02 794c0.29,4.47 0.52,9.18 -1.48,13.18 -4.74,9.44 -18.05,9.31 -28.5,7.79 2.08,0.31 -9.68,-116.52 -11.2,-129.78 -2.94,-25.76 -25.97,-135.74 25.22,-130.29 7.21,38.2 5.73,80.3 8.24,119.24 2.57,39.96 5.14,79.91 7.72,119.86z"/>
   <path class="fil9" d="M143.31 823.55c0.23,7.36 0.22,14.73 0,22.1 -7.79,2 -15.88,2.79 -23.91,2.35 -1.98,-0.12 -3.98,-18.57 -1.28,-20.94 4.11,-3.61 19.46,-2.07 25.19,-3.51z"/>
   <path class="fil10" d="M474.06 1179.87c3.55,-0.61 7.11,-1.23 10.66,-1.84 2.95,-61.05 8.37,-121.98 16.25,-182.59 -5.7,-0.19 -17.1,-2.91 -22.35,0.04 -6.33,3.55 -3.74,11.39 -3.44,17.76 0.87,18.61 1.39,37.23 1.59,55.86 0.11,9.92 2.42,109.89 -2.71,110.77z"/>
   <path class="fil1" d="M335.45 216.99l-1.21 11.59c8.78,2.54 13.13,7.25 12.94,9.64 -0.13,1.68 -4.41,5.02 -16.64,4.73l-45.66 -1.16c-12.16,-0.31 -24.73,-0.63 -36.17,-4.25 -2.15,-0.68 -4.79,-1.66 -6.14,-3.24 -0.65,-0.76 -0.79,-1.73 -0.72,-2.08 5.52,-5.45 21.47,-7.84 40.63,-8l1.23 -11.58c-20.65,0.04 -41.95,2.65 -50.64,12.12l-0.31 0.38c-3.63,4.68 -3.17,11.69 1.08,16.64 3.25,3.79 7.79,5.58 11.39,6.72 13,4.11 26.4,4.45 39.36,4.79l45.66 1.16c0.64,0.01 1.26,0.02 1.87,0.02 23.42,0 26.23,-11.67 26.52,-15.32 0.79,-9.68 -8.9,-18.64 -23.19,-22.16z"/>
   <path class="fil10" d="M198.47 270.37c-41.11,12.89 -77.21,41.14 -99.62,77.95 -0.6,-4.66 -8.17,-4.06 -11.04,-7.78 -2.3,-2.99 -0.62,-7.28 1.12,-10.62 4.16,-8 8.32,-15.99 12.48,-23.99 4.69,-9.03 9.42,-18.12 15.74,-26.1 11.46,-14.49 28.02,-24.7 45.73,-29.63 6.63,-1.85 14.81,-4.69 21.22,-1.2 3.51,1.9 12.84,21.85 14.37,21.37z"/>
   <path class="fil9" d="M499.1 492.72c4.08,0.04 9.73,4.17 6.4,6.52 -78.41,3.88 -163.43,11.95 -241.43,2.29 -4.39,-18.24 91.58,-10.13 106.75,-10 42.76,0.4 85.53,0.68 128.28,1.19z"/>
   <path class="fil11" d="M483.88 886.3c-0.01,0 -0.02,0 -0.03,0 -6.49,0 -13.04,-0.56 -19.38,-1.43 -0.02,0 -0.03,0 -0.04,-0.01 -0.83,-0.11 -1.66,-0.23 -2.48,-0.35 -0.17,-0.03 -0.33,-0.05 -0.49,-0.08 -0.08,-0.01 -0.17,-0.02 -0.26,-0.04 -0.24,-0.03 -0.47,-0.07 -0.71,-0.11 -0.01,0 -0.02,0 -0.02,0 -0.18,-0.03 -0.37,-0.06 -0.54,-0.08l-0.01 0c-0.1,-0.02 -0.21,-0.04 -0.31,-0.05 -0.03,-0.01 -0.07,-0.01 -0.11,-0.02 -13.27,-2.1 -26.76,-4.91 -40.07,-5.49 8.82,-21.4 17.62,-42.81 26.42,-64.22 14.75,-3.02 25.56,-16.35 24.94,-31.88 -0.24,-5.98 -2.13,-11.49 -5.23,-16.12 8.04,-19.55 16.09,-39.09 24.16,-58.62 11.45,-27.7 22.73,-55.48 33.57,-83.42 -4.89,83.36 -12.2,177.42 -19.16,259.74l0 0c-6.48,1.55 -13.33,2.18 -20.23,2.18 -0.01,0 -0.02,0 -0.02,0z"/>
   <path class="fil12" d="M294.86 1172.54c9.18,-16.21 17.67,-32.83 25.65,-49.73 5.15,3.69 11.16,5.5 17.14,5.5 8.21,0 16.37,-3.4 22.19,-10.05 10.72,-12.25 9.48,-30.88 -2.76,-41.6 -3.96,-3.46 -8.58,-5.67 -13.39,-6.67 4.5,-10.94 8.88,-21.93 13.18,-32.97 7.69,-5.98 12.47,-15.46 12.05,-25.94 -0.05,-1.46 -0.21,-2.89 -0.46,-4.28 7.72,-20.34 15.32,-40.69 23.11,-60.89 9.33,-22.4 18.61,-44.82 27.86,-67.27 13.31,0.58 26.8,3.39 40.07,5.49 0.04,0.01 0.08,0.01 0.11,0.02 0.1,0.01 0.21,0.03 0.31,0.05l0.01 0c0.17,0.02 0.36,0.05 0.54,0.08 0,0 0.01,0 0.02,0 0.24,0.04 0.47,0.08 0.71,0.11 0.09,0.02 0.18,0.03 0.26,0.04 0.16,0.03 0.32,0.05 0.49,0.08 0.82,0.12 1.65,0.24 2.48,0.35 0.01,0.01 0.02,0.01 0.04,0.01 6.34,0.87 12.88,1.43 19.38,1.43 0.01,0 0.02,0 0.03,0l0 0c0,0 0.01,0 0.02,0 6.9,0 13.75,-0.63 20.23,-2.18l0 0c-3.43,40.65 -6.78,78.44 -9.7,110.66 -2.79,-0.33 -5.83,-0.67 -8.62,-0.67 -2.8,0 -5.36,0.35 -7.19,1.37 -6.33,3.55 -3.74,11.39 -3.44,17.76 0.87,18.61 1.39,37.23 1.59,55.86 0.09,7.73 1.5,70.04 -0.29,97.67 -5.89,-1.3 -11.76,-2.68 -17.57,-4.3 -2.24,-0.63 -4.48,-1.28 -6.71,-1.95 2.41,-4.67 3.68,-9.99 3.46,-15.61 -0.67,-16.84 -14.54,-30.04 -31.24,-30.04 -0.42,0 -0.84,0.01 -1.26,0.02 -17.27,0.69 -30.71,15.24 -30.02,32.51 0.04,1.05 0.13,2.09 0.28,3.11 -10.22,0.98 -20.34,3.39 -30.35,5.86 -0.31,0.07 -0.61,0.15 -0.91,0.22 -0.07,0.02 -0.14,0.03 -0.21,0.05 -0.06,0.02 -0.13,0.03 -0.19,0.05 -0.09,0.02 -0.17,0.04 -0.25,0.06 -0.06,0.01 -0.11,0.03 -0.17,0.04 -0.2,0.05 -0.4,0.1 -0.6,0.15l0 0c-12.89,3.18 -25.8,6.29 -38.72,9.32 -2.13,-0.46 -4.34,-0.7 -6.58,-0.7 -1.19,0 -2.38,0.07 -3.59,0.21 -6,0.68 -11.4,3.02 -15.81,6.5 -0.39,0.09 -0.79,0.18 -1.18,0.27zm137.14 -179.95c-8.21,0 -16.36,3.4 -22.19,10.06 -10.72,12.25 -9.48,30.87 2.77,41.59 5.58,4.9 12.5,7.3 19.39,7.3 8.21,0 16.37,-3.41 22.19,-10.06 10.72,-12.25 9.49,-30.87 -2.76,-41.59 -5.59,-4.9 -12.51,-7.3 -19.4,-7.3zm-0.95 -93.46c-3.99,0 -8.04,1.05 -11.71,3.25 -10.81,6.49 -14.32,20.5 -7.84,31.31 4.28,7.14 11.84,11.09 19.6,11.09 3.99,0 8.04,-1.05 11.72,-3.25 10.8,-6.49 14.31,-20.51 7.83,-31.32 -4.28,-7.13 -11.84,-11.08 -19.6,-11.08z"/>
   <path class="fil13" d="M344.55 1236.23c-28.7,-1 -57.39,-3.65 -85.23,-8.49 9.17,-12.47 17.71,-25.33 25.72,-38.49 -0.88,3.54 -1.16,7.3 -0.72,11.15 1.82,15.96 15.35,27.73 31.04,27.73 1.18,0 2.38,-0.06 3.59,-0.2 17.17,-1.96 29.49,-17.46 27.53,-34.63 -1.56,-13.68 -11.72,-24.28 -24.46,-27.04 12.92,-3.03 25.83,-6.14 38.72,-9.32l0 0c0.2,-0.05 0.4,-0.1 0.6,-0.15 0.06,-0.01 0.11,-0.03 0.17,-0.04 0.08,-0.02 0.16,-0.04 0.25,-0.06 0.06,-0.02 0.13,-0.03 0.19,-0.05 0.07,-0.02 0.14,-0.03 0.21,-0.05 0.3,-0.07 0.6,-0.15 0.91,-0.22 10.01,-2.47 20.13,-4.88 30.35,-5.86 2.13,15.33 15.3,26.93 30.96,26.93 0.42,0 0.83,-0.01 1.26,-0.03 11.65,-0.46 21.55,-7.23 26.56,-16.89 2.23,0.67 4.47,1.32 6.71,1.95 5.81,1.62 11.68,3 17.57,4.3 -0.51,7.85 -1.28,12.9 -2.42,13.1 0.44,-0.08 0.87,-0.15 1.3,-0.23 -2.25,15.07 -4.91,30.07 -8.23,44.96 -37.72,5.73 -79.54,10.21 -122.58,11.63zm-50.52 -62.24c0.28,-0.48 0.55,-0.97 0.83,-1.45 0.39,-0.09 0.79,-0.18 1.18,-0.27 -0.69,0.55 -1.36,1.12 -2.01,1.72z"/>
   <path class="fil14" d="M315.36 1228.13c-15.69,0 -29.22,-11.77 -31.04,-27.73 -0.44,-3.85 -0.16,-7.61 0.72,-11.15 3.08,-5.04 6.06,-10.12 8.99,-15.26 0.65,-0.6 1.32,-1.17 2.01,-1.72l0 0c4.41,-3.48 9.81,-5.82 15.81,-6.5 1.21,-0.14 2.4,-0.21 3.59,-0.21 2.24,0 4.45,0.24 6.58,0.7l0 0c12.74,2.76 22.9,13.36 24.46,27.04 1.96,17.17 -10.36,32.67 -27.53,34.63 -1.21,0.14 -2.41,0.2 -3.59,0.2zm-8.48 -53.38c-0.28,0 -0.57,0.02 -0.86,0.05 -4.14,0.48 -7.11,4.21 -6.64,8.36 0.44,3.85 3.7,6.69 7.49,6.69 0.28,0 0.58,-0.02 0.87,-0.05 4.14,-0.47 7.11,-4.22 6.64,-8.36 -0.44,-3.85 -3.71,-6.69 -7.5,-6.69z"/>
   <path class="fil15" d="M306.87 1189.85c-3.79,0 -7.05,-2.84 -7.49,-6.69 -0.47,-4.15 2.5,-7.88 6.64,-8.36 0.29,-0.03 0.58,-0.05 0.86,-0.05 3.79,0 7.06,2.84 7.5,6.69 0.47,4.14 -2.5,7.89 -6.64,8.36 -0.29,0.03 -0.59,0.05 -0.87,0.05z"/>
   <path class="fil14" d="M356.87 1037.02c3.91,-10.05 7.77,-20.13 11.59,-30.22 0.25,1.39 0.41,2.82 0.46,4.28 0.42,10.48 -4.36,19.96 -12.05,25.94z"/>
   <path class="fil14" d="M337.65 1128.31c-5.98,0 -11.99,-1.81 -17.14,-5.5 8.2,-17.35 15.85,-35 23.18,-52.82 4.81,1 9.43,3.21 13.39,6.67 12.24,10.72 13.48,29.35 2.76,41.6 -5.82,6.65 -13.98,10.05 -22.19,10.05z"/>
   <path class="fil14" d="M431.97 1051.54c-6.89,0 -13.81,-2.4 -19.39,-7.3 -12.25,-10.72 -13.49,-29.34 -2.77,-41.59 5.83,-6.66 13.98,-10.06 22.19,-10.06 6.89,0 13.81,2.4 19.4,7.3 12.25,10.72 13.48,29.34 2.76,41.59 -5.82,6.65 -13.98,10.06 -22.19,10.06zm-15.14 -41.33c-1.98,0 -3.95,0.83 -5.35,2.44 -2.59,2.95 -2.29,7.44 0.66,10.03 1.35,1.18 3.03,1.76 4.68,1.76 1.98,0 3.96,-0.82 5.36,-2.43 2.59,-2.96 2.29,-7.45 -0.67,-10.04 -1.35,-1.18 -3.02,-1.76 -4.68,-1.76z"/>
   <path class="fil15" d="M416.82 1024.44c-1.65,0 -3.33,-0.58 -4.68,-1.76 -2.95,-2.59 -3.25,-7.08 -0.66,-10.03 1.4,-1.61 3.37,-2.44 5.35,-2.44 1.66,0 3.33,0.58 4.68,1.76 2.96,2.59 3.26,7.08 0.67,10.04 -1.4,1.61 -3.38,2.43 -5.36,2.43z"/>
   <path class="fil14" d="M424.38 1177.44c-15.66,0 -28.83,-11.6 -30.96,-26.93 -0.15,-1.02 -0.24,-2.06 -0.28,-3.11 -0.69,-17.27 12.75,-31.82 30.02,-32.51 0.42,-0.01 0.84,-0.02 1.26,-0.02 16.7,0 30.57,13.2 31.24,30.04 0.22,5.62 -1.05,10.94 -3.46,15.61l0 0c-5.01,9.66 -14.91,16.43 -26.56,16.89 -0.43,0.02 -0.84,0.03 -1.26,0.03zm15.16 -46.25c-0.1,0 -0.2,0 -0.31,0 -4.16,0.17 -7.4,3.68 -7.24,7.85 0.16,4.06 3.51,7.25 7.54,7.25 0.1,0 0.2,-0.01 0.3,-0.01 4.17,-0.17 7.41,-3.68 7.25,-7.85 -0.16,-4.06 -3.51,-7.24 -7.54,-7.24z"/>
   <path class="fil15" d="M439.53 1146.29c-4.03,0 -7.38,-3.19 -7.54,-7.25 -0.16,-4.17 3.08,-7.68 7.24,-7.85 0.11,0 0.21,0 0.31,0 4.03,0 7.38,3.18 7.54,7.24 0.16,4.17 -3.08,7.68 -7.25,7.85 -0.1,0 -0.2,0.01 -0.3,0.01z"/>
   <path class="fil14" d="M445.85 814.42c4.35,-10.6 8.71,-21.21 13.07,-31.82 2.07,-1.42 3.4,-3.84 3.29,-6.54 -0.01,-0.4 -0.06,-0.78 -0.13,-1.16 1.16,-2.83 2.32,-5.65 3.48,-8.48 3.1,4.63 4.99,10.14 5.23,16.12 0.62,15.53 -10.19,28.86 -24.94,31.88z"/>
   <path class="fil15" d="M458.92 782.6c1.05,-2.57 2.1,-5.13 3.16,-7.7 0.07,0.38 0.12,0.76 0.13,1.16 0.11,2.7 -1.22,5.12 -3.29,6.54z"/>
   <path class="fil14" d="M431.1 944.78c-7.76,0 -15.32,-3.95 -19.6,-11.09 -6.48,-10.81 -2.97,-24.82 7.84,-31.31 3.67,-2.2 7.72,-3.25 11.71,-3.25 7.76,0 15.32,3.95 19.6,11.08 6.48,10.81 2.97,24.83 -7.83,31.32 -3.68,2.2 -7.73,3.25 -11.72,3.25zm-10.08 -35.43c-0.96,0 -1.94,0.26 -2.83,0.79 -2.6,1.56 -3.45,4.95 -1.89,7.56 1.04,1.72 2.86,2.67 4.73,2.67 0.97,0 1.94,-0.25 2.83,-0.78 2.61,-1.57 3.46,-4.95 1.89,-7.56 -1.03,-1.72 -2.86,-2.68 -4.73,-2.68z"/>
   <path class="fil15" d="M421.03 920.37c-1.87,0 -3.69,-0.95 -4.73,-2.67 -1.56,-2.61 -0.71,-6 1.89,-7.56 0.89,-0.53 1.87,-0.79 2.83,-0.79 1.87,0 3.7,0.96 4.73,2.68 1.57,2.61 0.72,5.99 -1.89,7.56 -0.89,0.53 -1.86,0.78 -2.83,0.78z"/>
   <path class="fil16" d="M486.62 1229.47c8.69,-40.8 12.99,-82.48 17.29,-124.29 1.42,-13.81 5.24,-44.85 10.18,-86.53 4.93,-41.65 10.99,-93.87 16.87,-149.78 11.68,-111.07 22.66,-236.85 22.79,-323.05 1.46,-3.51 2.96,-7.07 4.49,-10.65 2.55,0.07 5.09,0.14 7.65,0.2 0.02,2.88 0.04,5.8 0.04,8.76 -0.01,65.41 -6.25,153.06 -14.33,240.08 -8.08,87.02 -18.02,173.35 -25.43,235.88 -4.94,41.67 -8.76,72.81 -10.15,86.34 -4.16,40.42 -8.34,81.14 -16.63,121.43 -4.22,0.55 -8.48,1.09 -12.77,1.61z"/>
   <path class="fil17" d="M582.05 524.31c-6.28,-0.17 -12.57,-0.34 -18.84,-0.51 6.77,-15.2 14.02,-30.15 21.08,-42.28 -0.07,7.3 -0.2,14.97 -0.39,22.99 -0.49,7.25 -1.15,14.07 -1.85,19.8z"/>
   <path class="fil16" d="M582.93 535.84c-5.67,-0.15 -11.37,-0.31 -17.04,-0.47 -2.56,-0.06 -5.1,-0.13 -7.65,-0.2 1.62,-3.78 3.28,-7.58 4.97,-11.37 6.27,0.17 12.56,0.34 18.84,0.51 0.7,-5.73 1.36,-12.55 1.85,-19.8 -0.24,9.95 -0.56,20.43 -0.97,31.33z"/>
   <path class="fil16" d="M474.06 1179.87c1.14,-0.2 1.91,-5.25 2.42,-13.1l0 0c1.79,-27.63 0.38,-89.94 0.29,-97.67 -0.2,-18.63 -0.72,-37.25 -1.59,-55.86 -0.3,-6.37 -2.89,-14.21 3.44,-17.76 1.83,-1.02 4.39,-1.37 7.19,-1.37 2.79,0 5.83,0.34 8.62,0.67 2.49,0.3 4.79,0.6 6.54,0.66 -7.88,60.61 -13.3,121.54 -16.25,182.59 -3.12,0.54 -6.24,1.08 -9.36,1.61 -0.43,0.08 -0.86,0.15 -1.3,0.23z"/>
   <g>
    <g>
     <polygon class="fil18 str0" points="187.08,641.31 187.08,697.3 169.52,697.3 169.52,641.31 "/>
     <polygon class="fil18 str0" points="262.14,697.3 244.58,697.3 226,669.15 226,697.3 208.44,697.3 208.44,641.31 226,641.31 244.58,669.94 244.58,641.31 262.14,641.31 "/>
     <polygon class="fil18 str0" points="339.89,641.31 321.07,697.3 298.37,697.3 279.54,641.31 298.21,641.31 309.76,679.83 321.23,641.31 "/>
     <polygon class="fil18 str0" points="374.85,655.31 374.85,662.19 392.25,662.19 392.25,675.4 374.85,675.4 374.85,683.3 394.62,683.3 394.62,697.3 357.29,697.3 357.29,641.31 394.62,641.31 394.62,655.31 "/>
     <polygon class="fil18 str0" points="432.27,655.31 432.27,662.19 449.67,662.19 449.67,675.4 432.27,675.4 432.27,683.3 452.05,683.3 452.05,697.3 414.71,697.3 414.71,641.31 452.05,641.31 452.05,655.31 "/>
     <path class="fil18 str1" d="M178.3 603.4c2.28,-4.56 4.56,-6.83 9.11,-6.83 5.03,0 9.12,4.08 9.12,9.11 0,9.11 -9.12,18.22 -18.23,27.33 -9.11,-9.11 -18.22,-18.22 -18.22,-27.33 0,-5.03 4.08,-9.11 9.11,-9.11 4.56,0 6.84,2.27 9.11,6.83z"/>
    </g>
    <path class="fil19" d="M348.4 680.79c-0.12,0.31 -0.06,0.65 0.19,1.02 0.25,0.37 0.49,0.78 0.74,1.21 0.25,0.44 0.42,0.89 0.51,1.35 0.1,0.47 -0.01,0.92 -0.32,1.35 -3.6,6.7 -6.86,14.01 -9.77,21.92 -2.92,7.91 -5.87,16.93 -8.85,27.04 -0.18,0.68 -0.35,1.3 -0.51,1.86 -0.15,0.56 -0.32,1.12 -0.51,1.68 -0.19,0.55 -0.39,1.17 -0.61,1.86 -0.21,0.68 -0.45,1.49 -0.69,2.42 -0.38,0.8 -0.87,1.05 -1.49,0.74 -0.87,-0.37 -1.46,-1.29 -1.77,-2.74 -0.31,-1.46 -0.5,-3.06 -0.56,-4.8 -0.06,-1.73 -0.03,-3.39 0.09,-4.98 0.13,-1.58 0.25,-2.68 0.38,-3.3 0.55,-3.54 1.36,-7.34 2.42,-11.4 1.05,-4.07 2.32,-8.11 3.81,-12.15 1.49,-4.03 3.15,-7.93 4.98,-11.68 1.83,-3.75 3.83,-7.15 6,-10.19 0.31,-0.31 0.5,-0.53 0.56,-0.65 -0.43,-0.19 -1.49,-0.24 -3.16,-0.14 -1.68,0.09 -3.52,0.25 -5.54,0.46 -2.02,0.22 -4,0.5 -5.96,0.84 -1.95,0.34 -3.42,0.67 -4.42,0.98 0.25,0.31 0.78,0.8 1.59,1.49 0.8,0.68 1.56,1.36 2.28,2.04 0.71,0.69 1.14,1.29 1.3,1.82 0.15,0.53 -0.3,0.79 -1.35,0.79 -1.43,0 -2.81,-0.17 -4.14,-0.51 -1.34,-0.34 -2.59,-0.82 -3.77,-1.44 -0.62,-0.31 -1.32,-0.67 -2.1,-1.07 -0.77,-0.41 -1.5,-0.84 -2.18,-1.31 -0.69,-0.46 -1.28,-0.97 -1.77,-1.53 -0.5,-0.56 -0.75,-1.18 -0.75,-1.86 0,-1.74 0.84,-3.05 2.52,-3.91 3.6,-1.74 8.03,-3.08 13.31,-4.01 5.27,-0.93 10.87,-1.5 16.8,-1.72 5.92,-0.22 11.91,-0.11 17.96,0.33 6.05,0.43 11.62,1.12 16.71,2.05 0.31,0.06 0.79,0.21 1.44,0.46 0.65,0.25 1.35,0.56 2.09,0.93 0.75,0.37 1.46,0.76 2.14,1.17 0.69,0.4 1.2,0.8 1.54,1.21 0.34,0.4 0.43,0.75 0.28,1.07 -0.16,0.31 -0.67,0.52 -1.54,0.65 -0.87,0.12 -1.73,0.18 -2.6,0.18 -0.87,0 -1.74,0 -2.61,0 -5.46,0 -10.94,0 -16.43,0 -5.49,0 -10.9,0.16 -16.24,0.47zm21.04 38.25l1.11 -1.11 0.1 0 0 0.18c0.12,1.43 0,2.5 -0.38,3.21 -0.37,0.72 -0.55,1.1 -0.55,1.17 -0.63,0.93 -1.46,2.12 -2.52,3.58 -1.05,1.46 -2.15,2.95 -3.3,4.47 -1.15,1.52 -2.25,2.91 -3.31,4.19 -1.05,1.27 -1.89,2.18 -2.51,2.74 -0.74,0.87 -1.55,1.68 -2.42,2.42 -0.31,0.25 -0.73,0.47 -1.25,0.65 -0.53,0.19 -1.08,0.33 -1.63,0.42 -0.56,0.1 -1.11,0.11 -1.63,0.05 -0.53,-0.06 -0.95,-0.22 -1.26,-0.47 -1.05,-0.68 -1.88,-1.5 -2.47,-2.46 -0.59,-0.96 -0.88,-2 -0.88,-3.12 -0.19,-3.41 0.11,-6.91 0.88,-10.47 0.78,-3.57 1.69,-6.81 2.75,-9.73 0.31,-0.87 0.74,-1.77 1.3,-2.7 0.56,-0.56 1.21,-0.71 1.96,-0.46 0.74,0.25 1.41,0.76 2,1.53 0.59,0.78 1.02,1.72 1.3,2.84 0.28,1.12 0.23,2.24 -0.14,3.35 -0.31,1.06 -0.59,2.07 -0.84,3.03 -0.24,0.96 -0.52,1.97 -0.83,3.02 -0.13,0.5 -0.33,1.21 -0.61,2.14 -0.28,0.93 -0.57,1.91 -0.88,2.93 -0.31,1.03 -0.59,2.01 -0.84,2.94 -0.25,0.93 -0.4,1.64 -0.47,2.14 -0.12,0.93 0.13,1.18 0.75,0.74 0.62,-0.43 1.46,-1.18 2.51,-2.23 2.55,-2.61 4.97,-5.14 7.26,-7.59 2.3,-2.45 4.56,-4.92 6.8,-7.4zm-13.03 -11.17c-0.44,0.44 -0.75,0.44 -0.93,0 -0.81,-1.24 -1.34,-2.54 -1.59,-3.91 -0.25,-1.36 -0.12,-2.73 0.37,-4.09 0.25,-0.81 0.8,-1.47 1.63,-2 0.84,-0.53 1.6,-0.7 2.28,-0.51 0.38,0.12 0.78,0.32 1.21,0.6 0.44,0.28 0.72,0.61 0.84,0.98 0.44,1.67 0.2,3.29 -0.7,4.84 -0.9,1.55 -1.93,2.91 -3.11,4.09zm27.17 10.89c-2.6,2.92 -5.04,5.87 -7.3,8.85 -2.27,2.97 -4.49,5.95 -6.66,8.93 -0.49,0.43 -0.93,0.62 -1.3,0.56 -0.37,-0.06 -0.7,-0.25 -0.98,-0.56 -0.28,-0.31 -0.49,-0.7 -0.65,-1.16 -0.16,-0.47 -0.26,-0.89 -0.33,-1.26 -0.12,-1.12 -0.12,-2.34 0,-3.68 0.13,-1.33 0.25,-2.18 0.38,-2.55 0.24,-1.06 0.57,-2.27 0.97,-3.63 0.41,-1.37 0.83,-2.75 1.26,-4.15 0.43,-1.39 0.85,-2.76 1.26,-4.09 0.4,-1.34 0.79,-2.53 1.16,-3.59 0.25,-0.74 0.68,-1.19 1.3,-1.35 0.62,-0.15 1.23,-0.06 1.82,0.28 0.59,0.34 1.05,0.92 1.39,1.73 0.35,0.8 0.39,1.83 0.14,3.07 -0.24,1.24 -0.52,2.48 -0.83,3.72 -0.31,1.24 -0.59,2.45 -0.84,3.63 1.8,-1.99 3.58,-4.05 5.35,-6.19 1.77,-2.14 3.49,-4.27 5.17,-6.38 0.8,-0.55 1.64,-0.68 2.51,-0.37 0.87,0.31 1.52,1 1.95,2.05 0.5,1.12 0.72,2.26 0.66,3.44 -0.07,1.18 -0.22,2.3 -0.47,3.35 1.8,-1.86 3.91,-3.69 6.33,-5.49 2.42,-1.8 4.78,-3.16 7.07,-4.09 1.12,-0.44 2.14,-0.5 3.07,-0.19 0.93,0.31 1.74,0.89 2.42,1.72 0.69,0.84 1.2,1.87 1.54,3.08 0.34,1.21 0.48,2.46 0.42,3.77 -0.75,1.55 -1.46,3.05 -2.14,4.51 -0.68,1.46 -1.31,2.9 -1.86,4.33 -0.56,1.42 -1.01,2.85 -1.35,4.28 -0.34,1.43 -0.48,2.88 -0.42,4.37 0.43,0.31 1.16,0.13 2.19,-0.56 1.02,-0.68 2.18,-1.58 3.49,-2.69 1.3,-1.12 2.65,-2.3 4.04,-3.54 1.4,-1.24 2.63,-2.3 3.68,-3.17 3.04,-2.42 4.72,-3.44 5.03,-3.07 0.31,0.37 -0.56,1.77 -2.61,4.19 -1.98,2.36 -4.08,4.69 -6.28,6.98 -2.2,2.3 -4.55,4.28 -7.03,5.96 -0.8,0.56 -1.74,0.85 -2.79,0.88 -1.06,0.03 -2.1,-0.15 -3.12,-0.56 -1.02,-0.4 -1.91,-1.02 -2.65,-1.86 -0.75,-0.83 -1.18,-1.87 -1.31,-3.12 -0.18,-1.61 -0.07,-3.31 0.33,-5.11 0.4,-1.8 0.95,-3.59 1.63,-5.36 0.68,-1.76 1.46,-3.49 2.33,-5.16 0.87,-1.68 1.67,-3.23 2.42,-4.66 -0.19,-0.49 -0.89,-0.32 -2.1,0.52 -1.21,0.83 -2.68,2 -4.42,3.49 -1.74,1.49 -3.57,3.16 -5.49,5.02 -1.92,1.86 -3.69,3.57 -5.31,5.12 -0.68,0.62 -1.19,1.01 -1.53,1.16 -0.34,0.16 -0.64,0.24 -0.88,0.24 -0.63,0 -1.03,-0.51 -1.22,-1.54 -0.18,-1.02 -0.26,-2.2 -0.23,-3.53 0.03,-1.34 0.14,-2.64 0.33,-3.91 0.18,-1.28 0.34,-2.16 0.46,-2.66zm33.98 11.64c-0.13,-2.36 0.12,-4.81 0.74,-7.36 0.62,-2.54 1.55,-4.88 2.79,-7.02 1.24,-2.14 2.81,-3.9 4.7,-5.26 1.9,-1.37 4.11,-2.08 6.66,-2.14 1.3,0.31 2.31,0.96 3.02,1.95 0.72,1 0.92,2.21 0.61,3.63 -0.25,1.37 -0.61,2.53 -1.07,3.49 -0.47,0.97 -1.26,1.97 -2.38,3.03 -0.55,0.49 -1.33,1.15 -2.32,1.95 -1,0.81 -1.96,1.65 -2.89,2.51 -0.93,0.87 -1.74,1.76 -2.42,2.66 -0.68,0.9 -1.02,1.66 -1.02,2.28 -0.19,1.61 0.06,2.65 0.74,3.12 0.69,0.46 1.57,0.65 2.66,0.55 1.08,-0.09 2.18,-0.38 3.3,-0.88 1.12,-0.5 2.02,-0.93 2.7,-1.3 0.81,-0.56 1.7,-1.26 2.7,-2.1 0.99,-0.83 1.98,-1.72 2.98,-2.65 0.99,-0.93 1.95,-1.83 2.88,-2.7 0.93,-0.87 1.71,-1.58 2.33,-2.14 0.49,-0.5 0.95,-0.96 1.35,-1.4 0.4,-0.43 0.88,-0.8 1.44,-1.11 0.5,-0.13 0.88,-0.16 1.16,-0.1 0.28,0.07 0.24,0.53 -0.13,1.4 -0.5,1.06 -1.11,2.05 -1.82,2.98 -0.71,0.93 -1.47,1.86 -2.28,2.79 -1.12,1.24 -2.31,2.55 -3.58,3.91 -1.28,1.37 -2.61,2.62 -4.01,3.77 -1.39,1.15 -2.85,2.14 -4.37,2.98 -1.52,0.84 -3.09,1.38 -4.7,1.63 -2.86,0.18 -5.2,-0.41 -7.03,-1.77 -1.83,-1.37 -2.74,-3.6 -2.74,-6.7zm14.89 -17.5c-1.68,0.62 -3,1.43 -3.96,2.42 -0.96,0.99 -1.66,2.45 -2.09,4.37 1.36,-0.99 2.59,-2 3.67,-3.02 1.09,-1.02 1.88,-2.28 2.38,-3.77z"/>
   </g>
  </g>
 </g>
</svg>
