<?xml version="1.0" encoding="UTF-8"?>
<!DOCTYPE svg PUBLIC "-//W3C//DTD SVG 1.1//EN" "http://www.w3.org/Graphics/SVG/1.1/DTD/svg11.dtd">
<!-- Creator: CorelDRAW -->
<svg xmlns="http://www.w3.org/2000/svg" xml:space="preserve" width="598px" height="1309px" version="1.1" style="shape-rendering:geometricPrecision; text-rendering:geometricPrecision; image-rendering:optimizeQuality; fill-rule:evenodd; clip-rule:evenodd"
viewBox="0 0 596.32 1306.26"
 xmlns:xlink="http://www.w3.org/1999/xlink"
 xmlns:xodm="http://www.corel.com/coreldraw/odm/2003">
 <defs>
  <style type="text/css">
   <![CDATA[
    .str0 {stroke:#2923E8;stroke-width:3.34;stroke-miterlimit:22.9256}
    .str1 {stroke:#2923E8;stroke-width:3.34;stroke-miterlimit:22.9256}
    .fil33 {fill:none;fill-rule:nonzero}
    .fil12 {fill:#FEFEFE}
    .fil19 {fill:#EF8A8A}
    .fil7 {fill:#F8FAFC}
    .fil11 {fill:#EDF0D7}
    .fil18 {fill:#D65256}
    .fil6 {fill:#D5D3E9}
    .fil0 {fill:#BAB9DC}
    .fil1 {fill:#435988}
    .fil15 {fill:#FDF5F3;fill-rule:nonzero}
    .fil16 {fill:#FBE0D8;fill-rule:nonzero}
    .fil28 {fill:#FADACE;fill-rule:nonzero}
    .fil4 {fill:#FAD9DC;fill-rule:nonzero}
    .fil22 {fill:#FAD8CD;fill-rule:nonzero}
    .fil8 {fill:#F2A09F;fill-rule:nonzero}
    .fil24 {fill:#EF8C82;fill-rule:nonzero}
    .fil31 {fill:#ED786F;fill-rule:nonzero}
    .fil9 {fill:#EC716E;fill-rule:nonzero}
    .fil25 {fill:#EB645A;fill-rule:nonzero}
    .fil14 {fill:#FAE5DE;fill-rule:nonzero}
    .fil13 {fill:#F7D0C1;fill-rule:nonzero}
    .fil29 {fill:#F6C5B4;fill-rule:nonzero}
    .fil3 {fill:#F8F9E8;fill-rule:nonzero}
    .fil10 {fill:#E55D56;fill-rule:nonzero}
    .fil27 {fill:#ECD1AD;fill-rule:nonzero}
    .fil26 {fill:#DD5349;fill-rule:nonzero}
    .fil20 {fill:#EDF0D7;fill-rule:nonzero}
    .fil17 {fill:#D65256;fill-rule:nonzero}
    .fil30 {fill:#CF4847;fill-rule:nonzero}
    .fil5 {fill:#D5D3E9;fill-rule:nonzero}
    .fil23 {fill:#D4B6C6;fill-rule:nonzero}
    .fil2 {fill:#C8DBEF;fill-rule:nonzero}
    .fil32 {fill:#5A3837;fill-rule:nonzero}
    .fil21 {fill:#5B4243;fill-rule:nonzero}
    .fil34 {fill:#3FAB18;fill-rule:nonzero}
   ]]>
  </style>
 </defs>
 <g id="Layer_x0020_1">
  <metadata id="CorelCorpID_0Corel-Layer"/>
  <g id="_2875065829984">
   <path class="fil0" d="M129.41 1266.22c0.33,4.19 0.75,8.59 3.3,12.07 3.34,4.52 9.46,6.37 15.16,7.83 104.14,26.76 214.56,22.67 321.98,11.63 3.99,-0.41 8.44,-1.07 10.83,-4.04 1.69,-2.08 1.95,-4.83 2.15,-7.42 1.46,-19.14 2.93,-21.62 4.4,-40.77 -91.06,8.83 -176.33,6.57 -266.09,6.42 -22.19,-0.04 -74.28,-13.89 -96.23,-15.24 0,0 2.52,4.75 4.5,29.52z"/>
   <polygon class="fil1" points="256.39,963.28 204.95,957.83 306.45,0 357.9,5.45 "/>
   <polygon class="fil2" points="356.77,16.08 300.6,55.22 294.18,115.82 350.35,76.69 "/>
   <polygon class="fil2" points="343.7,139.39 287.53,178.53 281.11,239.14 337.28,200 "/>
   <polygon class="fil3" points="330.19,266.91 274.02,306.05 267.6,366.66 323.76,327.52 "/>
   <polygon class="fil4" points="317.12,390.22 260.95,429.36 254.53,489.96 310.69,450.83 "/>
   <polygon class="fil4" points="303.24,521.19 247.07,560.32 240.65,620.93 296.82,581.79 "/>
   <polygon class="fil4" points="290.17,644.49 234.01,683.63 227.58,744.24 283.75,705.1 "/>
   <polygon class="fil4" points="276.66,772.01 220.49,811.15 214.07,871.76 270.23,832.62 "/>
   <polygon class="fil4" points="263.59,895.33 207.42,934.46 204.95,957.83 247.91,962.39 257.17,955.93 "/>
   <path class="fil5" d="M51.75 400.1c-0.45,-4.65 -0.67,-9.21 -0.67,-13.67 0,-20.16 4.45,-38.49 12.54,-55.79 8.08,-17.28 19.87,-33.52 34.57,-49.16 5.73,-6.12 15.53,-13.69 25.73,-20.79 10.2,-7.12 20.83,-13.87 28.59,-18.88 15.26,-9.91 38.37,-18.53 62.26,-24.57 23.89,-6.08 48.66,-9.66 67.31,-10.03 5.57,-0.11 10.76,-0.16 15.65,-0.16 21.54,0 37.13,1.09 53.39,3.52 16.26,2.44 33.27,6.25 57.32,11.72 3.37,0.75 9.45,2.84 16.6,5.86 10.77,4.55 24.21,11.24 36.55,18.9 12.33,7.63 23.58,16.36 29.88,24.38 30.93,39.13 51.93,86.46 54.61,135.8 0.17,3.17 2.88,5.6 6.05,5.43 3.17,-0.17 5.6,-2.89 5.43,-6.05 -2.86,-52.22 -24.94,-101.66 -57.07,-142.31 -5.21,-6.58 -12.31,-12.77 -20.3,-18.61 -11.99,-8.74 -26.01,-16.59 -38.64,-22.68 -6.32,-3.04 -12.28,-5.63 -17.48,-7.66 -5.21,-2.03 -9.61,-3.48 -13.08,-4.28 -24.05,-5.46 -41.31,-9.34 -58.16,-11.87 -16.85,-2.53 -33.19,-3.66 -55.1,-3.66 -4.98,0 -10.25,0.06 -15.88,0.17 -19.86,0.41 -45.22,4.12 -69.91,10.38 -24.69,6.29 -48.61,15.05 -65.68,26.06 -7.69,4.98 -18.45,11.81 -28.93,19.11 -10.49,7.34 -20.66,15.06 -27.52,22.34 -15.32,16.3 -27.87,33.5 -36.61,52.17 -8.74,18.66 -13.63,38.8 -13.62,60.66 0,4.84 0.24,9.76 0.72,14.78 0.31,3.15 3.12,5.47 6.28,5.16 3.16,-0.3 5.47,-3.11 5.17,-6.27l0 0z"/>
   <path class="fil5" d="M119.66 1230.85l-1.79 5.82c62.55,19.29 132.3,26.29 200.68,26.3 60.32,0 119.58,-5.47 171.87,-12.9l4.11 -0.58 0.96 -4.03c10.97,-46.01 15.76,-92.72 20.53,-139.03 1.39,-13.53 5.22,-44.67 10.16,-86.34 7.41,-62.53 17.34,-148.86 25.43,-235.88 8.08,-87.02 14.32,-174.67 14.32,-240.08 0,-4.29 -0.03,-8.49 -0.08,-12.58l-0.08 -5.86 -5.85 -0.15c-41.44,-1.06 -82.92,-1.42 -124.41,-1.42 -89.15,0 -178.37,1.67 -267.37,1.67 -41.4,0 -82.76,-0.36 -124.05,-1.42l-6.39 -0.16 0.15 6.39c0.86,36.32 5.01,90.93 10.99,154.37 17.97,190.3 52.51,459.78 64.8,546.73l0.54 3.83 3.69 1.14 1.79 -5.82 6.03 -0.85c-8.17,-57.8 -26.25,-196.87 -42.71,-339.42 -8.22,-71.28 -16.04,-143.44 -22.02,-206.75 -5.97,-63.3 -10.1,-117.79 -10.94,-153.52l-6.08 0.15 -0.16 6.08c41.42,1.06 82.89,1.42 124.36,1.42 89.16,0 178.37,-1.67 267.37,-1.67 41.42,0 82.8,0.36 124.1,1.42l0.15 -6.08 -6.08 0.08c0.05,4.04 0.08,8.18 0.08,12.42 0,86.24 -11.04,212.94 -22.8,324.74 -5.88,55.91 -11.94,108.13 -16.87,149.78 -4.94,41.68 -8.76,72.72 -10.18,86.53 -4.76,46.31 -9.53,92.49 -20.27,137.45l5.93 1.41 -0.86 -6.02c-51.85,7.37 -110.57,12.78 -170.16,12.78 -67.55,0 -136.19,-6.97 -197.1,-25.77l-1.79 5.82 6.03 -0.85 -6.03 0.85z"/>
   <path class="fil5" d="M335.46 216.99l-1.22 11.59c8.79,2.54 13.14,7.25 12.94,9.64 -0.13,1.68 -4.41,5.02 -16.64,4.73l-45.66 -1.16c-12.16,-0.31 -24.73,-0.63 -36.17,-4.25 -2.15,-0.68 -4.78,-1.66 -6.13,-3.24 -0.66,-0.76 -0.8,-1.73 -0.73,-2.08 5.52,-5.45 21.47,-7.84 40.63,-8l1.23 -11.58c-20.64,0.04 -41.95,2.65 -50.64,12.12l-0.31 0.38c-3.62,4.68 -3.17,11.69 1.08,16.64 3.24,3.79 7.79,5.58 11.4,6.72 12.99,4.11 26.39,4.45 39.35,4.79l45.66 1.16c0.64,0.01 1.26,0.02 1.88,0.02 23.41,0 26.22,-11.67 26.51,-15.32 0.79,-9.68 -8.9,-18.64 -23.18,-22.16z"/>
   <path class="fil6" d="M198.48 270.37c-41.12,12.89 -77.22,41.14 -99.62,77.95 -0.61,-4.66 -8.18,-4.06 -11.04,-7.78 -2.31,-2.99 -0.62,-7.28 1.11,-10.62 4.16,-8 8.32,-15.99 12.48,-23.99 4.69,-9.03 9.42,-18.12 15.74,-26.1 11.46,-14.49 28.02,-24.7 45.74,-29.63 6.62,-1.85 14.8,-4.69 21.22,-1.2 3.5,1.9 12.83,21.85 14.37,21.37z"/>
   <path class="fil7" d="M499.11 492.72c4.07,0.04 9.72,4.17 6.39,6.52 -78.4,3.88 -163.43,11.95 -241.43,2.29 -4.39,-18.24 91.58,-10.13 106.75,-10 42.77,0.4 85.53,0.68 128.29,1.19z"/>
   <path class="fil8" d="M529 457.8c-151.44,-4.14 -309.36,-1.15 -460.8,-5.29 1.67,75.26 19.3,266.74 37.16,441.15 7.18,70.15 14.39,137.46 20.62,193.4 -0.4,-0.07 -0.76,-0.1 -1.07,-0.07 3.27,28.24 13.8,110.18 15.79,125.17 102.52,33.79 228.38,27.33 326.42,12.44 1.96,-8.73 5.34,-32.7 8.69,-57.99 0.46,0.1 0.9,0.21 1.36,0.31 3.25,-24.14 5.63,-48.42 7.96,-72.66 2.1,-21.77 10.27,-106.69 19,-210.14 12.45,-147.42 26.06,-332.49 24.87,-426.32z"/>
   <path class="fil9" d="M499.89 767.46c-7.15,5.74 -16.89,3.56 -24.85,-0.44 -7.96,-3.99 -15.62,-9.65 -24.25,-10.42 -18.89,-1.7 -33.73,20 -52.42,23.62 -17.76,3.44 -34.36,-9.86 -51.66,-15.7 -20.15,-6.8 -42.68,-3.05 -60.45,10.06 -5.05,3.73 -9.8,8.21 -15.41,10.59 -12.21,5.17 -25.26,-0.48 -38.15,-6.13 -14.13,-6.19 -28.08,-12.37 -40.55,-4.33 -10.54,6.78 -16.34,22.33 -27.89,26.17 -11.8,3.92 -23.23,-6.1 -33.66,-13.71 -10.43,-7.62 -25.9,-12.29 -33.49,-0.94 -0.05,6.42 0.09,12.82 0.29,19.22 2.9,29.47 5.88,59.08 8.86,88.21 0.52,5.07 1.04,10.11 1.55,15.15 5.98,42.62 22.01,216.48 23.77,232.3 -0.39,-0.06 9.53,-18.05 14.51,-16.79 26.5,6.69 42.41,-3.52 67.98,-7.77 28.11,-4.69 55.41,11.16 83.79,13.79 28.72,2.67 56.71,-8.28 85.03,-13.73 33.26,-6.4 67.38,-5.22 101.26,-3.1 0.64,-6.42 1.26,-12.84 1.88,-19.25 2.1,-21.77 10.27,-106.69 19.01,-210.14 3.34,-39.57 6.76,-81.85 9.96,-124.35 -0.63,-0.43 -1.33,-0.75 -2.12,-0.9 -5.06,-0.97 -8.75,5.19 -12.99,8.59z"/>
   <path class="fil10" d="M381.99 1116.61c-28.32,5.45 -56.31,16.4 -85.03,13.73 -28.37,-2.63 -55.67,-18.48 -83.79,-13.79 -25.58,4.25 -41.48,14.46 -67.98,7.77 -4.98,-1.26 -10.58,-3.08 -16.26,-4.34 4.4,35.26 10.33,81.32 11.77,92.18 102.52,33.79 228.38,27.33 326.42,12.44 1.96,-8.73 5.34,-32.7 8.69,-57.99 0.46,0.1 0.9,0.21 1.36,0.31 2.39,-17.76 4.31,-35.58 6.08,-53.41 -33.88,-2.12 -68,-3.3 -101.26,3.1z"/>
   <path class="fil11" d="M424.41 621.9c-0.53,-17.27 13.04,-31.7 30.3,-32.24 17.27,-0.53 31.7,13.03 32.24,30.3 0.54,17.27 -13.03,31.7 -30.3,32.24 -17.26,0.53 -31.7,-13.03 -32.24,-30.3z"/>
   <path class="fil12" d="M455.42 636.36c-0.12,-4.17 3.15,-7.65 7.32,-7.77 4.16,-0.13 7.65,3.14 7.77,7.31 0.13,4.16 -3.14,7.65 -7.31,7.77 -4.16,0.13 -7.65,-3.14 -7.78,-7.31z"/>
   <path class="fil11" d="M447.58 948.95c1.96,17.16 -10.36,32.67 -27.53,34.63 -17.17,1.96 -32.67,-10.37 -34.63,-27.53 -1.96,-17.17 10.36,-32.67 27.53,-34.63 17.17,-1.97 32.67,10.36 34.63,27.53z"/>
   <path class="fil12" d="M415.48 937.1c0.48,4.14 -2.5,7.88 -6.64,8.35 -4.14,0.48 -7.88,-2.5 -8.36,-6.64 -0.47,-4.15 2.5,-7.88 6.65,-8.36 4.14,-0.47 7.88,2.51 8.35,6.65z"/>
   <path class="fil11" d="M464.21 819.05c-17.26,0.68 -31.81,-12.76 -32.5,-30.02 -0.68,-17.26 12.75,-31.81 30.02,-32.5 17.26,-0.69 31.81,12.75 32.5,30.02 0.68,17.26 -12.75,31.81 -30.02,32.5z"/>
   <path class="fil12" d="M478.41 787.91c-4.17,0.17 -7.68,-3.08 -7.85,-7.24 -0.16,-4.17 3.08,-7.68 7.25,-7.84 4.16,-0.17 7.68,3.08 7.84,7.24 0.17,4.16 -3.08,7.68 -7.24,7.84z"/>
   <path class="fil11" d="M227.68 927.01c-2.2,16.12 -17.06,27.42 -33.19,25.21 -16.12,-2.2 -27.42,-17.05 -25.21,-33.18 2.19,-16.13 17.05,-27.42 33.18,-25.22 16.13,2.2 27.42,17.06 25.22,33.19z"/>
   <path class="fil12" d="M201.13 908.72c-0.53,3.89 -4.12,6.62 -8.01,6.09 -3.89,-0.54 -6.61,-4.12 -6.09,-8.01 0.54,-3.89 4.12,-6.61 8.01,-6.08 3.9,0.52 6.62,4.11 6.09,8z"/>
   <path class="fil11" d="M202.11 682.93c12.25,10.71 13.49,29.33 2.77,41.58 -10.72,12.25 -29.34,13.49 -41.59,2.77 -12.25,-10.72 -13.49,-29.34 -2.77,-41.59 10.73,-12.25 29.34,-13.48 41.59,-2.76z"/>
   <path class="fil12" d="M172.23 695.01c2.95,2.59 3.25,7.08 0.67,10.04 -2.59,2.95 -7.09,3.25 -10.04,0.67 -2.95,-2.59 -3.25,-7.09 -0.67,-10.04 2.59,-2.95 7.08,-3.25 10.04,-0.67z"/>
   <path class="fil11" d="M363.11 839.92c12.25,10.72 13.49,29.34 2.77,41.58 -10.72,12.25 -29.34,13.49 -41.59,2.77 -12.24,-10.72 -13.48,-29.34 -2.76,-41.59 10.72,-12.25 29.34,-13.49 41.58,-2.76z"/>
   <path class="fil12" d="M333.23 852.01c2.95,2.59 3.26,7.08 0.67,10.03 -2.59,2.96 -7.09,3.25 -10.04,0.67 -2.95,-2.59 -3.25,-7.08 -0.67,-10.04 2.59,-2.95 7.08,-3.25 10.04,-0.66z"/>
   <path class="fil11" d="M259.96 778.61c-1.71,12.85 -13.51,21.89 -26.37,20.19 -12.84,-1.71 -21.88,-13.51 -20.18,-26.37 1.71,-12.85 13.51,-21.88 26.36,-20.18 12.85,1.71 21.89,13.51 20.19,26.36z"/>
   <path class="fil12" d="M238.75 764.13c-0.41,3.09 -3.26,5.27 -6.36,4.86 -3.1,-0.41 -5.28,-3.25 -4.87,-6.35 0.41,-3.11 3.26,-5.29 6.36,-4.88 3.1,0.42 5.28,3.26 4.87,6.37z"/>
   <path class="fil13" d="M137.75 330.89c-8.22,4.96 -16.5,10.24 -22.42,17.71 -4.6,5.82 -7.54,12.68 -11.25,19.08 -6.26,10.83 -14.77,20.4 -24.85,27.96 -6.79,5.09 -14.53,9.52 -18.92,16.71 -3.42,5.59 -4.42,12.25 -5.13,18.73 -2.66,24.11 -2.34,48.53 0.97,72.56 1.9,13.82 5.69,28.94 17.46,36.8 11.34,7.57 26.37,5.96 39.94,4.04 9.03,-1.27 18.59,-2.77 25.51,-8.58 8.95,-7.5 11.11,-20.28 10.27,-31.79 -0.84,-11.51 -4.07,-22.87 -3.51,-34.39 0.8,-16.23 9.02,-31.17 18.12,-44.76 10.9,-16.28 23.63,-31.81 40.13,-42.66 10.6,-6.97 22.5,-11.85 33.28,-18.56 19.49,-12.14 34.56,-30.58 43.3,-51.46 3.58,-8.57 17.39,-54.7 3.48,-56.5 -4.83,-0.62 -22.32,15.7 -27.48,18.17 -12.57,6.01 -26.16,10.23 -38.96,15.78 -27.56,11.93 -54.28,25.68 -79.94,41.16z"/>
   <path class="fil14" d="M231.44 343.66c-23.58,14.41 -52.5,20.06 -73.7,37.67 -30.34,25.21 -37.25,68.37 -35.67,107.32 0.32,7.84 0.99,16.01 5.12,22.73 4.15,6.76 11.24,11.19 18.21,15.14 14.52,8.22 30.3,15.56 47.07,15.74 18.34,0.19 36,-8.23 54.33,-7.63 12.72,0.42 26.01,5.09 37.74,0.27 10.84,-4.45 17.01,-16.02 18.94,-27.37 1.94,-11.36 0.51,-22.98 0.79,-34.49 0.51,-20.66 6.68,-41.15 17.68,-58.78 6.09,-9.75 13.62,-18.62 19.12,-28.7 11.05,-20.24 12.9,-44.4 7.57,-66.54 -4.43,-18.41 -18.52,-51.35 -37.5,-60.01 -20.32,-9.25 -28.69,18.14 -35.48,32.24 -10.24,21.29 -23.46,39.72 -44.22,52.41z"/>
   <path class="fil13" d="M307.91 300.66c0,26.09 -5.66,52.16 -16.5,75.99 -8.62,18.94 -20.43,36.42 -28.12,55.73 -6.06,15.23 -9.46,31.46 -10.03,47.79 -0.69,20.05 4.86,43.02 22.96,52.38 24.51,12.68 53.08,-7.06 80.72,-9.09 13.08,-0.95 26.08,2.18 39.16,3.09 13.09,0.9 27.41,-0.91 36.83,-9.86 6.37,-6.05 9.62,-14.56 11.8,-22.99 10.74,-41.51 -0.65,-86.23 -22.45,-123.35 -21.79,-37.12 -53.25,-67.78 -85.28,-96.91 -6.91,-6.29 -26.97,-28.26 -35.21,-15.13 -4.53,7.22 6.12,32.76 6.12,42.35z"/>
   <path class="fil13" d="M350.35 269.02c2.61,14.03 19.5,16.88 33.53,20.7 14.02,3.82 28.95,3.94 42.76,8.47 12.63,4.14 23.71,11.77 34.6,19.29 31.74,21.95 65.38,46.34 77.56,82.49 6.59,19.56 6.1,40.69 4.57,61.23 -0.64,8.62 -2.15,18.43 -9.53,23.17 -1.27,0.81 -2.75,1.45 -4.26,1.34 -3.61,-0.27 -5.46,-4.24 -6.64,-7.59 -17.44,-49.44 -52.03,-92.9 -96.72,-121.52 -12.03,-7.7 -24.83,-14.41 -35.6,-23.73 -10.78,-9.32 -19.56,-21.9 -20.42,-35.95l-19.85 -27.9z"/>
   <path class="fil14" d="M415.38 319.51c14.74,7.4 30.58,12.52 45.24,20.06 43.17,22.21 73.91,66.15 79.47,113.61 2.29,19.49 -0.29,41.27 -14.65,54.94 -15.78,15.04 -40.32,15.67 -62.32,15.07 -4.44,-0.12 -9.04,-0.29 -13,-2.24 -13.14,-6.5 -10.14,-25.11 -9.07,-39.49 1.74,-23.29 -7.12,-46.27 -19.54,-66.2 -12.42,-19.92 -28.36,-37.48 -42.68,-56.14 -10.88,-14.18 -62.58,-77.96 -45.17,-93.46 14.34,-12.76 27.35,10.09 35.1,18.54 13.22,14.42 29,26.47 46.62,35.31z"/>
   <path class="fil15" d="M227.74 366.87c-14.83,7.99 -30.75,14.19 -44.34,24.15 -13.59,9.97 -24.95,24.85 -25.34,41.69 -0.06,2.43 0.12,4.9 1.02,7.15 3.28,8.11 13.82,9.81 22.55,10.3 2.2,0.12 4.65,0.15 6.26,-1.34 1.57,-1.45 1.78,-3.8 1.98,-5.93 1.01,-10.69 4.58,-21.25 10.99,-29.87 10.39,-14 26.96,-21.67 42.1,-30.32 6.7,-3.82 50.17,-35.86 33.94,-46.6 -8.74,-5.79 -41.52,26.67 -49.16,30.77z"/>
   <path class="fil16" d="M153.1 332.44c-9.03,5.52 -18.1,12.71 -20.81,22.95 10.29,2.61 21.2,-0.64 30.74,-5.3 9.54,-4.66 18.41,-10.76 28.39,-14.41 9.17,-3.35 19.26,-4.62 27.45,-9.94 17.79,-11.56 16.25,-26.9 -5.87,-20.06 -20.49,6.33 -41.6,15.58 -59.9,26.76z"/>
   <path class="fil16" d="M373.15 402.8c5.09,4.86 10.18,9.72 15.26,14.59 2.37,2.26 4.84,4.59 7.93,5.66 3.09,1.07 7,0.52 8.89,-2.15 3.42,-4.83 -1.82,-10.89 -6.17,-14.9 -10.06,-9.27 -34.61,-60.1 -46.79,-58.69 -28.87,3.34 15.25,50.11 20.88,55.49z"/>
   <path class="fil15" d="M437.1 339.53c15.58,9.45 30.97,21.83 36.18,39.29 -9.32,2.16 -19.71,-1.23 -25.96,-8.48 -1.68,-1.96 -3.08,-4.17 -4.85,-6.06 -2.49,-2.67 -5.64,-4.63 -8.72,-6.58 -8.66,-5.49 -17.16,-11.24 -25.5,-17.22 -4.98,-3.57 -10,-7.33 -13.52,-12.35 -10.38,-14.81 -2.96,-15.46 8.5,-9.59 11.43,5.84 22.8,14.28 33.87,20.99z"/>
   <path class="fil17" d="M374.98 319.61c-4.8,2.95 -8.2,9.28 -13,12.23 -1.2,0.74 -2.55,1.74 -2.53,3.14 0.02,0.93 0.65,1.72 1.25,2.43 1.42,1.68 2.84,3.36 4.26,5.04 0.76,0.89 1.68,1.85 2.83,1.81 0.86,-0.03 1.59,-0.61 2.24,-1.17 5.15,-4.37 10.3,-8.75 15.44,-13.13 -3.89,-3.02 -7.41,-6.5 -10.49,-10.35z"/>
   <path class="fil17" d="M478.5 366.11c-4.8,2.95 -8.2,9.28 -13.01,12.23 -1.2,0.74 -2.54,1.74 -2.52,3.15 0.02,0.93 0.65,1.71 1.25,2.43 1.42,1.67 2.84,3.36 4.26,5.03 0.75,0.89 1.67,1.86 2.83,1.81 0.85,-0.02 1.58,-0.61 2.23,-1.17 5.16,-4.37 10.3,-8.75 15.45,-13.13 -3.89,-3.02 -7.42,-6.5 -10.49,-10.35z"/>
   <path class="fil17" d="M391.43 440.09c-3.15,1.94 -5.38,6.09 -8.52,8.02 -0.79,0.48 -1.68,1.14 -1.66,2.06 0.01,0.61 0.43,1.13 0.82,1.59 0.93,1.1 1.86,2.21 2.79,3.31 0.49,0.58 1.09,1.21 1.85,1.18 0.57,-0.02 1.04,-0.4 1.47,-0.77 3.37,-2.87 6.75,-5.73 10.12,-8.6 -2.55,-1.98 -4.86,-4.27 -6.87,-6.79z"/>
   <path class="fil17" d="M235.68 425.12c-1.97,-3.13 -6.14,-5.3 -8.12,-8.43 -0.49,-0.78 -1.15,-1.66 -2.07,-1.63 -0.61,0.02 -1.13,0.44 -1.59,0.83 -1.09,0.95 -2.18,1.89 -3.27,2.84 -0.57,0.5 -1.2,1.1 -1.16,1.86 0.02,0.57 0.42,1.04 0.79,1.46 2.9,3.34 5.81,6.68 8.71,10.02 1.95,-2.57 4.21,-4.91 6.71,-6.95z"/>
   <path class="fil17" d="M267.93 293.72c-4.8,2.95 -8.2,9.28 -13.01,12.23 -1.19,0.74 -2.54,1.74 -2.52,3.14 0.02,0.93 0.65,1.72 1.25,2.43 1.42,1.69 2.84,3.36 4.26,5.05 0.76,0.88 1.67,1.85 2.83,1.8 0.86,-0.03 1.59,-0.61 2.24,-1.17 5.15,-4.37 10.29,-8.75 15.44,-13.12 -3.89,-3.03 -7.41,-6.51 -10.49,-10.36z"/>
   <path class="fil17" d="M329.38 380.27c-4.8,2.96 -8.2,9.28 -13,12.24 -1.2,0.74 -2.55,1.73 -2.53,3.14 0.02,0.93 0.65,1.72 1.25,2.43 1.42,1.68 2.85,3.36 4.26,5.04 0.75,0.88 1.67,1.85 2.83,1.81 0.86,-0.03 1.59,-0.62 2.24,-1.17 5.15,-4.38 10.29,-8.75 15.44,-13.13 -3.89,-3.03 -7.41,-6.51 -10.49,-10.36z"/>
   <path class="fil17" d="M153.62 366.58c-5.23,-2.11 -12.34,-1.07 -17.57,-3.17 -1.31,-0.53 -2.91,-1.03 -4.03,-0.17 -0.74,0.57 -0.99,1.55 -1.21,2.45 -0.5,2.14 -1.01,4.28 -1.51,6.43 -0.27,1.13 -0.5,2.44 0.22,3.34 0.54,0.68 1.44,0.91 2.27,1.1 6.59,1.54 13.16,3.08 19.74,4.61 0.12,-4.92 0.82,-9.83 2.09,-14.59z"/>
   <path class="fil17" d="M191.54 342.76c-3.83,2.35 -6.54,7.4 -10.38,9.75 -0.95,0.6 -2.03,1.39 -2.01,2.51 0.01,0.75 0.51,1.37 0.99,1.94 1.14,1.34 2.27,2.68 3.4,4.02 0.6,0.71 1.34,1.48 2.26,1.45 0.68,-0.03 1.27,-0.5 1.79,-0.94 4.1,-3.49 8.21,-6.98 12.32,-10.48 -3.1,-2.41 -5.92,-5.19 -8.37,-8.25z"/>
   <path class="fil17" d="M187.34 298.14c-3.82,2.35 -6.54,7.41 -10.37,9.76 -0.96,0.59 -2.04,1.38 -2.02,2.51 0.02,0.74 0.52,1.37 1,1.94 1.14,1.33 2.27,2.68 3.4,4.02 0.6,0.7 1.33,1.47 2.26,1.44 0.68,-0.02 1.26,-0.49 1.78,-0.93 4.11,-3.5 8.22,-6.99 12.33,-10.48 -3.11,-2.41 -5.93,-5.19 -8.38,-8.26z"/>
   <path class="fil17" d="M251.86 343.65c-5.3,-1.92 -12.37,-0.63 -17.67,-2.55 -1.32,-0.48 -2.95,-0.92 -4.03,-0.01 -0.72,0.58 -0.94,1.57 -1.12,2.48 -0.43,2.16 -0.86,4.32 -1.29,6.48 -0.22,1.13 -0.41,2.45 0.35,3.33 0.56,0.66 1.47,0.86 2.31,1.03 6.63,1.29 13.26,2.6 19.89,3.89 -0.06,-4.92 0.47,-9.85 1.56,-14.65z"/>
   <path class="fil17" d="M341.33 311.08c-5.3,-1.92 -12.37,-0.64 -17.67,-2.56 -1.32,-0.48 -2.94,-0.92 -4.03,-0.02 -0.71,0.59 -0.94,1.57 -1.12,2.49 -0.44,2.15 -0.87,4.31 -1.3,6.47 -0.22,1.13 -0.41,2.45 0.35,3.33 0.56,0.66 1.46,0.86 2.31,1.03 6.63,1.31 13.25,2.61 19.88,3.92 -0.05,-4.92 0.48,-9.86 1.58,-14.66z"/>
   <path class="fil17" d="M301.83 356.25c-3.04,-1.1 -7.09,-0.37 -10.13,-1.47 -0.76,-0.28 -1.69,-0.53 -2.32,-0.02 -0.41,0.34 -0.53,0.91 -0.64,1.43 -0.25,1.24 -0.49,2.47 -0.74,3.71 -0.13,0.66 -0.24,1.41 0.19,1.92 0.32,0.37 0.85,0.49 1.33,0.59 3.8,0.75 7.61,1.49 11.41,2.25 -0.03,-2.83 0.27,-5.66 0.9,-8.41z"/>
   <path class="fil17" d="M234.11 331.1c1.11,-3.03 0.39,-7.09 1.5,-10.13 0.28,-0.76 0.53,-1.68 0.02,-2.31 -0.34,-0.41 -0.91,-0.54 -1.43,-0.65 -1.23,-0.25 -2.47,-0.5 -3.71,-0.75 -0.65,-0.13 -1.4,-0.24 -1.91,0.19 -0.38,0.32 -0.5,0.84 -0.59,1.33 -0.77,3.8 -1.52,7.59 -2.28,11.39 2.82,-0.02 5.65,0.3 8.4,0.93z"/>
   <path class="fil17" d="M229 297.04c1.11,-3.04 0.39,-7.1 1.5,-10.13 0.28,-0.76 0.53,-1.69 0.02,-2.32 -0.34,-0.41 -0.9,-0.54 -1.43,-0.64 -1.23,-0.25 -2.47,-0.51 -3.71,-0.76 -0.65,-0.13 -1.4,-0.23 -1.91,0.2 -0.38,0.31 -0.5,0.83 -0.6,1.32 -0.75,3.8 -1.51,7.6 -2.27,11.4 2.82,-0.02 5.65,0.29 8.4,0.93z"/>
   <path class="fil17" d="M348.3 340.95c-3.04,-1.1 -7.09,-0.37 -10.13,-1.47 -0.76,-0.27 -1.69,-0.53 -2.32,-0.01 -0.4,0.33 -0.54,0.9 -0.64,1.42 -0.25,1.24 -0.49,2.48 -0.74,3.72 -0.13,0.65 -0.23,1.41 0.2,1.91 0.31,0.38 0.83,0.49 1.32,0.59 3.81,0.75 7.61,1.5 11.41,2.25 -0.03,-2.83 0.27,-5.66 0.9,-8.41z"/>
   <path class="fil17" d="M373.4 288.46c-3.04,-1.11 -7.1,-0.37 -10.13,-1.47 -0.76,-0.28 -1.69,-0.53 -2.32,-0.02 -0.41,0.34 -0.54,0.91 -0.64,1.43 -0.24,1.24 -0.49,2.48 -0.74,3.71 -0.13,0.66 -0.24,1.41 0.19,1.92 0.32,0.37 0.85,0.49 1.33,0.59 3.8,0.74 7.6,1.49 11.41,2.25 -0.03,-2.83 0.27,-5.66 0.9,-8.41z"/>
   <path class="fil17" d="M442.44 316.3c-3.04,-1.11 -7.09,-0.37 -10.13,-1.48 -0.76,-0.27 -1.69,-0.52 -2.32,-0.01 -0.41,0.34 -0.54,0.91 -0.64,1.43 -0.25,1.24 -0.49,2.47 -0.74,3.71 -0.13,0.65 -0.24,1.41 0.2,1.92 0.32,0.37 0.84,0.49 1.32,0.58 3.8,0.75 7.6,1.5 11.41,2.25 -0.04,-2.82 0.27,-5.65 0.9,-8.4z"/>
   <path class="fil17" d="M430.52 378.9c-0.21,-3.23 -2.52,-6.64 -2.73,-9.87 -0.05,-0.8 -0.19,-1.75 -0.92,-2.12 -0.47,-0.24 -1.05,-0.13 -1.57,-0.01 -1.23,0.27 -2.46,0.54 -3.7,0.81 -0.64,0.14 -1.38,0.35 -1.67,0.95 -0.21,0.45 -0.11,0.97 0,1.45 0.84,3.78 1.69,7.56 2.53,11.35 2.57,-1.17 5.29,-2.03 8.06,-2.56z"/>
   <path class="fil17" d="M460.78 347.54c-0.22,-3.22 -2.52,-6.64 -2.73,-9.87 -0.06,-0.8 -0.2,-1.75 -0.92,-2.12 -0.48,-0.24 -1.05,-0.13 -1.57,-0.01 -1.23,0.27 -2.46,0.54 -3.7,0.81 -0.65,0.14 -1.38,0.35 -1.67,0.96 -0.21,0.44 -0.11,0.96 0,1.44 0.84,3.78 1.69,7.56 2.53,11.35 2.58,-1.16 5.28,-2.03 8.06,-2.56z"/>
   <path class="fil17" d="M303.57 296.69c3,-1.21 5.54,-4.46 8.53,-5.66 0.76,-0.31 1.62,-0.73 1.74,-1.53 0.08,-0.53 -0.2,-1.04 -0.47,-1.5 -0.64,-1.08 -1.29,-2.17 -1.92,-3.26 -0.34,-0.57 -0.76,-1.21 -1.43,-1.3 -0.49,-0.06 -0.95,0.19 -1.38,0.45 -3.33,1.97 -6.66,3.95 -10,5.92 1.91,2.09 3.56,4.4 4.93,6.88z"/>
   <path class="fil7" d="M142.02 794c0.29,4.47 0.53,9.18 -1.48,13.18 -4.74,9.44 -18.04,9.31 -28.5,7.79 2.09,0.31 -9.68,-116.52 -11.19,-129.78 -2.95,-25.76 -25.97,-135.74 25.21,-130.29 7.21,38.2 5.73,80.3 8.24,119.24 2.57,39.96 5.15,79.91 7.72,119.86z"/>
   <path class="fil7" d="M143.32 823.55c0.22,7.36 0.22,14.73 -0.01,22.1 -7.79,2 -15.88,2.79 -23.91,2.35 -1.98,-0.12 -3.98,-18.57 -1.28,-20.94 4.12,-3.61 19.46,-2.07 25.2,-3.51z"/>
   <path class="fil6" d="M474.06 1179.87c3.56,-0.61 7.12,-1.23 10.67,-1.84 2.94,-61.05 8.37,-121.98 16.25,-182.59 -5.71,-0.19 -17.11,-2.91 -22.35,0.04 -6.34,3.55 -3.75,11.39 -3.45,17.76 0.87,18.61 1.39,37.23 1.6,55.86 0.1,9.92 2.42,109.89 -2.72,110.77z"/>
   <path class="fil5" d="M592.76 531.02c1.83,-12.83 3.56,-32.89 3.56,-51.8 -0.02,-13.31 -0.81,-25.93 -3.28,-35.48 -1.47,-5.63 -3.4,-11.58 -6.49,-17.2 -3.06,-5.6 -7.36,-10.91 -13.39,-14.85 -5.99,-3.91 -12.71,-5.92 -19.45,-7.06 -6.74,-1.14 -13.55,-1.42 -19.95,-1.64 -127.52,-4.29 -255.15,-6.44 -382.77,-6.44 -32.79,0 -65.59,0.14 -98.37,0.43 -5.68,0.08 -12.16,0.04 -18.65,2.4 -6.59,2.44 -11.47,6.86 -15.25,11.23 -7.17,8.28 -11.76,17.77 -14.57,27.56 -2.81,9.79 -3.88,19.9 -4.06,29.67 -0.07,3.21 -0.09,6.92 -0.09,10.88 0,19.72 0.61,45.83 0.61,45.85 0.07,3.14 2.65,5.65 5.79,5.62 44.44,-0.37 88.89,-0.56 133.33,-0.56 149.09,0 298.17,2.11 447.18,6.33 3.17,0.09 5.82,-2.42 5.91,-5.59 0.09,-3.18 -2.41,-5.82 -5.59,-5.91 -149.11,-4.22 -298.3,-6.33 -447.5,-6.33 -44.48,0 -88.95,0.19 -133.43,0.57l0.05 5.74 5.75 -0.13c0,-0.01 -0.15,-6.51 -0.3,-15.47 -0.15,-8.96 -0.3,-20.37 -0.3,-30.12 0,-3.92 0.03,-7.57 0.08,-10.67 0.17,-9.07 1.18,-18.2 3.63,-26.7 2.44,-8.52 6.3,-16.4 12.2,-23.22 3.09,-3.57 6.56,-6.51 10.54,-7.96 3.92,-1.48 9.12,-1.67 14.76,-1.69 32.76,-0.29 65.52,-0.43 98.28,-0.43 127.49,0 254.98,2.14 382.38,6.43 6.32,0.22 12.66,0.51 18.42,1.49 5.79,0.97 10.93,2.63 15.08,5.35 4.16,2.73 7.19,6.38 9.6,10.76 2.41,4.36 4.11,9.42 5.44,14.56 2.04,7.72 2.93,19.82 2.91,32.58 0,18.2 -1.69,37.99 -3.44,50.17 -0.45,3.15 1.73,6.06 4.87,6.51 3.15,0.45 6.06,-1.73 6.51,-4.88z"/>
   <path class="fil18" d="M139.71 1160.78c-1.97,8.76 -3.55,17.93 -0.05,26.74 5.05,12.7 20.34,22.69 37.09,26.95 16.75,4.26 34.67,3.44 51.09,0.25 5.43,-1.05 10.82,-2.38 15.37,-4.72 10.47,-5.39 14.98,-15.28 17.28,-24.86 10.01,-41.81 -11.27,-85.68 -32.16,-126.98 -3.78,-7.47 -12.45,-29.76 -27.07,-25.87 -11.55,3.08 -22.53,31.64 -27.15,39.84 -15.88,28.22 -27.47,58 -34.4,88.65z"/>
   <path class="fil19" d="M150.33 1161.06c-1.64,7.28 -2.95,14.89 -0.04,22.21 4.19,10.55 16.9,18.85 30.81,22.39 13.92,3.54 28.81,2.86 42.44,0.21 4.51,-0.87 8.99,-1.98 12.78,-3.92 8.7,-4.48 12.44,-12.69 14.35,-20.66 8.31,-34.72 -9.36,-71.17 -26.72,-105.48 -3.14,-6.2 -10.34,-24.72 -22.49,-21.48 -9.59,2.55 -18.71,26.27 -22.55,33.09 -13.2,23.44 -22.82,48.18 -28.58,73.64z"/>
   <path class="fil11" d="M210.72 1107.4c5.34,0.08 10.69,-1.13 15.29,-3.47 0.82,2.18 -1.77,4.06 -4.02,5.2 -3.64,1.85 -7.28,3.7 -10.92,5.56 6.66,1.26 13.61,1.3 20.26,0.11 0.18,3.24 -3.97,5.18 -7.55,5.9 -3.58,0.72 -7.81,1.36 -9.45,4.25 4.06,1.57 8.54,2.27 12.95,2.02 -1.9,1.44 -3.8,2.89 -5.7,4.32 6.53,2.21 13.62,3.1 20.57,2.57 -0.83,3.06 -4.64,4.64 -8.11,5.41 -3.48,0.79 -7.34,1.34 -9.69,3.7 3.18,0.49 6.35,0.97 9.52,1.46 -1.07,2.23 -2.94,4.15 -5.28,5.43 4.68,1.57 9.81,2.09 14.75,1.47 -3.51,2.83 -8.35,4.37 -13.14,4.18 -1.14,-0.05 -2.61,-0.03 -3.03,0.91 -0.44,0.94 0.68,1.91 1.76,2.3 2.92,1.08 7.25,1.27 7.68,4.01 -2.88,1.37 -5.98,2.4 -9.19,3.05 5.63,2.39 12.15,3.12 18.24,2.03 0.52,1.41 -0.35,2.98 -1.67,3.88 -1.33,0.9 -3.02,1.27 -4.66,1.57 -4.37,0.8 -8.83,1.26 -13.29,1.39 4.9,1.99 10.36,2.91 15.73,2.66 -2.37,4.25 -8.47,6.57 -13.67,5.18 2.2,-0.4 4.28,1.73 4.03,3.7 -0.26,1.97 -2.21,3.49 -4.35,4.09 -2.14,0.61 -4.45,0.47 -6.71,0.33 -1.44,-14.19 4.54,-28.83 -0.2,-42.49 -2.33,-6.69 -7.08,-12.58 -9.48,-19.25 -1.88,-5.26 -2.25,-10.92 -1.03,-16.3l0.36 -5.17z"/>
   <path class="fil20" d="M201.07 1105.85c-7.29,0.03 -14.6,-0.39 -21.84,-1.25 2.09,3.28 6.39,5.4 10.64,5.24 -3.43,1.57 -7.25,2.49 -11.13,2.69 -1.02,0.84 0.71,2.11 2.09,2.4 5.05,1.08 10.11,2.16 15.16,3.24 -4.08,1.75 -8.76,2.44 -13.29,1.95 0.3,2.12 2.2,4 4.54,4.54 -2.16,1.54 -0.26,4.75 -1.25,7.04 -1.1,2.54 -4.99,2.81 -8.09,2.66 -3.61,-0.18 -7.22,-0.35 -10.83,-0.53 -1,-0.05 -2.38,0.25 -2.27,1.11 0.05,0.39 0.42,0.68 0.77,0.92 2.58,1.88 5.16,3.76 7.75,5.64 -1.73,-0.59 -3.29,1.59 -2.54,3.08 0.75,1.5 2.68,2.21 4.45,2.68 1.78,0.46 3.72,0.89 4.91,2.15l0.36 0.92c-0.12,0.39 -0.62,0.58 -1.07,0.71 -2.12,0.6 -4.24,1.21 -6.36,1.8 1.79,2.46 4.1,4.63 6.77,6.36 -3.63,0.25 -7.26,0.51 -10.9,0.76 -1.07,0.08 -2.41,0.37 -2.56,1.3 -0.15,0.91 0.99,1.54 1.96,1.91 2.52,0.97 5.04,1.93 7.56,2.9 -2.05,0.74 -4.26,1.6 -5.26,3.34 -1,1.73 0.24,4.47 2.46,4.33 -0.04,1.3 -1.79,1.91 -3.17,2.37 -1.38,0.46 -2.91,1.71 -2.15,2.84 0.24,0.35 0.66,0.58 1.05,0.79 2.44,1.28 5.22,2.59 7.97,2.03 4.61,-0.93 5.82,-6.04 6.43,-10.16 2.21,-14.84 8.36,-29.17 17.8,-41.56 3.57,-4.67 7.8,-10.1 5.74,-15.48l-5.7 -8.72z"/>
   <path class="fil11" d="M176.17 1168.32c-0.96,5.01 -1.73,10.22 -0.2,15.08 2.21,6.99 9.09,12.12 16.65,13.98 7.57,1.86 15.71,0.82 23.17,-1.5 2.47,-0.77 4.92,-1.7 7,-3.16 4.78,-3.38 6.89,-9.09 7.99,-14.57 4.8,-23.88 -4.57,-47.91 -13.78,-70.51 -1.66,-4.09 -5.46,-16.37 -12.11,-13.7 -5.25,2.1 -10.42,18.55 -12.56,23.33 -7.39,16.41 -12.83,33.57 -16.16,51.05z"/>
   <path class="fil19" d="M188.03 1175.44c-0.77,4.02 -1.44,8.19 -0.86,11.98 0.86,5.46 4.32,9.26 8.31,10.43 3.99,1.17 8.44,0.01 12.59,-2.14 1.37,-0.71 2.74,-1.54 3.94,-2.79 2.74,-2.87 4.17,-7.5 5.03,-11.89 3.77,-19.16 -0.1,-37.86 -3.97,-55.43 -0.69,-3.18 -2.14,-12.78 -5.86,-10.39 -2.94,1.89 -6.54,15.15 -7.94,19.03 -4.79,13.34 -8.58,27.18 -11.24,41.2z"/>
   <path class="fil11" d="M204.98 1079.34c0.76,-0.58 1.88,0.34 2.2,1.2 0.69,1.84 0.43,3.82 0.27,5.74 -0.3,3.91 -0.09,7.86 0.65,11.74 -0.31,-2.92 0.98,-5.92 3.41,-7.91 0.8,-0.65 1.9,-1.24 2.95,-0.93 -0.43,4.12 -1.51,8.18 -3.21,12.03l-0.51 0.8c-0.51,0.45 -1.32,0.45 -2.06,0.42 -1.88,-0.08 -3.77,-0.15 -5.66,-0.23l-1.03 -0.21 -0.57 -0.6c-1.58,-2.31 -6.78,-9.36 -5.16,-11.66 3.31,0.98 5.21,5.44 7.51,0.84 1.29,-2.59 -1.11,-9.45 1.21,-11.23z"/>
   <path class="fil18" d="M354.27 1166.13c-1.17,8.91 -1.91,18.18 2.38,26.63 6.17,12.19 22.32,20.75 39.39,23.47 17.06,2.72 34.84,0.27 50.89,-4.39 5.31,-1.55 10.57,-3.36 14.89,-6.11 9.94,-6.32 13.52,-16.57 14.94,-26.33 6.16,-42.54 -19.01,-84.29 -43.58,-123.53 -4.44,-7.09 -15.1,-28.5 -29.3,-23.29 -11.22,4.12 -19.56,33.55 -23.42,42.14 -13.25,29.55 -22.08,60.26 -26.19,91.41z"/>
   <path class="fil19" d="M364.87 1165.44c-0.97,7.4 -1.58,15.1 1.98,22.13 5.13,10.12 18.54,17.23 32.72,19.49 14.18,2.26 28.94,0.22 42.28,-3.65 4.41,-1.28 8.78,-2.79 12.37,-5.07 8.25,-5.25 11.23,-13.77 12.41,-21.87 5.12,-35.34 -15.8,-70.03 -36.2,-102.62 -3.69,-5.89 -12.55,-23.68 -24.35,-19.35 -9.32,3.41 -16.25,27.87 -19.45,35.01 -11.01,24.54 -18.34,50.06 -21.76,75.93z"/>
   <path class="fil11" d="M420.12 1106.51c5.33,-0.4 10.55,-2.1 14.92,-4.84 1.01,2.09 -1.4,4.2 -3.53,5.54 -3.46,2.18 -6.92,4.35 -10.38,6.53 6.76,0.65 13.68,0.06 20.19,-1.73 0.48,3.21 -3.47,5.52 -6.98,6.56 -3.5,1.04 -7.65,2.07 -9.02,5.09 4.18,1.19 8.71,1.48 13.07,0.84 -1.76,1.61 -3.52,3.21 -5.28,4.82 6.71,1.6 13.85,1.84 20.72,0.68 -0.56,3.13 -4.2,5.04 -7.59,6.14 -3.38,1.09 -7.18,1.99 -9.3,4.55 3.2,0.2 6.41,0.4 9.61,0.59 -0.86,2.32 -2.55,4.4 -4.77,5.88 4.8,1.15 9.96,1.2 14.83,0.13 -3.25,3.14 -7.92,5.11 -12.71,5.36 -1.14,0.06 -2.6,0.21 -2.94,1.18 -0.35,0.99 0.86,1.84 1.97,2.14 3,0.8 7.34,0.6 8.02,3.29 -2.76,1.63 -5.75,2.93 -8.89,3.87 5.83,1.87 12.39,2 18.35,0.36 0.66,1.36 -0.07,3.01 -1.31,4.02 -1.23,1.02 -2.88,1.54 -4.49,1.99 -4.28,1.19 -8.67,2.06 -13.11,2.59 5.06,1.53 10.58,1.96 15.9,1.22 -1.97,4.45 -7.83,7.31 -13.13,6.4 2.16,-0.59 4.42,1.34 4.34,3.32 -0.07,1.98 -1.88,3.68 -3.95,4.47 -2.08,0.8 -4.4,0.88 -6.65,0.94 -2.74,-14 1.89,-29.12 -4.08,-42.3 -2.92,-6.45 -8.19,-11.89 -11.18,-18.31 -2.36,-5.06 -3.24,-10.67 -2.52,-16.14l-0.11 -5.18z"/>
   <path class="fil20" d="M410.38 1105.86c-7.27,0.68 -14.58,0.92 -21.87,0.73 2.39,3.07 6.85,4.79 11.07,4.25 -3.27,1.88 -6.99,3.14 -10.83,3.69 -0.95,0.93 0.9,2.03 2.29,2.2 5.13,0.61 10.27,1.23 15.4,1.85 -3.91,2.11 -8.5,3.22 -13.06,3.15 0.49,2.08 2.54,3.78 4.94,4.1 -2.01,1.74 0.17,4.77 -0.61,7.14 -0.87,2.62 -4.72,3.24 -7.82,3.38 -3.61,0.15 -7.22,0.31 -10.83,0.46 -0.99,0.04 -2.35,0.45 -2.16,1.31 0.09,0.38 0.48,0.63 0.85,0.85 2.74,1.63 5.49,3.27 8.23,4.9 -1.78,-0.43 -3.13,1.88 -2.25,3.31 0.88,1.42 2.87,1.96 4.68,2.25 1.81,0.3 3.79,0.55 5.08,1.7l0.45 0.89c-0.09,0.4 -0.57,0.63 -1,0.79 -2.06,0.8 -4.12,1.59 -6.18,2.39 2.01,2.28 4.51,4.22 7.33,5.7 -3.6,0.58 -7.19,1.18 -10.79,1.76 -1.06,0.17 -2.37,0.58 -2.44,1.52 -0.06,0.92 1.14,1.44 2.13,1.73 2.6,0.73 5.2,1.46 7.8,2.19 -1.98,0.93 -4.1,1.99 -4.94,3.81 -0.84,1.82 0.65,4.43 2.84,4.09 0.09,1.3 -1.6,2.06 -2.94,2.65 -1.33,0.59 -2.74,1.97 -1.88,3.02 0.27,0.33 0.71,0.52 1.13,0.69 2.54,1.06 5.42,2.11 8.11,1.3 4.5,-1.34 5.24,-6.55 5.48,-10.7 0.86,-14.98 5.67,-29.82 13.95,-43.01 3.12,-4.98 6.85,-10.77 4.31,-15.94l-6.47 -8.15z"/>
   <path class="fil11" d="M391.26 1170.33c-0.5,5.07 -0.79,10.33 1.18,15.02 2.83,6.77 10.15,11.26 17.85,12.42 7.7,1.16 15.71,-0.62 22.93,-3.61 2.39,-0.99 4.75,-2.14 6.69,-3.78 4.45,-3.8 6.03,-9.68 6.63,-15.24 2.61,-24.22 -8.91,-47.29 -20.14,-68.96 -2.03,-3.92 -6.92,-15.8 -13.31,-12.54 -5.04,2.57 -8.68,19.42 -10.39,24.37 -5.86,17.01 -9.71,34.6 -11.44,52.32z"/>
   <path class="fil19" d="M403.71 1176.34c-0.39,4.06 -0.68,8.28 0.25,12 1.34,5.36 5.13,8.83 9.22,9.64 4.08,0.8 8.4,-0.76 12.34,-3.28 1.3,-0.83 2.59,-1.79 3.67,-3.14 2.47,-3.11 3.47,-7.85 3.93,-12.3 2.01,-19.42 -3.55,-37.69 -8.99,-54.84 -0.99,-3.1 -3.29,-12.53 -6.79,-9.81 -2.76,2.14 -5.13,15.69 -6.18,19.67 -3.56,13.72 -6.07,27.85 -7.45,42.06z"/>
   <path class="fil11" d="M411.86 1079.1c0.7,-0.66 1.9,0.16 2.3,0.98 0.85,1.77 0.77,3.77 0.79,5.7 0.06,3.92 0.63,7.83 1.71,11.63 -0.57,-2.88 0.44,-5.98 2.67,-8.18 0.74,-0.73 1.79,-1.41 2.87,-1.2 -0.06,4.14 -0.77,8.29 -2.11,12.27l-0.43 0.84c-0.47,0.5 -1.28,0.57 -2.01,0.61 -1.89,0.1 -3.78,0.19 -5.67,0.28l-1.04 -0.11 -0.63 -0.55c-1.77,-2.15 -7.6,-8.7 -6.19,-11.14 3.38,0.67 5.68,4.94 7.55,0.16 1.06,-2.71 -1.96,-9.32 0.19,-11.29z"/>
   <path class="fil18" d="M249.15 1174.52c-1.99,8.76 -3.56,17.93 -0.06,26.74 5.05,12.69 20.35,22.69 37.1,26.95 16.75,4.26 34.67,3.44 51.08,0.26 5.43,-1.06 10.83,-2.39 15.37,-4.73 10.48,-5.39 14.99,-15.28 17.28,-24.86 10.01,-41.81 -11.26,-85.68 -32.16,-126.98 -3.77,-7.47 -12.45,-29.76 -27.07,-25.86 -11.54,3.07 -22.52,31.62 -27.14,39.83 -15.89,28.22 -27.47,58.01 -34.4,88.65z"/>
   <path class="fil19" d="M259.77 1174.79c-1.64,7.29 -2.95,14.91 -0.04,22.22 4.19,10.55 16.89,18.85 30.81,22.39 13.91,3.54 28.8,2.86 42.44,0.21 4.51,-0.87 8.99,-1.98 12.77,-3.92 8.7,-4.48 12.44,-12.69 14.35,-20.66 8.31,-34.73 -9.36,-71.17 -26.72,-105.48 -3.13,-6.21 -10.34,-24.72 -22.48,-21.49 -9.59,2.56 -18.72,26.28 -22.56,33.1 -13.19,23.43 -22.81,48.18 -28.57,73.63z"/>
   <path class="fil11" d="M320.15 1121.14c5.34,0.08 10.69,-1.13 15.3,-3.47 0.81,2.18 -1.78,4.06 -4.02,5.2 -3.64,1.85 -7.28,3.71 -10.93,5.56 6.66,1.26 13.61,1.3 20.26,0.11 0.18,3.24 -3.96,5.18 -7.55,5.9 -3.58,0.72 -7.8,1.36 -9.44,4.24 4.05,1.58 8.54,2.28 12.94,2.03 -1.9,1.44 -3.8,2.88 -5.7,4.32 6.53,2.21 13.63,3.09 20.57,2.57 -0.84,3.06 -4.65,4.64 -8.11,5.42 -3.47,0.78 -7.33,1.33 -9.68,3.69 3.17,0.48 6.34,0.97 9.51,1.46 -1.06,2.23 -2.93,4.15 -5.28,5.42 4.68,1.58 9.81,2.1 14.75,1.48 -3.51,2.83 -8.34,4.36 -13.14,4.18 -1.14,-0.04 -2.6,-0.03 -3.03,0.9 -0.44,0.96 0.68,1.92 1.77,2.32 2.91,1.06 7.25,1.26 7.68,4 -2.89,1.37 -5.99,2.4 -9.2,3.04 5.64,2.4 12.15,3.13 18.24,2.04 0.52,1.41 -0.35,2.98 -1.67,3.88 -1.33,0.9 -3.01,1.27 -4.66,1.57 -4.37,0.8 -8.82,1.26 -13.29,1.39 4.91,1.99 10.36,2.91 15.73,2.66 -2.37,4.25 -8.47,6.57 -13.66,5.18 2.2,-0.4 4.28,1.74 4.02,3.7 -0.25,1.97 -2.2,3.49 -4.35,4.1 -2.13,0.6 -4.45,0.46 -6.7,0.33 -1.45,-14.2 4.53,-28.84 -0.21,-42.5 -2.32,-6.69 -7.08,-12.59 -9.47,-19.26 -1.89,-5.25 -2.25,-10.92 -1.05,-16.3l0.37 -5.16z"/>
   <path class="fil20" d="M310.5 1119.59c-7.29,0.02 -14.59,-0.4 -21.83,-1.25 2.09,3.28 6.38,5.39 10.64,5.24 -3.44,1.57 -7.26,2.5 -11.14,2.69 -1.02,0.84 0.71,2.1 2.08,2.4 5.06,1.08 10.12,2.16 15.17,3.24 -4.08,1.75 -8.75,2.44 -13.29,1.95 0.31,2.12 2.19,4 4.54,4.54 -2.15,1.55 -0.25,4.75 -1.25,7.04 -1.1,2.54 -4.99,2.81 -8.08,2.66 -3.62,-0.17 -7.23,-0.35 -10.84,-0.52 -0.99,-0.05 -2.38,0.23 -2.27,1.1 0.06,0.38 0.42,0.68 0.77,0.93 2.59,1.88 5.17,3.75 7.75,5.63 -1.73,-0.59 -3.28,1.59 -2.54,3.09 0.75,1.49 2.68,2.2 4.46,2.66 1.77,0.47 3.72,0.9 4.9,2.16l0.36 0.92c-0.12,0.4 -0.62,0.57 -1.07,0.7 -2.12,0.61 -4.24,1.21 -6.36,1.82 1.79,2.45 4.1,4.62 6.77,6.35 -3.63,0.25 -7.26,0.5 -10.9,0.76 -1.07,0.08 -2.41,0.36 -2.56,1.29 -0.15,0.91 1,1.55 1.97,1.92 2.52,0.97 5.03,1.93 7.55,2.9 -2.04,0.73 -4.26,1.6 -5.26,3.34 -1,1.73 0.25,4.47 2.46,4.33 -0.04,1.31 -1.78,1.9 -3.17,2.37 -1.38,0.47 -2.91,1.71 -2.14,2.84 0.23,0.35 0.65,0.57 1.05,0.79 2.44,1.28 5.21,2.59 7.97,2.03 4.6,-0.93 5.81,-6.04 6.43,-10.16 2.21,-14.84 8.35,-29.17 17.79,-41.56 3.57,-4.67 7.81,-10.1 5.75,-15.48l-5.71 -8.72z"/>
   <path class="fil11" d="M285.6 1182.06c-0.95,5 -1.72,10.23 -0.19,15.08 2.2,6.98 9.08,12.12 16.65,13.98 7.57,1.86 15.7,0.82 23.16,-1.5 2.47,-0.78 4.93,-1.7 7,-3.16 4.79,-3.38 6.89,-9.1 8,-14.57 4.8,-23.88 -4.57,-47.92 -13.78,-70.52 -1.67,-4.08 -5.46,-16.36 -12.12,-13.69 -5.25,2.1 -10.41,18.55 -12.56,23.32 -7.38,16.42 -12.82,33.57 -16.16,51.06z"/>
   <path class="fil19" d="M297.46 1189.18c-0.77,4.01 -1.44,8.18 -0.85,11.98 0.85,5.46 4.31,9.26 8.31,10.43 3.99,1.17 8.44,0.01 12.58,-2.14 1.37,-0.71 2.74,-1.54 3.93,-2.79 2.76,-2.88 4.18,-7.5 5.04,-11.9 3.78,-19.15 -0.1,-37.85 -3.96,-55.43 -0.7,-3.17 -2.14,-12.77 -5.87,-10.38 -2.94,1.88 -6.54,15.15 -7.93,19.03 -4.8,13.33 -8.59,27.18 -11.25,41.2z"/>
   <path class="fil11" d="M314.41 1093.08c0.76,-0.58 1.89,0.34 2.21,1.2 0.68,1.83 0.42,3.82 0.27,5.74 -0.31,3.91 -0.09,7.86 0.64,11.74 -0.31,-2.92 0.99,-5.92 3.41,-7.91 0.8,-0.66 1.9,-1.23 2.96,-0.93 -0.44,4.13 -1.52,8.18 -3.21,12.03l-0.51 0.8c-0.51,0.45 -1.34,0.45 -2.06,0.42 -1.89,-0.08 -3.78,-0.16 -5.67,-0.24l-1.03 -0.2 -0.57 -0.61c-1.57,-2.3 -6.77,-9.35 -5.15,-11.66 3.3,0.99 5.21,5.45 7.5,0.85 1.3,-2.6 -1.1,-9.45 1.21,-11.23z"/>
   <path class="fil21" d="M312.41 968.54c0,2.9 -2.36,5.26 -5.26,5.26 -2.9,0 -5.26,-2.36 -5.26,-5.26 0,-2.9 2.36,-5.26 5.26,-5.26 2.9,0 5.26,2.36 5.26,5.26z"/>
   <path class="fil21" d="M286.91 887.55c0,2.22 -1.8,4.02 -4.01,4.02 -2.22,0 -4.01,-1.8 -4.01,-4.02 0,-2.21 1.79,-4.01 4.01,-4.01 2.21,0 4.01,1.8 4.01,4.01z"/>
   <path class="fil21" d="M181.66 860.64c0,1.8 -1.47,3.27 -3.28,3.27 -1.8,0 -3.28,-1.47 -3.28,-3.27 0,-1.82 1.48,-3.28 3.28,-3.28 1.81,0 3.28,1.46 3.28,3.28z"/>
   <path class="fil21" d="M156.34 891.44c0,2.14 -1.74,3.89 -3.88,3.89 -2.15,0 -3.89,-1.75 -3.89,-3.89 0,-2.15 1.74,-3.89 3.89,-3.89 2.14,0 3.88,1.74 3.88,3.89z"/>
   <path class="fil21" d="M175.1 987.56c0,2.09 -1.69,3.78 -3.78,3.78 -2.08,0 -3.78,-1.69 -3.78,-3.78 0,-2.09 1.7,-3.78 3.78,-3.78 2.09,0 3.78,1.69 3.78,3.78z"/>
   <path class="fil21" d="M258.88 990.94c0,1.87 -1.52,3.38 -3.38,3.38 -1.86,0 -3.38,-1.51 -3.38,-3.38 0,-1.86 1.52,-3.38 3.38,-3.38 1.86,0 3.38,1.52 3.38,3.38z"/>
   <path class="fil21" d="M422.2 858.99c0,-0.91 -0.74,-1.65 -1.65,-1.65 -0.91,0 -1.64,0.74 -1.64,1.65 0,0.91 0.73,1.65 1.64,1.65 0.91,0 1.65,-0.74 1.65,-1.65z"/>
   <path class="fil21" d="M389.77 771.32c0,1.26 -1.01,2.29 -2.27,2.29 -1.27,0 -2.29,-1.03 -2.29,-2.29 0,-1.25 1.02,-2.27 2.29,-2.27 1.26,0 2.27,1.02 2.27,2.27z"/>
   <path class="fil21" d="M411.01 703.92c0,1.96 -1.59,3.55 -3.55,3.55 -1.96,0 -3.56,-1.59 -3.56,-3.55 0,-1.96 1.6,-3.56 3.56,-3.56 1.96,0 3.55,1.6 3.55,3.56z"/>
   <path class="fil21" d="M455.94 904.73c0,2.25 -1.82,4.08 -4.07,4.08 -2.25,0 -4.08,-1.83 -4.08,-4.08 0,-2.26 1.83,-4.08 4.08,-4.08 2.25,0 4.07,1.82 4.07,4.08z"/>
   <path class="fil21" d="M351.01 1035.5c0,2.02 -1.63,3.65 -3.65,3.65 -2.02,0 -3.66,-1.63 -3.66,-3.65 0,-2.02 1.64,-3.66 3.66,-3.66 2.02,0 3.65,1.64 3.65,3.66z"/>
   <path class="fil21" d="M273.96 1041.31c0,2.36 -1.92,4.27 -4.28,4.27 -2.36,0 -4.27,-1.91 -4.27,-4.27 0,-2.36 1.91,-4.27 4.27,-4.27 2.36,0 4.28,1.91 4.28,4.27z"/>
   <path class="fil21" d="M362.22 920.47c0,3.1 -2.51,5.6 -5.6,5.6 -3.1,0 -5.61,-2.5 -5.61,-5.6 0,-3.09 2.51,-5.6 5.61,-5.6 3.09,0 5.6,2.51 5.6,5.6z"/>
   <path class="fil21" d="M461.23 1038.41c0,1.6 -1.3,2.9 -2.9,2.9 -1.6,0 -2.91,-1.3 -2.91,-2.9 0,-1.61 1.31,-2.91 2.91,-2.91 1.6,0 2.9,1.3 2.9,2.91z"/>
   <path class="fil22" d="M321.07 1236.69c51.23,-0.3 101.51,-5.33 146.05,-12.09 1.19,-5.31 2.91,-16.27 4.83,-29.74 2.66,-4.84 4.05,-10.22 4.81,-15.45 1.12,-0.2 2.24,-0.39 3.37,-0.59 -2.28,15.35 -4.97,30.62 -8.35,45.78 -45.9,6.97 -97.88,12.08 -150.71,12.09zm177.96 -241.38c-1.13,-0.11 -2.38,-0.26 -3.71,-0.42 2.93,-32.24 6.28,-70.08 9.72,-110.77 3.34,-39.57 6.76,-81.85 9.96,-124.35 -0.28,-0.18 -0.56,-0.35 -0.87,-0.49 5.92,-78.62 11.06,-157.96 13.48,-222.25 1.54,0.02 3.09,0.05 4.63,0.08 -3.72,99.16 -13.92,234.11 -23.46,347.01 -3.45,40.87 -6.81,78.85 -9.75,111.19zm33.71 -472.3c-1.55,-0.04 -3.09,-0.07 -4.64,-0.11 0.2,-6.22 0.37,-12.27 0.51,-18.15 1.83,-2.17 3.42,-4.5 4.79,-6.94 -0.16,8.05 -0.38,16.46 -0.66,25.2z"/>
   <path class="fil23" d="M532.24 537.11c-1.54,-0.03 -3.09,-0.06 -4.63,-0.08 0.03,-0.89 0.06,-1.76 0.1,-2.64 1.54,0.04 3.08,0.08 4.63,0.11 -0.03,0.87 -0.06,1.74 -0.1,2.61z"/>
   <path class="fil24" d="M477.35 1113.15c-4.18,-0.25 -8.35,-0.47 -12.53,-0.66 -0.01,-0.01 -0.01,-0.03 -0.02,-0.04 4.19,0.18 8.37,0.4 12.55,0.65 0,0.02 0,0.03 0,0.05zm-65.95 -338.16c9.21,-22.41 18.42,-44.81 27.68,-67.19 7.73,-18.69 15.37,-37.42 22.86,-56.22 14.67,-2.97 25.49,-16.16 25.01,-31.62 -0.2,-6.51 -2.38,-12.5 -5.94,-17.4 0.49,-1.3 0.98,-2.6 1.47,-3.9 3.63,-9.65 13.57,-36.65 25.65,-64.74 6.52,0.16 13.05,0.31 19.58,0.47 -0.04,0.88 -0.07,1.75 -0.1,2.64 -2.42,64.29 -7.56,143.63 -13.48,222.25 -0.39,-0.18 -0.8,-0.32 -1.25,-0.41 -0.36,-0.07 -0.72,-0.1 -1.07,-0.1 -4.52,0 -7.98,5.54 -11.92,8.69 -3.11,2.5 -6.72,3.49 -10.45,3.5 -0.03,0 -0.06,-0.01 -0.09,-0.01 -5.59,-8.72 -15.35,-14.45 -26.35,-14.45 -0.42,0 -0.85,0.01 -1.27,0.03 -2.2,0.09 -4.34,0.4 -6.4,0.91 -1.48,-0.41 -2.99,-0.7 -4.54,-0.84 -0.7,-0.07 -1.41,-0.1 -2.11,-0.1 -13.39,0 -24.83,11.33 -37.28,18.49zm116.7 -252.09c-4.99,-0.12 -9.99,-0.25 -14.98,-0.36 1.2,-2.67 2.41,-5.34 3.63,-7.97 3.11,-1.78 6.03,-3.91 8.69,-6.45 1.13,-1.08 2.19,-2.2 3.17,-3.37 -0.14,5.88 -0.31,11.93 -0.51,18.15z"/>
   <path class="fil25" d="M360.64 1121.47c-6.41,-16.73 -14.67,-33.35 -22.88,-49.57 -3.47,-6.88 -11.1,-26.32 -23.7,-26.32 -1.08,0 -2.21,0.15 -3.37,0.46 -4.58,1.22 -9.08,6.46 -13.12,12.84 15.07,-37.41 28.9,-75.47 43.35,-112.97 3.4,-8.15 6.79,-16.31 10.18,-24.47 0.46,2.63 2.75,4.63 5.52,4.63 3.09,0 5.6,-2.5 5.6,-5.6 0,-3.09 -2.51,-5.6 -5.6,-5.6 -1.2,0 -2.31,0.38 -3.22,1.02 19.44,-46.91 38.7,-93.92 58,-140.9 12.45,-7.16 23.89,-18.49 37.28,-18.49 0.7,0 1.41,0.03 2.11,0.1 1.55,0.14 3.06,0.43 4.54,0.84 -14.06,3.53 -24.22,16.53 -23.62,31.59 0.67,16.84 14.53,30.04 31.24,30.04 0.42,0 0.84,0 1.26,-0.02 17.27,-0.69 30.7,-15.24 30.02,-32.5 -0.23,-5.75 -1.99,-11.07 -4.88,-15.6 0.03,0 0.06,0.01 0.09,0.01 3.73,-0.01 7.34,-1 10.45,-3.5 3.94,-3.15 7.4,-8.69 11.92,-8.69 0.35,0 0.71,0.03 1.07,0.1 0.45,0.09 0.86,0.23 1.25,0.41 0.31,0.14 0.59,0.31 0.87,0.49 -3.2,42.5 -6.62,84.78 -9.96,124.35 -3.44,40.69 -6.79,78.53 -9.72,110.77 -3.02,-0.36 -6.41,-0.78 -9.5,-0.78 -2.81,0 -5.37,0.35 -7.19,1.37 -6.34,3.55 -3.75,11.39 -3.45,17.76 0.87,18.61 1.39,37.23 1.6,55.86 0.04,4.03 0.44,22.93 0.57,44 -4.18,-0.25 -8.36,-0.47 -12.55,-0.65 -8.49,-19.3 -20.12,-38.21 -31.62,-56.58 -3.96,-6.33 -12.9,-24.1 -24.89,-24.1 -1.43,0 -2.9,0.26 -4.41,0.81 -11.22,4.12 -19.56,33.55 -23.42,42.14 -6.76,15.06 -12.36,30.42 -16.78,46 -1.01,0.25 -2.03,0.5 -3.04,0.75zm97.69 -85.97c-1.6,0 -2.91,1.3 -2.91,2.91 0,1.6 1.31,2.9 2.91,2.9 1.6,0 2.9,-1.3 2.9,-2.9 0,-1.61 -1.3,-2.91 -2.9,-2.91zm-110.97 -3.66c-2.02,0 -3.66,1.64 -3.66,3.66 0,2.02 1.64,3.65 3.66,3.65 2.02,0 3.65,-1.63 3.65,-3.65 0,-2.02 -1.63,-3.66 -3.65,-3.66zm69.18 -110.63c-1.18,0 -2.38,0.07 -3.59,0.21 -17.17,1.96 -29.49,17.46 -27.53,34.63 1.82,15.96 15.35,27.74 31.04,27.74 1.19,0 2.38,-0.07 3.59,-0.21 17.17,-1.96 29.49,-17.47 27.53,-34.63 -1.82,-15.97 -15.35,-27.74 -31.04,-27.74zm35.33 -20.56c-2.25,0 -4.08,1.82 -4.08,4.08 0,2.25 1.83,4.08 4.08,4.08 2.25,0 4.07,-1.83 4.07,-4.08 0,-2.26 -1.82,-4.08 -4.07,-4.08zm-31.32 -43.31c-0.91,0 -1.64,0.74 -1.64,1.65 0,0.91 0.73,1.65 1.64,1.65 0.91,0 1.65,-0.74 1.65,-1.65 0,-0.91 -0.74,-1.65 -1.65,-1.65z"/>
   <path class="fil26" d="M320.96 1236.69c-37.63,0 -75.69,-2.6 -112.29,-8.95 2.74,-3.72 5.42,-7.49 8.05,-11.27 3.76,-0.45 7.48,-1.04 11.12,-1.75 5.43,-1.05 10.82,-2.38 15.37,-4.72 2.92,-1.51 5.37,-3.36 7.45,-5.46 6.18,11.13 20.25,19.78 35.53,23.67 8.06,2.05 16.38,2.93 24.68,2.93 8.96,0 17.88,-1.02 26.4,-2.67 5.43,-1.06 10.83,-2.39 15.37,-4.73 8.13,-4.18 12.67,-11.07 15.36,-18.43 7.66,5.46 17.68,9.27 28.04,10.92 4.89,0.78 9.83,1.13 14.78,1.13 12.33,0 24.66,-2.2 36.11,-5.52 5.31,-1.55 10.57,-3.36 14.89,-6.11 4.6,-2.93 7.84,-6.7 10.13,-10.87 -1.92,13.47 -3.64,24.43 -4.83,29.74 -44.54,6.76 -94.82,11.79 -146.05,12.09 -0.04,0 -0.07,0 -0.11,0zm156.07 -82.1c-1.64,-14.18 -6.11,-28.24 -12.21,-42.1 4.18,0.19 8.35,0.41 12.53,0.66 0.08,14.11 0.04,29.2 -0.32,41.44zm-114.76 -28.74c-0.53,-1.46 -1.07,-2.92 -1.63,-4.38 1.01,-0.25 2.03,-0.5 3.04,-0.75 -0.48,1.71 -0.95,3.42 -1.41,5.13z"/>
   <path class="fil27" d="M461.94 651.58c1.1,-2.75 2.19,-5.49 3.28,-8.24 3.15,-0.98 5.4,-3.98 5.29,-7.44 -0.03,-1.29 -0.39,-2.48 -0.99,-3.52 3.89,-9.92 7.72,-19.86 11.49,-29.82 3.56,4.9 5.74,10.89 5.94,17.4 0.48,15.46 -10.34,28.65 -25.01,31.62z"/>
   <path class="fil28" d="M465.22 643.34c1.44,-3.65 2.88,-7.3 4.3,-10.96 0.6,1.04 0.96,2.23 0.99,3.52 0.11,3.46 -2.14,6.46 -5.29,7.44z"/>
   <path class="fil27" d="M416.46 983.79c-15.69,0 -29.22,-11.78 -31.04,-27.74 -1.96,-17.17 10.36,-32.67 27.53,-34.63 1.21,-0.14 2.41,-0.21 3.59,-0.21 15.69,0 29.22,11.77 31.04,27.74 1.96,17.16 -10.36,32.67 -27.53,34.63 -1.21,0.14 -2.4,0.21 -3.59,0.21zm-8.47 -53.39c-0.29,0 -0.57,0.02 -0.86,0.05 -4.15,0.48 -7.12,4.21 -6.65,8.36 0.44,3.85 3.71,6.69 7.49,6.69 0.29,0 0.58,-0.02 0.87,-0.05 4.14,-0.47 7.12,-4.21 6.64,-8.35 -0.44,-3.86 -3.71,-6.7 -7.49,-6.7z"/>
   <path class="fil28" d="M407.97 945.5c-3.78,0 -7.05,-2.84 -7.49,-6.69 -0.47,-4.15 2.5,-7.88 6.65,-8.36 0.29,-0.03 0.57,-0.05 0.86,-0.05 3.78,0 7.05,2.84 7.49,6.7 0.48,4.14 -2.5,7.88 -6.64,8.35 -0.29,0.03 -0.58,0.05 -0.87,0.05z"/>
   <path class="fil27" d="M462.95 819.07c-16.71,0 -30.57,-13.2 -31.24,-30.04 -0.6,-15.06 9.56,-28.06 23.62,-31.59 2.06,-0.51 4.2,-0.82 6.4,-0.91 0.42,-0.02 0.85,-0.03 1.27,-0.03 11,0 20.76,5.73 26.35,14.45 2.89,4.53 4.65,9.85 4.88,15.6 0.68,17.26 -12.75,31.81 -30.02,32.5 -0.42,0.02 -0.84,0.02 -1.26,0.02zm15.16 -46.25c-0.1,0 -0.2,0 -0.3,0.01 -4.17,0.16 -7.41,3.67 -7.25,7.84 0.17,4.06 3.51,7.25 7.54,7.25 0.1,0 0.21,0 0.31,-0.01 4.16,-0.16 7.41,-3.68 7.24,-7.84 -0.16,-4.06 -3.51,-7.25 -7.54,-7.25z"/>
   <path class="fil28" d="M478.1 787.92c-4.03,0 -7.37,-3.19 -7.54,-7.25 -0.16,-4.17 3.08,-7.68 7.25,-7.84 0.1,-0.01 0.2,-0.01 0.3,-0.01 4.03,0 7.38,3.19 7.54,7.25 0.17,4.16 -3.08,7.68 -7.24,7.84 -0.1,0.01 -0.21,0.01 -0.31,0.01z"/>
   <path class="fil29" d="M516.75 514.57c5.53,-11.94 11.27,-23.39 16.9,-33.05 -0.05,5.23 -0.13,10.67 -0.25,16.29 -1.37,2.44 -2.96,4.77 -4.79,6.94 -0.98,1.17 -2.04,2.29 -3.17,3.37 -2.66,2.54 -5.58,4.67 -8.69,6.45z"/>
   <path class="fil23" d="M476.76 1179.41c0,-0.01 0,-0.01 0,-0.01 1.2,-8.3 1.21,-16.58 0.27,-24.81 0.36,-12.24 0.4,-27.33 0.32,-41.44 0,-0.02 0,-0.03 0,-0.05 -0.13,-21.07 -0.53,-39.97 -0.57,-44 -0.21,-18.63 -0.73,-37.25 -1.6,-55.86 -0.3,-6.37 -2.89,-14.21 3.45,-17.76 1.82,-1.02 4.38,-1.37 7.19,-1.37 3.09,0 6.48,0.42 9.5,0.78 1.33,0.16 2.58,0.31 3.71,0.42 -4.5,49.51 -7.98,85.78 -9.25,98.95 -2.34,24.24 -4.71,48.52 -7.97,72.66 -0.54,3.97 -1.1,7.94 -1.68,11.9 -1.13,0.2 -2.25,0.39 -3.37,0.59z"/>
   <path class="fil23" d="M532.34 534.5c-1.55,-0.03 -3.09,-0.07 -4.63,-0.11 -6.53,-0.16 -13.06,-0.31 -19.58,-0.47 1.63,-3.79 3.3,-7.59 4.99,-11.38 4.99,0.11 9.99,0.24 14.98,0.36 1.55,0.04 3.09,0.07 4.64,0.11 -0.13,3.78 -0.26,7.6 -0.4,11.49z"/>
   <path class="fil30" d="M216.72 1216.47c2.45,-3.54 4.85,-7.09 7.21,-10.67 4.38,-0.86 8.71,-1.97 12.39,-3.85 5.03,-2.59 8.41,-6.44 10.73,-10.77 0.13,3.39 0.73,6.76 2.04,10.08 0.45,1.12 0.97,2.21 1.57,3.28 -2.08,2.1 -4.53,3.95 -7.45,5.46 -4.55,2.34 -9.94,3.67 -15.37,4.72 -3.64,0.71 -7.36,1.3 -11.12,1.75zm36.02 -56.27c-0.03,-0.98 -0.07,-1.96 -0.13,-2.94 0.72,-1.35 1.44,-2.71 2.15,-4.07 -0.7,2.33 -1.37,4.66 -2.02,7.01z"/>
   <path class="fil31" d="M223.93 1205.8c5.74,-8.74 11.24,-17.65 16.5,-26.68 0.52,-0.55 0.98,-1.16 1.34,-1.81 -0.1,0 -0.2,0.01 -0.29,0.01 3.82,-6.62 7.53,-13.3 11.13,-20.06 0.06,0.98 0.1,1.96 0.13,2.94 -1.31,4.75 -2.51,9.52 -3.59,14.32 -1.24,5.46 -2.31,11.07 -2.1,16.66 -2.32,4.33 -5.7,8.18 -10.73,10.77 -3.68,1.88 -8.01,2.99 -12.39,3.85z"/>
   <path class="fil27" d="M240.43 1179.12c0.35,-0.6 0.7,-1.19 1.05,-1.8 0.09,0 0.19,-0.01 0.29,-0.01 -0.36,0.65 -0.82,1.26 -1.34,1.81z"/>
   <path class="fil30" d="M410.82 1217.36c-4.95,0 -9.89,-0.35 -14.78,-1.13 -10.36,-1.65 -20.38,-5.46 -28.04,-10.92 0.78,-2.12 1.4,-4.28 1.92,-6.43 0.43,-1.81 0.8,-3.61 1.12,-5.42 6.54,6.97 17.29,11.81 28.53,13.6 4.06,0.65 8.18,0.94 12.29,0.94 10.23,0 20.48,-1.83 29.99,-4.59 4.41,-1.28 8.78,-2.79 12.37,-5.07 8.25,-5.25 11.23,-13.77 12.41,-21.87 5.12,-35.34 -15.8,-70.03 -36.2,-102.62 -3.3,-5.27 -10.72,-20.02 -20.68,-20.02 -1.19,0 -2.41,0.21 -3.67,0.67 -9.32,3.41 -16.25,27.87 -19.45,35.01 -8.16,18.18 -14.29,36.9 -18.32,55.9 -1.63,-6.52 -3.68,-13.04 -6.04,-19.56 0.46,-1.71 0.93,-3.42 1.41,-5.13 4.42,-15.58 10.02,-30.94 16.78,-46 3.86,-8.59 12.2,-38.02 23.42,-42.14 1.51,-0.55 2.98,-0.81 4.41,-0.81 11.99,0 20.93,17.77 24.89,24.1 11.5,18.37 23.13,37.28 31.62,56.58 0.01,0.01 0.01,0.03 0.02,0.04 6.1,13.86 10.57,27.92 12.21,42.1 0.94,8.23 0.93,16.51 -0.27,24.81 0,0 0,0 0,0.01 -0.76,5.23 -2.15,10.61 -4.81,15.45 -2.29,4.17 -5.53,7.94 -10.13,10.87 -4.32,2.75 -9.58,4.56 -14.89,6.11 -11.45,3.32 -23.78,5.52 -36.11,5.52z"/>
   <path class="fil31" d="M411.86 1208c-4.11,0 -8.23,-0.29 -12.29,-0.94 -11.24,-1.79 -21.99,-6.63 -28.53,-13.6 2.78,-15.83 1.31,-31.93 -2.73,-48.05 4.03,-19 10.16,-37.72 18.32,-55.9 3.2,-7.14 10.13,-31.6 19.45,-35.01 1.26,-0.46 2.48,-0.67 3.67,-0.67 9.96,0 17.38,14.75 20.68,20.02 20.4,32.59 41.32,67.28 36.2,102.62 -1.18,8.1 -4.16,16.62 -12.41,21.87 -3.59,2.28 -7.96,3.79 -12.37,5.07 -9.51,2.76 -19.76,4.59 -29.99,4.59zm2.2 -9.89c0.45,0.05 0.89,0.08 1.34,0.08 0.54,0 1.08,-0.04 1.63,-0.11 5.53,-0.28 11.06,-1.79 16.19,-3.92 2.39,-0.99 4.75,-2.14 6.69,-3.78 0.79,-0.68 1.49,-1.42 2.11,-2.21 0.91,-0.14 1.79,-0.34 2.64,-0.67 2.07,-0.79 3.88,-2.49 3.95,-4.47 0.05,-1.31 -0.92,-2.6 -2.21,-3.15 4.65,-0.05 9.29,-2.71 11,-6.57 -1.7,0.24 -3.42,0.35 -5.14,0.35 -1.86,0 -3.72,-0.13 -5.55,-0.4 0.06,-0.66 0.1,-1.32 0.13,-1.97 2.62,-0.48 5.21,-1.08 7.77,-1.79 1.61,-0.45 3.26,-0.97 4.49,-1.99 1.24,-1.01 1.97,-2.66 1.31,-4.02 -2.77,0.76 -5.67,1.15 -8.57,1.15 -1.69,0 -3.38,-0.14 -5.03,-0.39 -0.05,-0.93 -0.13,-1.86 -0.21,-2.78 1.5,-0.65 2.95,-1.39 4.35,-2.21 -0.47,-1.85 -2.67,-2.33 -4.98,-2.71 -0.21,-1.35 -0.45,-2.68 -0.73,-4.01 4.31,-0.51 8.43,-2.4 11.37,-5.25 -2.34,0.51 -4.74,0.77 -7.14,0.77 -1.81,0 -3.62,-0.14 -5.39,-0.43 -0.17,-0.64 -0.34,-1.26 -0.52,-1.89 1.35,-1.28 2.38,-2.81 2.99,-4.46 -1.48,-0.09 -2.97,-0.18 -4.45,-0.27 -0.34,-1.04 -0.7,-2.08 -1.07,-3.11 1.66,-0.7 3.49,-1.21 5.21,-1.76 3.39,-1.1 7.03,-3.01 7.59,-6.14 -2.86,0.49 -5.77,0.72 -8.67,0.72 -2.39,0 -4.78,-0.16 -7.14,-0.48 -0.54,-1.3 -1.1,-2.58 -1.68,-3.87 0.69,-0.62 1.37,-1.25 2.05,-1.87 -0.91,0.14 -1.84,0.23 -2.77,0.28 -0.89,-1.94 -1.8,-3.86 -2.73,-5.79 0.49,-0.14 0.98,-0.28 1.45,-0.42 3.51,-1.04 7.46,-3.35 6.98,-6.56 -3.57,0.98 -7.26,1.6 -10.98,1.85 -0.75,-1.5 -1.52,-2.99 -2.28,-4.48 1.15,-0.72 2.3,-1.45 3.45,-2.17 2.13,-1.34 4.54,-3.45 3.53,-5.54 -2.72,1.71 -5.77,3.01 -8.98,3.84 -1.08,-2.19 -2.79,-5.88 -4.97,-8.68 0.69,-2.89 1.07,-5.85 1.11,-8.8 -0.13,-0.03 -0.27,-0.04 -0.4,-0.04 -0.93,0 -1.82,0.6 -2.47,1.24 -1.19,1.17 -2.03,2.6 -2.48,4.12 -0.39,-0.13 -0.78,-0.23 -1.19,-0.26 -0.44,-2.41 -0.67,-4.86 -0.71,-7.31 -0.02,-1.93 0.06,-3.93 -0.79,-5.7 -0.3,-0.61 -1.04,-1.22 -1.69,-1.22 -0.22,0 -0.43,0.07 -0.61,0.24 -2.15,1.97 0.87,8.58 -0.19,11.29 -0.65,1.67 -1.36,2.24 -2.14,2.23 -1.47,0 -3.21,-1.95 -5.41,-2.39 -1.11,1.93 2.29,6.42 4.64,9.28 -0.93,2.02 -1.77,4.35 -2.53,6.69 -4.29,0.3 -8.59,0.45 -12.88,0.45 -1.61,0 -3.22,-0.02 -4.84,-0.06 2.09,2.7 5.78,4.35 9.51,4.35 0.52,0 1.05,-0.03 1.56,-0.1 -3.27,1.88 -6.99,3.14 -10.83,3.69 -0.95,0.93 0.9,2.03 2.29,2.2 3.87,0.46 7.75,0.93 11.62,1.4 -0.27,0.79 -0.54,1.58 -0.8,2.37 -2.59,0.81 -5.34,1.24 -8.08,1.24 -0.13,0 -0.27,-0.01 -0.4,-0.01 0.49,2.08 2.54,3.78 4.94,4.1 -2.01,1.74 0.17,4.77 -0.61,7.14 -0.87,2.62 -4.72,3.24 -7.82,3.38 -3.61,0.15 -7.22,0.31 -10.83,0.46 -0.99,0.04 -2.35,0.45 -2.16,1.31 0.09,0.38 0.48,0.63 0.85,0.85 2.74,1.63 5.49,3.27 8.23,4.9 -0.15,-0.04 -0.29,-0.05 -0.43,-0.05 -1.56,0 -2.63,2.06 -1.82,3.36 0.88,1.42 2.87,1.96 4.68,2.25 1.81,0.3 3.79,0.55 5.08,1.7l0.36 0.7c-0.04,0.17 -0.07,0.35 -0.1,0.52 -0.2,0.21 -0.52,0.35 -0.81,0.46 -2.06,0.8 -4.12,1.59 -6.18,2.39 1.63,1.84 3.57,3.47 5.75,4.8 -0.06,0.4 -0.12,0.79 -0.17,1.19 -3.01,0.49 -6.03,0.98 -9.04,1.47 -1.06,0.17 -2.37,0.58 -2.44,1.52 -0.06,0.92 1.14,1.44 2.13,1.73 2.6,0.73 5.2,1.46 7.8,2.19 -1.98,0.93 -4.1,1.99 -4.94,3.81 -0.79,1.71 0.48,4.12 2.46,4.12 0.13,0 0.25,-0.01 0.38,-0.03 0.09,1.3 -1.6,2.06 -2.94,2.65 -1.33,0.59 -2.74,1.97 -1.88,3.02 0.27,0.33 0.71,0.52 1.13,0.69 1.91,0.8 4.02,1.59 6.09,1.59 0.27,0 0.54,-0.02 0.81,-0.05 0.16,0.5 0.34,0.98 0.54,1.45 2.83,6.77 10.15,11.26 17.85,12.42 1.25,0.19 2.51,0.3 3.77,0.34zm32.21 -18.23c-0.17,0 -0.34,0 -0.51,-0.01 0.01,-0.06 0.02,-0.12 0.04,-0.19 0.2,0.05 0.41,0.12 0.6,0.2 -0.04,0 -0.09,0 -0.13,0z"/>
   <path class="fil27" d="M442.02 1188.17c1.89,-2.42 3.03,-5.3 3.74,-8.3 0.17,0.01 0.34,0.01 0.51,0.01 0.04,0 0.09,0 0.13,0 1.29,0.55 2.26,1.84 2.21,3.15 -0.07,1.98 -1.88,3.68 -3.95,4.47 -0.85,0.33 -1.73,0.53 -2.64,0.67zm4.38 -8.29c-0.19,-0.08 -0.4,-0.15 -0.6,-0.2 0.34,-1.5 0.58,-3.03 0.74,-4.54 0.07,-0.63 0.13,-1.26 0.17,-1.88 1.83,0.27 3.69,0.4 5.55,0.4 1.72,0 3.44,-0.11 5.14,-0.35 -1.71,3.86 -6.35,6.52 -11,6.57zm0.44 -8.59c0.11,-2.36 0.09,-4.71 -0.03,-7.04 1.65,0.25 3.34,0.39 5.03,0.39 2.9,0 5.8,-0.39 8.57,-1.15 0.66,1.36 -0.07,3.01 -1.31,4.02 -1.23,1.02 -2.88,1.54 -4.49,1.99 -2.56,0.71 -5.15,1.31 -7.77,1.79zm-0.24 -9.82c-0.16,-1.64 -0.37,-3.29 -0.63,-4.92 2.31,0.38 4.51,0.86 4.98,2.71 -1.4,0.82 -2.85,1.56 -4.35,2.21zm-1.36 -8.93c-0.34,-1.65 -0.73,-3.28 -1.16,-4.91 1.77,0.29 3.58,0.43 5.39,0.43 2.4,0 4.8,-0.26 7.14,-0.77 -2.94,2.85 -7.06,4.74 -11.37,5.25zm-1.68 -6.8c-0.45,-1.58 -0.94,-3.16 -1.46,-4.73 1.48,0.09 2.97,0.18 4.45,0.27 -0.61,1.65 -1.64,3.18 -2.99,4.46zm-2.53 -7.84c-0.93,-2.57 -1.94,-5.12 -3.01,-7.66 2.36,0.32 4.75,0.48 7.14,0.48 2.9,0 5.81,-0.23 8.67,-0.72 -0.56,3.13 -4.2,5.04 -7.59,6.14 -1.72,0.55 -3.55,1.06 -5.21,1.76zm-4.69 -11.53c-0.24,-0.53 -0.47,-1.06 -0.72,-1.59 0.93,-0.05 1.86,-0.14 2.77,-0.28 -0.68,0.62 -1.36,1.25 -2.05,1.87zm-3.45 -7.38c-0.84,-1.71 -1.69,-3.43 -2.55,-5.13 3.72,-0.25 7.41,-0.87 10.98,-1.85 0.48,3.21 -3.47,5.52 -6.98,6.56 -0.47,0.14 -0.96,0.28 -1.45,0.42zm-4.83 -9.61c-0.55,-1.07 -1.11,-2.14 -1.66,-3.2 -0.1,-0.2 -0.21,-0.42 -0.34,-0.67 3.21,-0.83 6.26,-2.13 8.98,-3.84 1.01,2.09 -1.4,4.2 -3.53,5.54 -1.15,0.72 -2.3,1.45 -3.45,2.17z"/>
   <path class="fil27" d="M391.09 1183.95c-2.07,0 -4.18,-0.79 -6.09,-1.59 -0.42,-0.17 -0.86,-0.36 -1.13,-0.69 -0.86,-1.05 0.55,-2.43 1.88,-3.02 1.34,-0.59 3.03,-1.35 2.94,-2.65 -0.13,0.02 -0.25,0.03 -0.38,0.03 -1.98,0 -3.25,-2.41 -2.46,-4.12 0.84,-1.82 2.96,-2.88 4.94,-3.81 -2.6,-0.73 -5.2,-1.46 -7.8,-2.19 -0.99,-0.29 -2.19,-0.81 -2.13,-1.73 0.07,-0.94 1.38,-1.35 2.44,-1.52 3.01,-0.49 6.03,-0.98 9.04,-1.47 -0.42,3.04 -0.79,6.09 -1.08,9.14 -0.45,4.55 -0.73,9.27 0.64,13.57 -0.27,0.03 -0.54,0.05 -0.81,0.05zm1.42 -23.95c-2.18,-1.33 -4.12,-2.96 -5.75,-4.8 2.06,-0.8 4.12,-1.59 6.18,-2.39 0.29,-0.11 0.61,-0.25 0.81,-0.46 -0.46,2.54 -0.87,5.1 -1.24,7.65zm1.34 -8.17l-0.36 -0.7c-1.29,-1.15 -3.27,-1.4 -5.08,-1.7 -1.81,-0.29 -3.8,-0.83 -4.68,-2.25 -0.81,-1.3 0.26,-3.36 1.82,-3.36 0.14,0 0.28,0.01 0.43,0.05 -2.74,-1.63 -5.49,-3.27 -8.23,-4.9 -0.37,-0.22 -0.76,-0.47 -0.85,-0.85 -0.19,-0.86 1.17,-1.27 2.16,-1.31 3.61,-0.15 7.22,-0.31 10.83,-0.46 3.1,-0.14 6.95,-0.76 7.82,-3.38 0.78,-2.37 -1.4,-5.4 0.61,-7.14 -2.4,-0.32 -4.45,-2.02 -4.94,-4.1 0.13,0 0.27,0.01 0.4,0.01 2.74,0 5.49,-0.43 8.08,-1.24 -3.41,10.28 -6.09,20.76 -8.01,31.33zm8.81 -33.7c-3.87,-0.47 -7.75,-0.94 -11.62,-1.4 -1.39,-0.17 -3.24,-1.27 -2.29,-2.2 3.84,-0.55 7.56,-1.81 10.83,-3.69 -0.51,0.07 -1.04,0.1 -1.56,0.1 -3.73,0 -7.42,-1.65 -9.51,-4.35 1.62,0.04 3.23,0.06 4.84,0.06 4.29,0 8.59,-0.15 12.88,-0.45 -1.55,4.75 -2.74,9.54 -3.53,11.81 -0.01,0.04 -0.02,0.07 -0.04,0.12z"/>
   <path class="fil27" d="M414.06 1198.11c-1.26,-0.04 -2.52,-0.15 -3.77,-0.34 -7.7,-1.16 -15.02,-5.65 -17.85,-12.42 -0.2,-0.47 -0.38,-0.95 -0.54,-1.45 -1.37,-4.3 -1.09,-9.02 -0.64,-13.57 0.29,-3.05 0.66,-6.1 1.08,-9.14 0.05,-0.4 0.11,-0.79 0.17,-1.19 0.37,-2.55 0.78,-5.11 1.24,-7.65 0.03,-0.17 0.06,-0.35 0.1,-0.52 1.92,-10.57 4.6,-21.05 8.01,-31.33 0.26,-0.79 0.53,-1.58 0.8,-2.37 0.02,-0.05 0.03,-0.08 0.04,-0.12 0.79,-2.27 1.98,-7.06 3.53,-11.81 0.76,-2.34 1.6,-4.67 2.53,-6.69 0.63,0.76 1.18,1.41 1.55,1.86l0.63 0.55 1.04 0.11c1.89,-0.09 3.78,-0.18 5.67,-0.28 0.73,-0.04 1.54,-0.11 2.01,-0.61l0.43 -0.84c0.39,-1.14 0.72,-2.3 1,-3.47 2.18,2.8 3.89,6.49 4.97,8.68 0.13,0.25 0.24,0.47 0.34,0.67 0.55,1.06 1.11,2.13 1.66,3.2 0.76,1.49 1.53,2.98 2.28,4.48 0.86,1.7 1.71,3.42 2.55,5.13 0.93,1.93 1.84,3.85 2.73,5.79 0.25,0.53 0.48,1.06 0.72,1.59 0.58,1.29 1.14,2.57 1.68,3.87 1.07,2.54 2.08,5.09 3.01,7.66 0.37,1.03 0.73,2.07 1.07,3.11 0.52,1.57 1.01,3.15 1.46,4.73 0.18,0.63 0.35,1.25 0.52,1.89 0.43,1.63 0.82,3.26 1.16,4.91 0.28,1.33 0.52,2.66 0.73,4.01 0.26,1.63 0.47,3.28 0.63,4.92 0.08,0.92 0.16,1.85 0.21,2.78 0.12,2.33 0.14,4.68 0.03,7.04 -0.03,0.65 -0.07,1.31 -0.13,1.97 -0.04,0.62 -0.1,1.25 -0.17,1.88 -0.16,1.51 -0.4,3.04 -0.74,4.54 -0.02,0.07 -0.03,0.13 -0.04,0.19 -0.71,3 -1.85,5.88 -3.74,8.3 -0.62,0.79 -1.32,1.53 -2.11,2.21 -1.94,1.64 -4.3,2.79 -6.69,3.78 -5.13,2.13 -10.66,3.64 -16.19,3.92 2.88,-0.36 5.77,-1.64 8.49,-3.38 1.3,-0.83 2.59,-1.79 3.67,-3.14 2.47,-3.11 3.47,-7.85 3.93,-12.3 2.01,-19.42 -3.55,-37.69 -8.99,-54.84 -0.86,-2.72 -2.75,-10.3 -5.55,-10.3 -0.39,0 -0.81,0.15 -1.24,0.49 -2.76,2.14 -5.13,15.69 -6.18,19.67 -3.56,13.72 -6.07,27.85 -7.45,42.06 -0.39,4.06 -0.68,8.28 0.25,12 1.34,5.36 5.13,8.83 9.22,9.64 0.29,0.05 0.59,0.1 0.88,0.13zm2.6 -100.7c-0.41,-1.43 -0.74,-2.87 -1,-4.32 0.41,0.03 0.8,0.13 1.19,0.26 -0.38,1.33 -0.46,2.72 -0.19,4.06z"/>
   <path class="fil31" d="M415.4 1198.19c-0.45,0 -0.89,-0.03 -1.34,-0.08 -0.29,-0.03 -0.59,-0.08 -0.88,-0.13 -4.09,-0.81 -7.88,-4.28 -9.22,-9.64 -0.93,-3.72 -0.64,-7.94 -0.25,-12 1.38,-14.21 3.89,-28.34 7.45,-42.06 1.05,-3.98 3.42,-17.53 6.18,-19.67 0.43,-0.34 0.85,-0.49 1.24,-0.49 2.8,0 4.69,7.58 5.55,10.3 5.44,17.15 11,35.42 8.99,54.84 -0.46,4.45 -1.46,9.19 -3.93,12.3 -1.08,1.35 -2.37,2.31 -3.67,3.14 -2.72,1.74 -5.61,3.02 -8.49,3.38 -0.55,0.07 -1.09,0.11 -1.63,0.11z"/>
   <path class="fil27" d="M411.98 1102.03l-1.04 -0.11 -0.63 -0.55c-0.37,-0.45 -0.92,-1.1 -1.55,-1.86 -2.35,-2.86 -5.75,-7.35 -4.64,-9.28 2.2,0.44 3.94,2.39 5.41,2.39 0.78,0.01 1.49,-0.56 2.14,-2.23 1.06,-2.71 -1.96,-9.32 0.19,-11.29 0.18,-0.17 0.39,-0.24 0.61,-0.24 0.65,0 1.39,0.61 1.69,1.22 0.85,1.77 0.77,3.77 0.79,5.7 0.04,2.45 0.27,4.9 0.71,7.31 0.26,1.45 0.59,2.89 1,4.32l0 0c-0.27,-1.34 -0.19,-2.73 0.19,-4.06 0.45,-1.52 1.29,-2.95 2.48,-4.12 0.65,-0.64 1.54,-1.24 2.47,-1.24 0.13,0 0.27,0.01 0.4,0.04 -0.04,2.95 -0.42,5.91 -1.11,8.8 -0.28,1.17 -0.61,2.33 -1,3.47l-0.43 0.84c-0.47,0.5 -1.28,0.57 -2.01,0.61 -1.89,0.1 -3.78,0.19 -5.67,0.28z"/>
   <path class="fil30" d="M310.87 1231.14c-8.3,0 -16.62,-0.88 -24.68,-2.93 -15.28,-3.89 -29.35,-12.54 -35.53,-23.67 -0.6,-1.07 -1.12,-2.16 -1.57,-3.28 -1.31,-3.32 -1.91,-6.69 -2.04,-10.08 -0.21,-5.59 0.86,-11.2 2.1,-16.66 1.08,-4.8 2.28,-9.57 3.59,-14.32 0.65,-2.35 1.32,-4.68 2.02,-7.01 15.98,-30.45 29.86,-62.14 42.81,-94.31 4.04,-6.38 8.54,-11.62 13.12,-12.84 1.16,-0.31 2.29,-0.46 3.37,-0.46 12.6,0 20.23,19.44 23.7,26.32 8.21,16.22 16.47,32.84 22.88,49.57 0.56,1.46 1.1,2.92 1.63,4.38 2.36,6.52 4.41,13.04 6.04,19.56 4.04,16.12 5.51,32.22 2.73,48.05 -0.32,1.81 -0.69,3.61 -1.12,5.42 -0.52,2.15 -1.14,4.31 -1.92,6.43 -2.69,7.36 -7.23,14.25 -15.36,18.43 -4.54,2.34 -9.94,3.67 -15.37,4.73 -8.52,1.65 -17.44,2.67 -26.4,2.67zm2.83 -163.45c-0.91,0 -1.84,0.12 -2.8,0.37 -9.59,2.56 -18.72,26.28 -22.56,33.1 -13.19,23.43 -22.81,48.18 -28.57,73.63 -1.64,7.29 -2.95,14.91 -0.04,22.22 4.19,10.55 16.89,18.85 30.81,22.39 6.69,1.71 13.61,2.43 20.5,2.43 7.44,0 14.86,-0.85 21.94,-2.22 4.51,-0.87 8.99,-1.98 12.77,-3.92 8.7,-4.48 12.44,-12.69 14.35,-20.66 8.31,-34.73 -9.36,-71.17 -26.72,-105.48 -2.89,-5.71 -9.22,-21.86 -19.68,-21.86z"/>
   <path class="fil31" d="M311.04 1221.83c-6.89,0 -13.81,-0.72 -20.5,-2.43 -13.92,-3.54 -26.62,-11.84 -30.81,-22.39 -2.91,-7.31 -1.6,-14.93 0.04,-22.22 5.76,-25.45 15.38,-50.2 28.57,-73.63 3.84,-6.82 12.97,-30.54 22.56,-33.1 0.96,-0.25 1.89,-0.37 2.8,-0.37 10.46,0 16.79,16.15 19.68,21.86 17.36,34.31 35.03,70.75 26.72,105.48 -1.91,7.97 -5.65,16.18 -14.35,20.66 -3.78,1.94 -8.26,3.05 -12.77,3.92 -7.08,1.37 -14.5,2.22 -21.94,2.22zm-2.31 -9.78c0.52,0.02 1.04,0.03 1.57,0.03 5.03,0 10.12,-0.97 14.92,-2.46 2.47,-0.78 4.93,-1.7 7,-3.16 0.86,-0.61 1.62,-1.28 2.31,-2.02 0.92,-0.05 1.81,-0.17 2.68,-0.41 2.15,-0.61 4.1,-2.13 4.35,-4.1 0.17,-1.3 -0.68,-2.67 -1.92,-3.34 0.34,0.03 0.68,0.04 1.02,0.04 4.32,0 8.63,-2.16 10.54,-5.58 -0.57,0.03 -1.14,0.04 -1.72,0.04 -3,0 -6.01,-0.36 -8.92,-1.06 0.11,-0.66 0.21,-1.31 0.3,-1.96 2.66,-0.24 5.29,-0.59 7.9,-1.07 1.65,-0.3 3.33,-0.67 4.66,-1.57 1.32,-0.9 2.19,-2.47 1.67,-3.88 -1.85,0.33 -3.74,0.49 -5.63,0.49 -2.69,0 -5.39,-0.33 -7.99,-0.98 0.03,-0.92 0.05,-1.85 0.05,-2.78 1.55,-0.51 3.07,-1.12 4.53,-1.81 -0.3,-1.89 -2.44,-2.57 -4.71,-3.16 -0.08,-1.35 -0.21,-2.7 -0.36,-4.05 4.34,-0.12 8.6,-1.62 11.79,-4.19 -1.36,0.17 -2.72,0.26 -4.1,0.26 -2.83,0 -5.68,-0.36 -8.4,-1.07 -0.11,-0.64 -0.22,-1.28 -0.35,-1.92 1.46,-1.15 2.62,-2.59 3.38,-4.17 -1.46,-0.23 -2.93,-0.45 -4.4,-0.68 -0.25,-1.06 -0.51,-2.13 -0.79,-3.19 1.72,-0.55 3.59,-0.89 5.36,-1.28 3.46,-0.78 7.27,-2.36 8.11,-5.42 -1.3,0.1 -2.6,0.15 -3.9,0.15 -4,0 -7.99,-0.46 -11.86,-1.35 -0.43,-1.34 -0.87,-2.67 -1.32,-4.01 0.73,-0.56 1.47,-1.12 2.21,-1.68 -0.58,0.03 -1.15,0.05 -1.73,0.05 -0.35,0 -0.7,0 -1.05,-0.02 -0.71,-2.01 -1.44,-4.01 -2.2,-6.01 0.5,-0.1 1,-0.19 1.48,-0.29 3.59,-0.72 7.73,-2.66 7.55,-5.9 -3.22,0.58 -6.51,0.86 -9.81,0.86 -0.43,0 -0.86,0 -1.29,-0.01 -0.62,-1.56 -1.24,-3.12 -1.86,-4.67 1.21,-0.62 2.42,-1.24 3.63,-1.85 2.24,-1.14 4.83,-3.02 4.02,-5.2 -2.87,1.45 -6.02,2.48 -9.29,3.02 -0.88,-2.29 -2.25,-6.12 -4.17,-9.1 0.96,-2.83 1.6,-5.73 1.91,-8.67 -0.2,-0.06 -0.4,-0.08 -0.6,-0.08 -0.86,0 -1.71,0.48 -2.36,1.01 -1.29,1.07 -2.27,2.41 -2.84,3.88 -0.38,-0.17 -0.77,-0.29 -1.17,-0.37 -0.22,-2.44 -0.23,-4.9 -0.04,-7.34 0.15,-1.92 0.41,-3.91 -0.27,-5.74 -0.25,-0.67 -0.99,-1.38 -1.67,-1.38 -0.18,0 -0.37,0.05 -0.54,0.18 -2.31,1.78 0.09,8.63 -1.21,11.23 -0.75,1.51 -1.46,2.04 -2.2,2.04 -1.49,0 -3.08,-2.23 -5.3,-2.89 -1.28,1.83 1.69,6.6 3.77,9.67 -1.1,1.93 -2.16,4.17 -3.13,6.43 -5.91,-0.12 -11.81,-0.53 -17.67,-1.22 2.02,3.17 6.08,5.24 10.19,5.24 0.15,0 0.3,0 0.45,0 -3.44,1.57 -7.26,2.5 -11.14,2.69 -1.02,0.84 0.71,2.1 2.08,2.4 3.82,0.82 7.64,1.63 11.45,2.45 -0.34,0.76 -0.67,1.53 -1.01,2.29 -1.86,0.4 -3.78,0.6 -5.71,0.6 -0.95,0 -1.9,-0.05 -2.85,-0.15 0.31,2.12 2.19,4 4.54,4.54 -2.15,1.55 -0.25,4.75 -1.25,7.04 -0.95,2.19 -3.98,2.69 -6.78,2.69 -0.44,0 -0.88,-0.01 -1.3,-0.03 -3.62,-0.17 -7.23,-0.35 -10.84,-0.52 -0.08,-0.01 -0.15,-0.01 -0.23,-0.01 -0.96,0 -2.14,0.3 -2.04,1.11 0.06,0.38 0.42,0.68 0.77,0.93 2.59,1.88 5.17,3.75 7.75,5.63 -0.2,-0.07 -0.39,-0.1 -0.58,-0.1 -1.48,0 -2.62,1.86 -1.96,3.19 0.75,1.49 2.68,2.2 4.46,2.66 1.77,0.47 3.72,0.9 4.9,2.16l0.28 0.73c-0.04,0.17 -0.09,0.34 -0.13,0.51 -0.22,0.18 -0.55,0.3 -0.86,0.38 -2.12,0.61 -4.24,1.21 -6.36,1.82 1.45,1.98 3.24,3.78 5.28,5.31 -0.09,0.39 -0.18,0.77 -0.27,1.16 -3.05,0.21 -6.09,0.42 -9.14,0.64 -1.07,0.08 -2.41,0.36 -2.56,1.29 -0.15,0.91 1,1.55 1.97,1.92 2.52,0.97 5.03,1.93 7.55,2.9 -2.04,0.73 -4.26,1.6 -5.26,3.34 -0.97,1.69 0.19,4.33 2.3,4.33 0.05,0 0.11,0 0.16,0 -0.04,1.31 -1.78,1.9 -3.17,2.37 -1.38,0.47 -2.91,1.71 -2.14,2.84 0.23,0.35 0.65,0.57 1.05,0.79 2.04,1.07 4.32,2.17 6.62,2.17 0.04,0 0.08,0 0.12,-0.01 0.11,0.5 0.24,1 0.4,1.5 2.2,6.98 9.08,12.12 16.65,13.98 1.23,0.3 2.46,0.53 3.72,0.68 0.81,0.18 1.64,0.25 2.49,0.25 0.15,0 0.3,0 0.46,0zm30.91 -15.46c-0.21,-0.02 -0.42,-0.04 -0.64,-0.07 0.02,-0.06 0.04,-0.12 0.06,-0.17 0.2,0.06 0.4,0.14 0.58,0.24z"/>
   <path class="fil27" d="M334.53 1204.44c2.1,-2.22 3.5,-5 4.47,-7.92 0.22,0.03 0.43,0.05 0.64,0.07 1.24,0.67 2.09,2.04 1.92,3.34 -0.25,1.97 -2.2,3.49 -4.35,4.1 -0.87,0.24 -1.76,0.36 -2.68,0.41zm6.13 -7.81c-0.34,0 -0.68,-0.01 -1.02,-0.04 -0.18,-0.1 -0.38,-0.18 -0.58,-0.24 0.48,-1.48 0.86,-2.98 1.16,-4.46 0.12,-0.63 0.24,-1.25 0.34,-1.86 2.91,0.7 5.92,1.06 8.92,1.06 0.58,0 1.15,-0.01 1.72,-0.04 -1.91,3.42 -6.22,5.58 -10.54,5.58zm0.2 -8.56c0.33,-2.34 0.53,-4.67 0.61,-7.01 2.6,0.65 5.3,0.98 7.99,0.98 1.89,0 3.78,-0.16 5.63,-0.49 0.52,1.41 -0.35,2.98 -1.67,3.88 -1.33,0.9 -3.01,1.27 -4.66,1.57 -2.61,0.48 -5.24,0.83 -7.9,1.07zm0.66 -9.79c-0.01,-1.66 -0.06,-3.31 -0.18,-4.97 2.27,0.59 4.41,1.27 4.71,3.16 -1.46,0.69 -2.98,1.3 -4.53,1.81zm-0.54 -9.02c-0.19,-1.67 -0.43,-3.34 -0.71,-5 2.72,0.71 5.57,1.07 8.4,1.07 1.38,0 2.74,-0.09 4.1,-0.26 -3.19,2.57 -7.45,4.07 -11.79,4.19zm-1.06 -6.92c-0.3,-1.62 -0.64,-3.23 -1.02,-4.85 1.47,0.23 2.94,0.45 4.4,0.68 -0.76,1.58 -1.92,3.02 -3.38,4.17zm-1.81 -8.04c-0.68,-2.64 -1.46,-5.28 -2.29,-7.9 3.87,0.89 7.86,1.35 11.86,1.35 1.3,0 2.6,-0.05 3.9,-0.15 -0.84,3.06 -4.65,4.64 -8.11,5.42 -1.77,0.39 -3.64,0.73 -5.36,1.28zm-3.61 -11.91c-0.19,-0.55 -0.38,-1.1 -0.57,-1.65 0.35,0.02 0.7,0.02 1.05,0.02 0.58,0 1.15,-0.02 1.73,-0.05 -0.74,0.56 -1.48,1.12 -2.21,1.68zm-2.77 -7.66c-0.67,-1.79 -1.36,-3.57 -2.07,-5.34 0.43,0.01 0.86,0.01 1.29,0.01 3.3,0 6.59,-0.28 9.81,-0.86 0.18,3.24 -3.96,5.18 -7.55,5.9 -0.48,0.1 -0.98,0.19 -1.48,0.29zm-3.93 -10.01c-0.46,-1.12 -0.91,-2.24 -1.36,-3.35 -0.09,-0.2 -0.18,-0.43 -0.28,-0.68 3.27,-0.54 6.42,-1.57 9.29,-3.02 0.81,2.18 -1.78,4.06 -4.02,5.2 -1.21,0.61 -2.42,1.23 -3.63,1.85z"/>
   <path class="fil27" d="M284.89 1195.65c-2.3,0 -4.58,-1.1 -6.62,-2.17 -0.4,-0.22 -0.82,-0.44 -1.05,-0.79 -0.77,-1.13 0.76,-2.37 2.14,-2.84 1.39,-0.47 3.13,-1.06 3.17,-2.37 -0.05,0 -0.11,0 -0.16,0 -2.11,0 -3.27,-2.64 -2.3,-4.33 1,-1.74 3.22,-2.61 5.26,-3.34 -2.52,-0.97 -5.03,-1.93 -7.55,-2.9 -0.97,-0.37 -2.12,-1.01 -1.97,-1.92 0.15,-0.93 1.49,-1.21 2.56,-1.29 3.05,-0.22 6.09,-0.43 9.14,-0.64 -0.7,2.99 -1.33,5.99 -1.91,9 -0.86,4.49 -1.57,9.17 -0.59,13.58 -0.04,0.01 -0.08,0.01 -0.12,0.01zm2.89 -23.75c-2.04,-1.53 -3.83,-3.33 -5.28,-5.31 2.12,-0.61 4.24,-1.21 6.36,-1.82 0.31,-0.08 0.64,-0.2 0.86,-0.38 -0.69,2.49 -1.34,5 -1.94,7.51zm2.07 -8.02l-0.28 -0.73c-1.18,-1.26 -3.13,-1.69 -4.9,-2.16 -1.78,-0.46 -3.71,-1.17 -4.46,-2.66 -0.66,-1.33 0.48,-3.19 1.96,-3.19 0.19,0 0.38,0.03 0.58,0.1 -2.58,-1.88 -5.16,-3.75 -7.75,-5.63 -0.35,-0.25 -0.71,-0.55 -0.77,-0.93 -0.1,-0.81 1.08,-1.11 2.04,-1.11 0.08,0 0.15,0 0.23,0.01 3.61,0.17 7.22,0.35 10.84,0.52 0.42,0.02 0.86,0.03 1.3,0.03 2.8,0 5.83,-0.5 6.78,-2.69 1,-2.29 -0.9,-5.49 1.25,-7.04 -2.35,-0.54 -4.23,-2.42 -4.54,-4.54 0.95,0.1 1.9,0.15 2.85,0.15 1.93,0 3.85,-0.2 5.71,-0.6 -4.33,9.93 -7.95,20.11 -10.84,30.47zm11.85 -32.76c-3.81,-0.82 -7.63,-1.63 -11.45,-2.45 -1.37,-0.3 -3.1,-1.56 -2.08,-2.4 3.88,-0.19 7.7,-1.12 11.14,-2.69 -0.15,0 -0.3,0 -0.45,0 -4.11,0 -8.17,-2.07 -10.19,-5.24 5.86,0.69 11.76,1.1 17.67,1.22 -1.97,4.59 -3.6,9.25 -4.58,11.44 -0.02,0.04 -0.03,0.08 -0.06,0.12z"/>
   <path class="fil27" d="M310.3 1212.08c-0.53,0 -1.05,-0.01 -1.57,-0.03 2.9,-0.1 5.91,-1.11 8.77,-2.6 1.37,-0.71 2.74,-1.54 3.93,-2.79 2.76,-2.88 4.18,-7.5 5.04,-11.9 3.78,-19.15 -0.1,-37.85 -3.96,-55.43 -0.63,-2.82 -1.84,-10.76 -4.73,-10.76 -0.35,0 -0.73,0.12 -1.14,0.38 -2.94,1.88 -6.54,15.15 -7.93,19.03 -4.8,13.33 -8.59,27.18 -11.25,41.2 -0.77,4.01 -1.44,8.18 -0.85,11.98 0.85,5.46 4.31,9.26 8.31,10.43 0.28,0.08 0.56,0.15 0.86,0.21 -1.26,-0.15 -2.49,-0.38 -3.72,-0.68 -7.57,-1.86 -14.45,-7 -16.65,-13.98 -0.16,-0.5 -0.29,-1 -0.4,-1.5 -0.98,-4.41 -0.27,-9.09 0.59,-13.58 0.58,-3.01 1.21,-6.01 1.91,-9 0.09,-0.39 0.18,-0.77 0.27,-1.16 0.6,-2.51 1.25,-5.02 1.94,-7.51 0.04,-0.17 0.09,-0.34 0.13,-0.51 2.89,-10.36 6.51,-20.54 10.84,-30.47 0.34,-0.76 0.67,-1.53 1.01,-2.29 0.03,-0.04 0.04,-0.08 0.06,-0.12 0.98,-2.19 2.61,-6.85 4.58,-11.44 0.97,-2.26 2.03,-4.5 3.13,-6.43 0.56,0.81 1.05,1.51 1.38,1.99l0.57 0.61 1.03 0.2c1.89,0.08 3.78,0.16 5.67,0.24 0.15,0.01 0.3,0.01 0.45,0.01 0.59,0 1.2,-0.07 1.61,-0.43l0.51 -0.8c0.48,-1.1 0.92,-2.23 1.3,-3.36 1.92,2.98 3.29,6.81 4.17,9.1 0.1,0.25 0.19,0.48 0.28,0.68 0.45,1.11 0.9,2.23 1.36,3.35 0.62,1.55 1.24,3.11 1.86,4.67 0.71,1.77 1.4,3.55 2.07,5.34 0.76,2 1.49,4 2.2,6.01 0.19,0.55 0.38,1.1 0.57,1.65 0.45,1.34 0.89,2.67 1.32,4.01 0.83,2.62 1.61,5.26 2.29,7.9 0.28,1.06 0.54,2.13 0.79,3.19 0.38,1.62 0.72,3.23 1.02,4.85 0.13,0.64 0.24,1.28 0.35,1.92 0.28,1.66 0.52,3.33 0.71,5 0.15,1.35 0.28,2.7 0.36,4.05 0.12,1.66 0.17,3.31 0.18,4.97 0,0.93 -0.02,1.86 -0.05,2.78 -0.08,2.34 -0.28,4.67 -0.61,7.01 -0.09,0.65 -0.19,1.3 -0.3,1.96 -0.1,0.61 -0.22,1.23 -0.34,1.86 -0.3,1.48 -0.68,2.98 -1.16,4.46 -0.02,0.05 -0.04,0.11 -0.06,0.17 -0.97,2.92 -2.37,5.7 -4.47,7.92 -0.69,0.74 -1.45,1.41 -2.31,2.02 -2.07,1.46 -4.53,2.38 -7,3.16 -4.8,1.49 -9.89,2.46 -14.92,2.46zm7.23 -100.32c-0.27,-1.46 -0.48,-2.92 -0.6,-4.4 0.4,0.08 0.79,0.2 1.17,0.37 -0.51,1.29 -0.72,2.67 -0.57,4.03z"/>
   <path class="fil31" d="M308.27 1212.05c-0.85,0 -1.68,-0.07 -2.49,-0.25 -0.3,-0.06 -0.58,-0.13 -0.86,-0.21 -4,-1.17 -7.46,-4.97 -8.31,-10.43 -0.59,-3.8 0.08,-7.97 0.85,-11.98 2.66,-14.02 6.45,-27.87 11.25,-41.2 1.39,-3.88 4.99,-17.15 7.93,-19.03 0.41,-0.26 0.79,-0.38 1.14,-0.38 2.89,0 4.1,7.94 4.73,10.76 3.86,17.58 7.74,36.28 3.96,55.43 -0.86,4.4 -2.28,9.02 -5.04,11.9 -1.19,1.25 -2.56,2.08 -3.93,2.79 -2.86,1.49 -5.87,2.5 -8.77,2.6 -0.16,0 -0.31,0 -0.46,0z"/>
   <path class="fil27" d="M318.57 1116.18c-0.15,0 -0.3,0 -0.45,-0.01 -1.89,-0.08 -3.78,-0.16 -5.67,-0.24l-1.03 -0.2 -0.57 -0.61c-0.33,-0.48 -0.82,-1.18 -1.38,-1.99 -2.08,-3.07 -5.05,-7.84 -3.77,-9.67 2.22,0.66 3.81,2.89 5.3,2.89 0.74,0 1.45,-0.53 2.2,-2.04 1.3,-2.6 -1.1,-9.45 1.21,-11.23 0.17,-0.13 0.36,-0.18 0.54,-0.18 0.68,0 1.42,0.71 1.67,1.38 0.68,1.83 0.42,3.82 0.27,5.74 -0.19,2.44 -0.18,4.9 0.04,7.34 0.12,1.48 0.33,2.94 0.6,4.4l0 0c-0.15,-1.36 0.06,-2.74 0.57,-4.03 0.57,-1.47 1.55,-2.81 2.84,-3.88 0.65,-0.53 1.5,-1.01 2.36,-1.01 0.2,0 0.4,0.02 0.6,0.08 -0.31,2.94 -0.95,5.84 -1.91,8.67 -0.38,1.13 -0.82,2.26 -1.3,3.36l-0.51 0.8c-0.41,0.36 -1.02,0.43 -1.61,0.43z"/>
   <path class="fil32" d="M420.55 860.64c-0.91,0 -1.64,-0.74 -1.64,-1.65 0,-0.91 0.73,-1.65 1.64,-1.65 0.91,0 1.65,0.74 1.65,1.65 0,0.91 -0.74,1.65 -1.65,1.65z"/>
   <path class="fil32" d="M451.87 908.81c-2.25,0 -4.08,-1.83 -4.08,-4.08 0,-2.26 1.83,-4.08 4.08,-4.08 2.25,0 4.07,1.82 4.07,4.08 0,2.25 -1.82,4.08 -4.07,4.08z"/>
   <path class="fil32" d="M347.36 1039.15c-2.02,0 -3.66,-1.63 -3.66,-3.65 0,-2.02 1.64,-3.66 3.66,-3.66 2.02,0 3.65,1.64 3.65,3.66 0,2.02 -1.63,3.65 -3.65,3.65z"/>
   <path class="fil32" d="M356.62 926.07c-2.77,0 -5.06,-2 -5.52,-4.63 0.77,-1.85 1.53,-3.7 2.3,-5.55 0.91,-0.64 2.02,-1.02 3.22,-1.02 3.09,0 5.6,2.51 5.6,5.6 0,3.1 -2.51,5.6 -5.6,5.6z"/>
   <path class="fil32" d="M458.33 1041.31c-1.6,0 -2.91,-1.3 -2.91,-2.9 0,-1.61 1.31,-2.91 2.91,-2.91 1.6,0 2.9,1.3 2.9,2.91 0,1.6 -1.3,2.9 -2.9,2.9z"/>
   <g>
    <g>
     <polygon class="fil33 str0" points="187.09,655.43 187.09,711.42 169.53,711.42 169.53,655.43 "/>
     <polygon class="fil33 str0" points="262.15,711.42 244.59,711.42 226,683.27 226,711.42 208.44,711.42 208.44,655.43 226,655.43 244.59,684.06 244.59,655.43 262.15,655.43 "/>
     <polygon class="fil33 str0" points="339.89,655.43 321.07,711.42 298.37,711.42 279.55,655.43 298.21,655.43 309.76,693.94 321.23,655.43 "/>
     <polygon class="fil33 str0" points="374.85,669.43 374.85,676.31 392.25,676.31 392.25,689.51 374.85,689.51 374.85,697.42 394.63,697.42 394.63,711.42 357.3,711.42 357.3,655.43 394.63,655.43 394.63,669.43 "/>
     <polygon class="fil33 str0" points="432.28,669.43 432.28,676.31 449.68,676.31 449.68,689.51 432.28,689.51 432.28,697.42 452.05,697.42 452.05,711.42 414.72,711.42 414.72,655.43 452.05,655.43 452.05,669.43 "/>
     <path class="fil33 str1" d="M178.31 617.52c2.27,-4.56 4.55,-6.84 9.11,-6.84 5.03,0 9.11,4.09 9.11,9.12 0,9.11 -9.11,18.22 -18.22,27.33 -9.11,-9.11 -18.22,-18.22 -18.22,-27.33 0,-5.03 4.08,-9.12 9.11,-9.12 4.55,0 6.83,2.28 9.11,6.84z"/>
    </g>
    <path class="fil34" d="M348.4 694.91c-0.12,0.31 -0.06,0.65 0.19,1.02 0.25,0.37 0.5,0.78 0.75,1.21 0.24,0.44 0.41,0.89 0.51,1.35 0.09,0.47 -0.02,0.92 -0.33,1.35 -3.6,6.7 -6.86,14.01 -9.77,21.92 -2.92,7.91 -5.86,16.92 -8.84,27.04 -0.19,0.68 -0.36,1.3 -0.51,1.86 -0.16,0.56 -0.33,1.12 -0.52,1.67 -0.18,0.56 -0.39,1.18 -0.6,1.87 -0.22,0.68 -0.45,1.49 -0.7,2.42 -0.37,0.8 -0.87,1.05 -1.49,0.74 -0.87,-0.37 -1.46,-1.29 -1.77,-2.74 -0.31,-1.46 -0.49,-3.06 -0.56,-4.8 -0.06,-1.74 -0.03,-3.39 0.1,-4.98 0.12,-1.58 0.25,-2.68 0.37,-3.3 0.56,-3.54 1.36,-7.34 2.42,-11.4 1.05,-4.07 2.33,-8.12 3.82,-12.15 1.48,-4.03 3.14,-7.93 4.98,-11.68 1.83,-3.75 3.83,-7.15 6,-10.19 0.31,-0.31 0.49,-0.53 0.56,-0.65 -0.44,-0.19 -1.49,-0.24 -3.17,-0.14 -1.67,0.09 -3.52,0.24 -5.54,0.46 -2.01,0.22 -4,0.5 -5.95,0.84 -1.96,0.34 -3.43,0.67 -4.42,0.98 0.24,0.31 0.77,0.8 1.58,1.49 0.8,0.68 1.57,1.36 2.28,2.04 0.71,0.69 1.15,1.29 1.3,1.82 0.16,0.53 -0.29,0.79 -1.35,0.79 -1.43,0 -2.81,-0.17 -4.14,-0.51 -1.33,-0.34 -2.59,-0.83 -3.77,-1.44 -0.62,-0.31 -1.32,-0.67 -2.09,-1.08 -0.78,-0.4 -1.51,-0.83 -2.19,-1.3 -0.68,-0.46 -1.27,-0.98 -1.77,-1.53 -0.49,-0.56 -0.74,-1.18 -0.74,-1.87 0,-1.73 0.83,-3.04 2.51,-3.91 3.6,-1.73 8.04,-3.07 13.31,-4 5.27,-0.93 10.87,-1.5 16.8,-1.72 5.92,-0.22 11.91,-0.11 17.96,0.33 6.05,0.43 11.62,1.11 16.71,2.04 0.31,0.07 0.79,0.22 1.44,0.47 0.65,0.25 1.35,0.56 2.1,0.93 0.74,0.37 1.46,0.76 2.14,1.16 0.68,0.41 1.19,0.81 1.53,1.21 0.34,0.41 0.44,0.76 0.28,1.07 -0.15,0.31 -0.66,0.53 -1.53,0.66 -0.87,0.12 -1.74,0.18 -2.61,0.18 -0.87,0 -1.74,0 -2.61,0 -5.46,0 -10.93,0 -16.42,0 -5.49,0 -10.91,0.16 -16.25,0.47zm21.04 38.25l1.12 -1.12 0.09 0 0 0.19c0.12,1.43 0,2.5 -0.37,3.21 -0.37,0.72 -0.56,1.1 -0.56,1.16 -0.62,0.94 -1.46,2.13 -2.51,3.59 -1.06,1.46 -2.16,2.95 -3.31,4.47 -1.15,1.52 -2.25,2.91 -3.3,4.18 -1.06,1.28 -1.9,2.19 -2.52,2.75 -0.74,0.87 -1.55,1.68 -2.41,2.42 -0.32,0.25 -0.73,0.47 -1.26,0.65 -0.53,0.19 -1.07,0.33 -1.63,0.42 -0.56,0.09 -1.1,0.11 -1.63,0.05 -0.53,-0.06 -0.95,-0.22 -1.26,-0.47 -1.05,-0.68 -1.87,-1.5 -2.46,-2.46 -0.59,-0.97 -0.89,-2.01 -0.89,-3.12 -0.18,-3.42 0.11,-6.91 0.89,-10.47 0.77,-3.57 1.69,-6.81 2.74,-9.73 0.31,-0.87 0.75,-1.77 1.31,-2.7 0.55,-0.56 1.21,-0.71 1.95,-0.46 0.75,0.24 1.41,0.76 2,1.53 0.59,0.78 1.03,1.72 1.31,2.84 0.27,1.12 0.23,2.23 -0.14,3.35 -0.31,1.05 -0.59,2.06 -0.84,3.03 -0.25,0.96 -0.53,1.97 -0.84,3.02 -0.12,0.5 -0.33,1.21 -0.6,2.14 -0.28,0.93 -0.58,1.91 -0.89,2.93 -0.31,1.03 -0.59,2 -0.84,2.94 -0.25,0.93 -0.4,1.64 -0.46,2.14 -0.13,0.93 0.12,1.17 0.74,0.74 0.62,-0.43 1.46,-1.18 2.52,-2.23 2.54,-2.61 4.96,-5.14 7.25,-7.59 2.3,-2.45 4.57,-4.92 6.8,-7.4zm-13.03 -11.17c-0.43,0.44 -0.74,0.44 -0.93,0 -0.81,-1.24 -1.34,-2.54 -1.58,-3.91 -0.25,-1.36 -0.13,-2.73 0.37,-4.09 0.25,-0.81 0.79,-1.48 1.63,-2 0.84,-0.53 1.6,-0.7 2.28,-0.51 0.37,0.12 0.77,0.32 1.21,0.6 0.43,0.28 0.71,0.6 0.84,0.98 0.43,1.67 0.2,3.29 -0.7,4.84 -0.9,1.55 -1.94,2.91 -3.12,4.09zm27.18 10.89c-2.61,2.92 -5.05,5.87 -7.31,8.84 -2.26,2.98 -4.48,5.96 -6.65,8.94 -0.5,0.43 -0.94,0.62 -1.31,0.56 -0.37,-0.06 -0.7,-0.25 -0.97,-0.56 -0.28,-0.31 -0.5,-0.7 -0.66,-1.16 -0.15,-0.47 -0.26,-0.89 -0.32,-1.26 -0.13,-1.12 -0.13,-2.34 0,-3.68 0.12,-1.33 0.25,-2.18 0.37,-2.56 0.25,-1.05 0.57,-2.26 0.98,-3.63 0.4,-1.36 0.82,-2.74 1.25,-4.14 0.44,-1.39 0.86,-2.76 1.26,-4.09 0.4,-1.34 0.79,-2.53 1.16,-3.59 0.25,-0.74 0.69,-1.19 1.31,-1.35 0.62,-0.15 1.22,-0.06 1.81,0.28 0.59,0.34 1.06,0.92 1.4,1.73 0.34,0.8 0.39,1.83 0.14,3.07 -0.25,1.24 -0.53,2.48 -0.84,3.72 -0.31,1.24 -0.59,2.45 -0.84,3.63 1.8,-1.99 3.59,-4.05 5.35,-6.19 1.77,-2.14 3.49,-4.27 5.17,-6.38 0.81,-0.56 1.64,-0.68 2.51,-0.37 0.87,0.31 1.52,0.99 1.96,2.05 0.49,1.12 0.71,2.26 0.65,3.44 -0.06,1.18 -0.22,2.3 -0.47,3.35 1.8,-1.86 3.91,-3.69 6.33,-5.49 2.42,-1.8 4.78,-3.16 7.08,-4.09 1.11,-0.44 2.14,-0.5 3.07,-0.19 0.93,0.31 1.74,0.89 2.42,1.72 0.68,0.84 1.19,1.86 1.53,3.07 0.34,1.21 0.48,2.47 0.42,3.77 -0.74,1.56 -1.46,3.06 -2.14,4.52 -0.68,1.46 -1.3,2.9 -1.86,4.33 -0.56,1.42 -1.01,2.85 -1.35,4.28 -0.34,1.42 -0.48,2.88 -0.42,4.37 0.44,0.31 1.17,0.13 2.19,-0.56 1.02,-0.68 2.19,-1.58 3.49,-2.7 1.3,-1.11 2.65,-2.29 4.05,-3.53 1.39,-1.24 2.62,-2.3 3.67,-3.17 3.04,-2.42 4.72,-3.44 5.03,-3.07 0.31,0.37 -0.56,1.77 -2.6,4.19 -1.99,2.36 -4.09,4.68 -6.29,6.98 -2.2,2.3 -4.54,4.28 -7.03,5.96 -0.8,0.56 -1.73,0.85 -2.79,0.88 -1.05,0.03 -2.09,-0.15 -3.11,-0.56 -1.03,-0.4 -1.91,-1.02 -2.66,-1.86 -0.74,-0.84 -1.18,-1.88 -1.3,-3.12 -0.19,-1.61 -0.08,-3.32 0.32,-5.12 0.41,-1.8 0.95,-3.58 1.63,-5.35 0.69,-1.77 1.46,-3.49 2.33,-5.16 0.87,-1.68 1.68,-3.23 2.42,-4.66 -0.19,-0.49 -0.88,-0.32 -2.09,0.51 -1.21,0.84 -2.69,2.01 -4.43,3.5 -1.73,1.48 -3.56,3.16 -5.49,5.02 -1.92,1.86 -3.69,3.57 -5.3,5.12 -0.68,0.62 -1.2,1.01 -1.54,1.16 -0.34,0.16 -0.63,0.24 -0.88,0.24 -0.62,0 -1.03,-0.52 -1.21,-1.54 -0.19,-1.02 -0.27,-2.2 -0.23,-3.54 0.03,-1.33 0.14,-2.63 0.32,-3.91 0.19,-1.27 0.34,-2.15 0.47,-2.65zm33.97 11.64c-0.12,-2.36 0.12,-4.81 0.74,-7.36 0.62,-2.54 1.56,-4.88 2.8,-7.02 1.24,-2.14 2.8,-3.9 4.7,-5.26 1.89,-1.37 4.11,-2.08 6.65,-2.14 1.3,0.31 2.31,0.96 3.03,1.95 0.71,0.99 0.91,2.2 0.6,3.63 -0.25,1.37 -0.6,2.53 -1.07,3.49 -0.46,0.96 -1.26,1.97 -2.37,3.03 -0.56,0.49 -1.34,1.14 -2.33,1.95 -0.99,0.81 -1.95,1.65 -2.88,2.51 -0.94,0.87 -1.74,1.76 -2.42,2.66 -0.69,0.9 -1.03,1.66 -1.03,2.28 -0.18,1.61 0.06,2.65 0.75,3.12 0.68,0.46 1.56,0.65 2.65,0.55 1.08,-0.09 2.19,-0.38 3.3,-0.88 1.12,-0.5 2.02,-0.93 2.7,-1.3 0.81,-0.56 1.71,-1.26 2.7,-2.1 0.99,-0.84 1.99,-1.72 2.98,-2.65 0.99,-0.93 1.95,-1.83 2.89,-2.7 0.93,-0.87 1.7,-1.58 2.32,-2.14 0.5,-0.5 0.95,-0.96 1.35,-1.4 0.4,-0.43 0.89,-0.8 1.44,-1.11 0.5,-0.13 0.89,-0.16 1.17,-0.1 0.28,0.07 0.23,0.53 -0.14,1.4 -0.5,1.05 -1.1,2.05 -1.82,2.98 -0.71,0.93 -1.47,1.86 -2.28,2.79 -1.11,1.24 -2.31,2.55 -3.58,3.91 -1.27,1.36 -2.61,2.62 -4,3.77 -1.4,1.15 -2.86,2.14 -4.38,2.98 -1.52,0.84 -3.08,1.38 -4.7,1.63 -2.85,0.18 -5.19,-0.41 -7.03,-1.77 -1.83,-1.37 -2.74,-3.6 -2.74,-6.7zm14.89 -17.5c-1.67,0.62 -2.99,1.43 -3.95,2.42 -0.97,0.99 -1.66,2.45 -2.1,4.37 1.37,-0.99 2.59,-2 3.68,-3.02 1.08,-1.03 1.88,-2.28 2.37,-3.77z"/>
   </g>
  </g>
 </g>
</svg>
